<svg id="Layer_1" data-name="Layer 1" xmlns="http://www.w3.org/2000/svg" viewBox="0 0 512 512"><defs><style>.cls-1{fill:#abb5af;}</style></defs><title>List-Icons</title><path class="cls-1" d="M235.2,332.24a86.06,86.06,0,0,1,15.6-49.51H151.89a9.31,9.31,0,1,1,0-18.61H268.44a86.64,86.64,0,0,1,73.6-16V100.69A19.7,19.7,0,0,0,322.35,81H181.63v6.51a19,19,0,0,1,.11,2.08v53.94A27.76,27.76,0,0,1,154,171.27H100.07c-0.56,0-1.15,0-1.71-.07H91.47V377.43a19.7,19.7,0,0,0,19.69,19.69H264.53A86.54,86.54,0,0,1,235.2,332.24Zm-83.31-118.6h137.7a9.31,9.31,0,0,1,0,18.61H151.89A9.31,9.31,0,1,1,151.89,213.64Zm68.83,116.55H151.85a9.31,9.31,0,0,1,0-18.61h68.87A9.31,9.31,0,1,1,220.72,330.19Z"/><path class="cls-1" d="M100.07,160.11H154a16.55,16.55,0,0,0,16.57-16.57V89.6a8.29,8.29,0,0,0-8.34-8.3,8.07,8.07,0,0,0-5.81,2.46L94.19,146A8.29,8.29,0,0,0,100.07,160.11Z"/><path class="cls-1" d="M392,382.75l-4-4-4-4a75.38,75.38,0,0,0-30.82-111c-1.82-.86-3.69-1.6-5.58-2.31s-3.69-1.27-5.58-1.79a75.55,75.55,0,0,0-20.25-2.75,75.37,75.37,0,0,0-38.31,140.27A73.78,73.78,0,0,0,295,402.67a75.3,75.3,0,0,0,26.8,4.91,73,73,0,0,0,9.08-.56,74.69,74.69,0,0,0,33.39-12.62l4,4.06,4,4,24.46,24.46a14,14,0,0,0,19.73-19.73Zm-70.25-98A47.34,47.34,0,0,1,342,289.32a51,51,0,0,1,5.58,3.13,47.42,47.42,0,0,1,5.58,75.35,44.06,44.06,0,0,1-5.58,4.24,51,51,0,0,1-5.58,3.13A47.46,47.46,0,1,1,321.79,284.78Z"/></svg>