<svg id="Layer_1" data-name="Layer 1" xmlns="http://www.w3.org/2000/svg" viewBox="0 0 512 512"><defs><style>.cls-1{fill:#fff;}</style></defs><title>List-Icons</title><path class="cls-1" d="M429.9,236.57c-0.55-4.92-6.29-8.62-11.25-8.62A38.64,38.64,0,0,1,392.2,160.7a9.73,9.73,0,0,0,1.07-13.2,173.24,173.24,0,0,0-27.72-28,9.75,9.75,0,0,0-13.3,1.08c-10.43,11.55-29.17,15.84-43.65,9.8a38.87,38.87,0,0,1-23.64-38,9.71,9.71,0,0,0-8.59-10.22,174.64,174.64,0,0,0-39.37-.1,9.74,9.74,0,0,0-8.66,10,38.94,38.94,0,0,1-24,37.34c-14.31,5.84-32.91,1.58-43.32-9.87a9.75,9.75,0,0,0-13.21-1.11,174,174,0,0,0-28.31,28,9.74,9.74,0,0,0,1,13.3,38.78,38.78,0,0,1,9.79,43.67c-6,14.39-21,23.65-38.08,23.65a9.52,9.52,0,0,0-10.11,8.6,175.43,175.43,0,0,0-.07,39.79c0.55,4.94,6.46,8.61,11.48,8.61,15.24-.39,29.87,9,36,24a38.93,38.93,0,0,1-9.79,43.28,9.72,9.72,0,0,0-1.06,13.18,173.86,173.86,0,0,0,27.68,28,9.73,9.73,0,0,0,13.32-1.06c10.47-11.58,29.21-15.86,43.63-9.81a38.82,38.82,0,0,1,23.68,38,9.71,9.71,0,0,0,8.59,10.22,174.25,174.25,0,0,0,39.37.11,9.74,9.74,0,0,0,8.66-10,38.9,38.9,0,0,1,23.95-37.32c14.4-5.88,32.92-1.58,43.34,9.86a9.77,9.77,0,0,0,13.21,1.1,174.2,174.2,0,0,0,28.31-28,9.72,9.72,0,0,0-1-13.3,38.77,38.77,0,0,1-9.8-43.65,39.17,39.17,0,0,1,35.8-23.72l2.16,0.06a9.74,9.74,0,0,0,10.24-8.58A174.66,174.66,0,0,0,429.9,236.57ZM256,356.89a100.89,100.89,0,1,1,86.62-49.16l-44.18-44.18a61.89,61.89,0,0,0-73.27-83.82,7,7,0,0,0-4.85,4.88,6.84,6.84,0,0,0,1.94,6.69s21.81,22,29.11,29.27c0.76,0.76.76,2.59,0.66,3.25l-0.07.48c-0.74,8-2.15,17.65-3.32,21.35l-0.47.45-0.48.5c-3.75,1.2-13.53,2.64-21.68,3.37v0l-0.37.09-0.35,0a4.66,4.66,0,0,1-3.35-1.42c-7.6-7.6-28.55-28.4-28.55-28.4a7.12,7.12,0,0,0-5.09-2.27,6.92,6.92,0,0,0-6.52,5.27,61.89,61.89,0,0,0,83.85,73.16L310.29,341A100.38,100.38,0,0,1,256,356.89Z"/></svg>