<svg id="Layer_1" data-name="Layer 1" xmlns="http://www.w3.org/2000/svg" viewBox="0 0 512 512"><defs><style>.cls-1{fill:#fff;}</style></defs><title>List-Icons</title><path class="cls-1" d="M462.95,92.09a6,6,0,0,0-10.45-1.28c-7.57,10.61-17.5,14.15-29,18.25-9.28,3.3-18.87,6.72-29.24,14.16-14.66,10.53-21.37,24.88-18,38.48l-0.36.46A196.78,196.78,0,0,0,356,137.73,185.2,185.2,0,0,0,229.93,81.11c-2.08-.07-4.2-0.11-6.29-0.11-52.76,0-103.27,23.59-138.56,64.71C50,186.63,34.41,239.89,42.39,291.83c0.67,4.34,1.5,8.73,2.48,13C57.85,362,91,405.44,135.8,424.08A86.08,86.08,0,0,0,168.91,431c27.14,0,50.85-14.52,65-39.83a86.15,86.15,0,0,0,10.34-29.61c0.86-5.91.27-11.82-.3-17.54-0.59-5.89-1.15-11.46-.26-17.06,2-12.85,11-20.52,24-20.52A37,37,0,0,1,279,308.25c-4.42,8.1-8.43,15.83-11.93,23-7.43,15.19-12.55,27.77-15.23,37.38-1.65,5.93-6,21.69,4.66,29.12a16,16,0,0,0,12.2,2.36c4-.75,16.34-3,51.3-42.83,9.38-10.68,19.49-23,30.06-36.74,27.13-9.14,48.24-31.87,53.82-58a85.47,85.47,0,0,0,1.73-20.78c10.16-15.7,19.06-30.34,28-46.09,0.17-.3.34-0.63,0.51-1,13-3.56,24.22-13.69,30.79-27.85C474.54,146.2,473.83,119.65,462.95,92.09ZM316.3,189.94a25.54,25.54,0,1,1,3.29-19.27A25.43,25.43,0,0,1,316.3,189.94Zm33.16,46.28c12.91-19,26.57-37.94,39.54-54.77a70,70,0,0,0,7,5.52,53.82,53.82,0,0,0,13.14,6.74c-11,18.73-22.73,37.28-37,58.29-23.43,34.52-47.79,66.58-68.59,90.28-11.62,13.24-21.79,23.46-29.63,29.79,3-9.68,8.8-23,16.85-38.69C305.18,305.27,326,270.76,349.46,236.22Zm-226.74-.16a25.55,25.55,0,1,1,21.64-11.94A25.46,25.46,0,0,1,122.72,236.06ZM95.94,292.31a25.54,25.54,0,1,1-3.29,19.27A25.43,25.43,0,0,1,95.94,292.31ZM177.75,140.6a25.55,25.55,0,1,1-3.29,19.27A25.43,25.43,0,0,1,177.75,140.6Z"/></svg>