<?xml version="1.0" encoding="utf-8"?>
<!-- Generator: Adobe Illustrator 21.0.0, SVG Export Plug-In . SVG Version: 6.00 Build 0)  -->
<svg version="1.1" id="Layer_1" xmlns="http://www.w3.org/2000/svg" xmlns:xlink="http://www.w3.org/1999/xlink" x="0px" y="0px"
	 viewBox="0 0 22 22" style="enable-background:new 0 0 22 22;" xml:space="preserve">
<style type="text/css">
	.st0{fill:#FFFFFF;}
	.st1{fill:#AF0E0E;}
	.st2{fill:#282828;}
</style>
<g>
	<circle class="st0" cx="11" cy="11" r="10.2"/>
	<g>
		<path class="st1" d="M11,22C4.9,22,0,17.1,0,11C0,4.9,4.9,0,11,0c6.1,0,11,4.9,11,11C22,17.1,17.1,22,11,22z M11,2.2
			c-4.8,0-8.8,3.9-8.8,8.8s3.9,8.8,8.8,8.8c4.8,0,8.8-3.9,8.8-8.8C19.8,6.2,15.8,2.2,11,2.2z"/>
	</g>
	<g>
		<g>
			<path class="st2" d="M5.4,14.2c0.9,2.5,5.6,2.2,5.6,2.2s4.7,0.3,5.6-2.2c-1.3-0.7-3.3-1.1-5.6-1.1C8.7,13.1,6.7,13.5,5.4,14.2z"
				/>
			<path class="st2" d="M16.6,7.9c-1-0.1-2.7-0.2-4-1.3c-1.3-1.2-1.6-1-1.6-1s-0.3-0.2-1.6,1c-1.3,1.2-3,1.2-4,1.3
				c-1,0.1-1,0.5-1.2,1.7c-0.3,1.2-1.1,1.5-0.8,1.7c0.2,0.2,1.1,0.9,1.6,1.4c1.4-0.8,3.5-1.4,6-1.4c2.5,0,4.7,0.5,6,1.4
				c0.5-0.4,1.4-1.2,1.6-1.4c0.3-0.3-0.6-0.6-0.8-1.7C17.5,8.4,17.6,8,16.6,7.9z M12.3,10.6L11,9.7l-1.3,0.9l0.5-1.5L8.9,8.2h1.6
				L11,6.7l0.5,1.5h1.6l-1.3,0.9L12.3,10.6z"/>
			<path class="st2" d="M16.6,13c-1.3-0.7-3.4-1.2-5.6-1.2c-2.3,0-4.4,0.5-5.6,1.2v0.7c1.4-0.7,3.4-1.1,5.6-1.1
				c2.3,0,4.3,0.4,5.6,1.1V13z"/>
		</g>
	</g>
</g>
</svg>
