<?xml version="1.0" encoding="utf-8"?>
<!-- Generator: Adobe Illustrator 21.0.0, SVG Export Plug-In . SVG Version: 6.00 Build 0)  -->
<svg version="1.1" id="Layer_1" xmlns="http://www.w3.org/2000/svg" xmlns:xlink="http://www.w3.org/1999/xlink" x="0px" y="0px"
	 viewBox="0 0 19.2 19.2" style="enable-background:new 0 0 19.2 19.2;" xml:space="preserve">
<style type="text/css">
	.st0{fill:#FFFFFF;}
	.st1{fill:#488C2C;}
	.st2{fill:#23A8AF;}
	.st3{fill:#282828;}
	.st4{fill:#E08500;}
	.st5{fill:#B71C83;}
	.st6{fill:#153F9E;}
	.st7{fill:#AF0E0E;}
	.st8{fill:#992B7A;}
</style>
<circle class="st0" cx="9.6" cy="9.6" r="8.9"/>
<g>
	<path class="st6" d="M9.6,19.2C4.3,19.2,0,14.9,0,9.6C0,4.3,4.3,0,9.6,0c5.3,0,9.6,4.3,9.6,9.6C19.2,14.9,14.9,19.2,9.6,19.2z
		 M9.6,2C5.4,2,2,5.4,2,9.6s3.4,7.6,7.6,7.6c4.2,0,7.6-3.4,7.6-7.6C17.3,5.4,13.8,2,9.6,2z"/>
</g>
<g>
	<path class="st3" d="M14.4,8.7c0.2-0.1,0.3-0.4,0.1-0.6l-1.5-2.3c-0.1-0.1-0.2-0.2-0.3-0.2c-0.1,0-0.2,0-0.3,0.1l-1,0.7V5
		c0-0.2-0.2-0.4-0.4-0.4H8.2C8,4.6,7.8,4.8,7.8,5v1.2l-1-0.7C6.5,5.5,6.3,5.5,6.1,5.7L4.6,8C4.6,8.1,4.5,8.3,4.6,8.4
		c0,0.1,0.1,0.2,0.2,0.3l1.5,0.9l-1.5,0.9c-0.1,0.1-0.2,0.2-0.2,0.3c0,0.1,0,0.2,0.1,0.3l1.5,2.3c0.1,0.1,0.2,0.2,0.3,0.2
		c0.1,0,0.2,0,0.3-0.1l1-0.7v1.2c0,0.2,0.2,0.4,0.4,0.4H11c0.2,0,0.4-0.2,0.4-0.4v-1.2l1,0.7c0.1,0.1,0.2,0.1,0.3,0.1
		c0.1,0,0.2-0.1,0.3-0.2l1.5-2.3c0.1-0.2,0.1-0.5-0.1-0.6L13,9.6L14.4,8.7z M9,12.6c-0.2,0-0.3-0.1-0.4-0.2c0,0,0-0.1,0-0.1
		c-0.1-0.2,0-0.5,0.3-0.6c0.1,0,0.2-0.1,0.3-0.1V9.9C8.6,9.6,8,9.2,7.9,8.7C7.7,7.9,8,7.4,8.3,7.2C8.4,7,8.6,6.9,8.7,6.9
		C8.9,6.8,9,6.8,9.1,6.7V6.4c0-0.3,0.2-0.5,0.5-0.5c0.3,0,0.5,0.2,0.5,0.5v0.3c0.2,0,0.4,0,0.6,0.1c0.1,0,0.1,0,0.2,0
		c0.2,0.1,0.4,0.3,0.3,0.5c0,0.2-0.2,0.3-0.4,0.4c-0.2,0-0.4-0.1-0.7-0.1c-0.3,0-0.7,0-0.9,0.1c0,0-0.2,0.1-0.3,0.2
		C8.8,8,8.7,8.2,8.8,8.5c0,0.1,0.2,0.2,0.3,0.3V7.9l0.9,0.2v3.1c0.4-0.2,0.4-0.4,0.4-0.4c0,0-0.3-1.4-0.3-1.4
		c0.7,0.4,1.3,0.8,1.2,1.5c0,0.4-0.4,0.8-1.1,1.2l-0.2,0.1l-0.9,0.4v0c0,0,0,0,0,0C9.1,12.6,9,12.6,9,12.6z M10.1,12.8
		c0,0.3-0.2,0.5-0.5,0.5c-0.3,0-0.5-0.2-0.5-0.5v-0.2l0.9-0.2L10.1,12.8L10.1,12.8z"/>
</g>
</svg>
