<svg id="Layer_1" data-name="Layer 1" xmlns="http://www.w3.org/2000/svg" viewBox="0 0 19.2 19.2"><defs><style>.cls-1{fill:#fff;}.cls-2{fill:#488c2c;}.cls-3{fill:#282828;}</style></defs><title>All Icons</title><circle class="cls-1" cx="9.6" cy="9.6" r="8.88"/><path class="cls-2" d="M9.55,19.2a9.6,9.6,0,1,1,9.6-9.6A9.61,9.61,0,0,1,9.55,19.2ZM9.55,2A7.65,7.65,0,1,0,17.2,9.6,7.66,7.66,0,0,0,9.55,2Z"/><path class="cls-3" d="M9.63,8.18h-5c-.22,0-.35-.14-.32-.33a.37.37,0,0,1,.18-.22L6.09,6.36,9.43,3.78a.28.28,0,0,1,.4,0l5,3.86a.35.35,0,0,1,.16.19.27.27,0,0,1-.25.35H9.63ZM7.44,6.91h4.38l0,0L9.69,5.25c-.05,0-.08,0-.12,0L8.09,6.4Z"/><path class="cls-3" d="M9.63,14.14H4.36c-.1,0-.13,0-.12-.12s0-.18,0-.27.06-.24.24-.24H5c.08,0,.12,0,.11-.11s0-.21,0-.32a.19.19,0,0,1,.21-.21h8.6a.18.18,0,0,1,.17.18c0,.12,0,.24,0,.36s0,.09.09.09h.59c.16,0,.22.07.22.22s0,.22,0,.33,0,.09-.08.08H9.63Z"/><path class="cls-3" d="M12.58,12.52h-.92c-.12,0-.14,0-.14-.18s0-.17.14-.17.23,0,.23-.24V9.38c0-.08,0-.12-.1-.14a.36.36,0,0,1,.07-.71h1.46a.36.36,0,0,1,.06.71c-.08,0-.09.05-.09.12,0,.9,0,1.81,0,2.7,0,.08,0,.12.1.1h.08c.17,0,.17,0,.17.17s0,.17-.17.17Z"/><path class="cls-3" d="M6.68,12.52H5.76c-.14,0-.15,0-.15-.15s0-.19.19-.19h.06c.08,0,.11,0,.11-.1q0-1.35,0-2.7c0-.07,0-.1-.09-.12a.36.36,0,0,1-.27-.38.36.36,0,0,1,.34-.33H7.4a.36.36,0,0,1,.07.71c-.08,0-.09.06-.09.13q0,1.34,0,2.68c0,.09,0,.13.12.11h.1c.14,0,.16,0,.16.17s0,.18-.18.18Z"/><path class="cls-3" d="M8.93,10.71c0-.45,0-.9,0-1.35,0-.06,0-.1-.08-.12a.36.36,0,0,1-.29-.36.36.36,0,0,1,.35-.35h1.45a.36.36,0,0,1,.05.71c-.06,0-.08,0-.08.1v2.74c0,.07,0,.1.09.09h.12c.06,0,.13,0,.15.06a.32.32,0,0,1,0,.26s-.06,0-.09,0H8.69c-.09,0-.13,0-.13-.12s0-.08,0-.12,0-.1.11-.1h.16c.09,0,.11,0,.11-.11C8.93,11.62,8.93,11.16,8.93,10.71Z"/></svg>