<svg id="Layer_1" data-name="Layer 1" xmlns="http://www.w3.org/2000/svg" viewBox="0 0 19.2 19.2"><defs><style>.cls-1{fill:#fff;}.cls-2{fill:#992b7a;}.cls-3{fill:#282828;}</style></defs><title>All Icons</title><circle class="cls-1" cx="9.6" cy="9.6" r="8.88"/><path class="cls-2" d="M9.6,19.2a9.6,9.6,0,1,1,9.6-9.6A9.61,9.61,0,0,1,9.6,19.2ZM9.6,2A7.65,7.65,0,1,0,17.25,9.6,7.66,7.66,0,0,0,9.6,2Z"/><path class="cls-3" d="M12.45,6.89a.93.93,0,0,0-1.31,0L9.05,9h-1L7.7,5a.3.3,0,0,0-.3-.27H6.24a.3.3,0,0,0-.3.27L5.59,9h0a.87.87,0,0,0-.86.87v3.84a.86.86,0,0,0,.86.86h8.12a.86.86,0,0,0,.86-.86V9.31a.87.87,0,0,0-.25-.61Zm-1.08,6.19a.21.21,0,0,1-.21.21h-.55a.21.21,0,0,1-.21-.21V10.41a.21.21,0,0,1,.21-.21h.55a.21.21,0,0,1,.21.21Zm1.92,0a.21.21,0,0,1-.21.21h-.55a.21.21,0,0,1-.21-.21V10.41a.21.21,0,0,1,.21-.21h.55a.21.21,0,0,1,.21.21Z"/></svg>