<svg id="Layer_1" data-name="Layer 1" xmlns="http://www.w3.org/2000/svg" viewBox="0 0 19.2 19.2"><defs><style>.cls-1{fill:#fff;}.cls-2{fill:#af0e0e;}.cls-3{fill:#282828;}</style></defs><title>All Icons</title><circle class="cls-1" cx="9.62" cy="9.66" r="8.49"/><path class="cls-2" d="M9.62,19.26a9.6,9.6,0,1,1,9.6-9.6A9.61,9.61,0,0,1,9.62,19.26ZM9.62,2a7.65,7.65,0,1,0,7.65,7.65A7.66,7.66,0,0,0,9.62,2Z"/><path class="cls-3" d="M14.9,7.63,9.7,4.7a.19.19,0,0,0-.19,0L4.3,7.63a.19.19,0,0,0-.1.17v6.68a.06.06,0,0,0,.06.06H5.41a.06.06,0,0,0,.06-.06V8.81h8.27v5.67a.06.06,0,0,0,.06.06h1.15a.06.06,0,0,0,.06-.06V7.8A.19.19,0,0,0,14.9,7.63Z"/><path class="cls-3" d="M12.84,12.74H11.43a.19.19,0,0,0-.19.19v1.41a.19.19,0,0,0,.19.19h1.41a.19.19,0,0,0,.19-.19V12.93A.19.19,0,0,0,12.84,12.74Z"/><path class="cls-3" d="M10.3,12.74H8.9a.19.19,0,0,0-.19.19v1.41a.19.19,0,0,0,.19.19H10.3a.19.19,0,0,0,.19-.19V12.93A.19.19,0,0,0,10.3,12.74Z"/><path class="cls-3" d="M7.77,12.74H6.36a.19.19,0,0,0-.19.19v1.41a.19.19,0,0,0,.19.19H7.77A.19.19,0,0,0,8,14.34V12.93A.19.19,0,0,0,7.77,12.74Z"/><path class="cls-3" d="M12.84,10.15H11.43a.19.19,0,0,0-.19.19v1.41a.19.19,0,0,0,.19.19h1.41a.19.19,0,0,0,.19-.19V10.34A.19.19,0,0,0,12.84,10.15Z"/><path class="cls-3" d="M10.3,10.15H8.9a.19.19,0,0,0-.19.19v1.41a.19.19,0,0,0,.19.19H10.3a.19.19,0,0,0,.19-.19V10.34A.19.19,0,0,0,10.3,10.15Z"/><path class="cls-3" d="M7.77,10.15H6.36a.19.19,0,0,0-.19.19v1.41a.19.19,0,0,0,.19.19H7.77A.19.19,0,0,0,8,11.75V10.34A.19.19,0,0,0,7.77,10.15Z"/></svg>