<svg id="Layer_1" data-name="Layer 1" xmlns="http://www.w3.org/2000/svg" viewBox="0 0 19.2 19.2"><defs><style>.cls-1{fill:#fff;}.cls-2{fill:#b71c83;}.cls-3{fill:#282828;}.cls-4{fill:#e08500;}</style></defs><title>All Icons</title><circle class="cls-1" cx="9.5" cy="9.65" r="8.49"/><path class="cls-2" d="M9.5,19.25a9.6,9.6,0,1,1,9.6-9.6A9.61,9.61,0,0,1,9.5,19.25ZM9.5,2a7.65,7.65,0,1,0,7.65,7.65A7.66,7.66,0,0,0,9.5,2Z"/><path class="cls-3" d="M12.28,10.13a1.69,1.69,0,0,0,1.55-.41,1.2,1.2,0,0,1,.48.69A1.28,1.28,0,0,1,13.1,12a1.19,1.19,0,0,1-.87-.34c-.56-.56-1.12-1.11-1.68-1.68a2.92,2.92,0,0,1-.72-1.47A4,4,0,0,1,10,6.24a2.56,2.56,0,0,1,.8-1.13,1.33,1.33,0,0,1,1.51-.16A2.8,2.8,0,0,1,13.7,6.59,2.83,2.83,0,0,1,12.45,10Z"/><path class="cls-3" d="M9.57,14a1.67,1.67,0,0,0,.4-1.54l-.06.1a3,3,0,0,1-1.79,1.4,2.83,2.83,0,0,1-2.37-.43,2.64,2.64,0,0,1-.94-1A1.37,1.37,0,0,1,5,10.82,2.73,2.73,0,0,1,6.56,10a4.14,4.14,0,0,1,2.63.27,2.43,2.43,0,0,1,.72.5l1.59,1.59a1.26,1.26,0,0,1,.07,1.73,1.28,1.28,0,0,1-1.94,0Z"/><path class="cls-3" d="M8.1,8.25C8,8,8,7.83,7.94,7.63s-.09-.66-.12-1a.16.16,0,0,0-.08-.14.62.62,0,0,1-.26-.76.63.63,0,1,1,1,.68.16.16,0,0,0-.06.1,5.35,5.35,0,0,0,.23,1.59A1.85,1.85,0,0,0,9,8.72a.28.28,0,0,1,0,.4.27.27,0,0,1-.4,0,2.39,2.39,0,0,0-1.21-.48c-.31,0-.62-.06-.93-.09a.2.2,0,0,0-.14.06.64.64,0,0,1-1.1-.53.63.63,0,0,1,.59-.52.6.6,0,0,1,.56.28A.15.15,0,0,0,6.48,8,5.79,5.79,0,0,1,8.1,8.25Z"/><circle class="cls-1" cx="9.5" cy="9.65" r="8.49"/><path class="cls-4" d="M9.5,19.25a9.6,9.6,0,1,1,9.6-9.6A9.61,9.61,0,0,1,9.5,19.25ZM9.5,2a7.65,7.65,0,1,0,7.65,7.65A7.66,7.66,0,0,0,9.5,2Z"/><path class="cls-3" d="M12.28,10.13a1.69,1.69,0,0,0,1.55-.41,1.2,1.2,0,0,1,.48.69A1.28,1.28,0,0,1,13.1,12a1.19,1.19,0,0,1-.87-.34c-.56-.56-1.12-1.11-1.68-1.68a2.92,2.92,0,0,1-.72-1.47A4,4,0,0,1,10,6.24a2.56,2.56,0,0,1,.8-1.13,1.33,1.33,0,0,1,1.51-.16A2.8,2.8,0,0,1,13.7,6.59,2.83,2.83,0,0,1,12.45,10Z"/><path class="cls-3" d="M9.57,14a1.67,1.67,0,0,0,.4-1.54l-.06.1a3,3,0,0,1-1.79,1.4,2.83,2.83,0,0,1-2.37-.43,2.64,2.64,0,0,1-.94-1A1.37,1.37,0,0,1,5,10.82,2.73,2.73,0,0,1,6.56,10a4.14,4.14,0,0,1,2.63.27,2.43,2.43,0,0,1,.72.5l1.59,1.59a1.26,1.26,0,0,1,.07,1.73,1.28,1.28,0,0,1-1.94,0Z"/><path class="cls-3" d="M8.1,8.25C8,8,8,7.83,7.94,7.63s-.09-.66-.12-1a.16.16,0,0,0-.08-.14.62.62,0,0,1-.26-.76.63.63,0,1,1,1,.68.16.16,0,0,0-.06.1,5.35,5.35,0,0,0,.23,1.59A1.85,1.85,0,0,0,9,8.72a.28.28,0,0,1,0,.4.27.27,0,0,1-.4,0,2.39,2.39,0,0,0-1.21-.48c-.31,0-.62-.06-.93-.09a.2.2,0,0,0-.14.06.64.64,0,0,1-1.1-.53.63.63,0,0,1,.59-.52.6.6,0,0,1,.56.28A.15.15,0,0,0,6.48,8,5.79,5.79,0,0,1,8.1,8.25Z"/></svg>