<svg id="Layer_1" data-name="Layer 1" xmlns="http://www.w3.org/2000/svg" viewBox="0 0 19.2 19.2"><defs><style>.cls-1{fill:#fff;}.cls-2{fill:#992b7a;}.cls-3{fill:#282828;}</style></defs><title>All Icons</title><circle class="cls-1" cx="9.6" cy="9.6" r="8.88"/><path class="cls-2" d="M9.6,19.2a9.6,9.6,0,1,1,9.6-9.6A9.61,9.61,0,0,1,9.6,19.2ZM9.6,2A7.65,7.65,0,1,0,17.25,9.6,7.66,7.66,0,0,0,9.6,2Z"/><path class="cls-3" d="M9.39,12.72V5.57a6,6,0,0,0-4,.21v7.15A6,6,0,0,1,9.39,12.72Z"/><path class="cls-3" d="M13.86,12.93V5.78a6.1,6.1,0,0,0-4-.22v7.15A6.1,6.1,0,0,1,13.86,12.93Z"/><path class="cls-3" d="M14.28,6.63v7a5.09,5.09,0,0,0-2.53-.71,10.7,10.7,0,0,0-2.15.3,10.91,10.91,0,0,0-2.15-.3,5,5,0,0,0-2.53.71v-7H4.37v7.25H14.84V6.63h-.56Z"/></svg>