<svg id="Layer_1" data-name="Layer 1" xmlns="http://www.w3.org/2000/svg" viewBox="0 0 19.2 19.2"><defs><style>.cls-1{fill:#fff;}.cls-2{fill:#e08500;}.cls-3{fill:#282828;}</style></defs><title>All Icons</title><circle class="cls-1" cx="9.6" cy="9.6" r="8.49"/><path class="cls-2" d="M9.56,19.2a9.6,9.6,0,1,1,9.6-9.6A9.61,9.61,0,0,1,9.56,19.2ZM9.56,2A7.65,7.65,0,1,0,17.21,9.6,7.66,7.66,0,0,0,9.56,2Z"/><path class="cls-3" d="M9.66,16.19A7.1,7.1,0,0,0,14.8,14L13.3,11.15a.2.2,0,0,0-.22-.11H11.32a.29.29,0,0,0-.27.14L9.79,12.86,9.65,13l-.15-.19c-.42-.56-.84-1.12-1.27-1.68A.31.31,0,0,0,8,11H6.26a.27.27,0,0,0-.28.17L4.51,14A7.1,7.1,0,0,0,9.66,16.19Z"/><path class="cls-3" d="M7,6.4c0,.36,0,.72,0,1.11a5.27,5.27,0,0,1,2.64-.58,5,5,0,0,1,2.64.56V7.25c0-.4,0-.81,0-1.21,0-.06,0-.16.07-.18l1.15-.37c0,.17,0,.34-.05.42a.55.55,0,0,0-.07.68.67.67,0,0,1-.06.74,1.52,1.52,0,0,0-.23,1.12c0,.06.08.11.13.17s.09-.12.1-.18,0-.41,0-.66c.17.31,0,.58,0,.91.32-.26.17-.6.31-.87a5,5,0,0,1,0,.58c0,.1,0,.19,0,.29s.06.09.08.14.09-.06.11-.09a2.1,2.1,0,0,0,.06-.26c0,.11-.07.32.21.31A4.28,4.28,0,0,0,14,7a.86.86,0,0,1,0-.39A.64.64,0,0,0,13.9,6a.72.72,0,0,1,0-.7L9.88,4a.7.7,0,0,0-.45,0L5.5,5.27l-.18.08,1.19.38C7,5.88,7,5.88,7,6.4Z"/><path class="cls-3" d="M11.4,7.7c-.57-.13-1.15-.2-1.57-.27s-.86.06-1.21.11a2.75,2.75,0,0,0-1.44.52.27.27,0,0,0-.11.29,2.63,2.63,0,0,0,5.2,0,.27.27,0,0,0-.09-.22A3,3,0,0,0,11.4,7.7Z"/></svg>