<svg id="Layer_1" data-name="Layer 1" xmlns="http://www.w3.org/2000/svg" viewBox="0 0 19.2 19.2"><defs><style>.cls-1{fill:#fff;}.cls-2{fill:#992b7a;}.cls-3{fill:#282828;}</style></defs><title>All Icons</title><circle class="cls-1" cx="9.6" cy="9.6" r="8.88"/><path class="cls-2" d="M9.6,19.2a9.6,9.6,0,1,1,9.6-9.6A9.61,9.61,0,0,1,9.6,19.2ZM9.6,2A7.65,7.65,0,1,0,17.25,9.6,7.66,7.66,0,0,0,9.6,2Z"/><path class="cls-3" d="M15.66,11.25,14.32,9.13V5.23l-.55-.55H5.43l-.55.55v3.9L3.54,11.25ZM13.23,5.77V8.5A14.62,14.62,0,0,0,9.6,8.09,14.62,14.62,0,0,0,6,8.5V5.77Z"/><polygon class="cls-3" points="3.52 11.92 3.52 13.02 4.79 13.02 4.79 14.52 5.88 14.52 5.88 13.02 13.33 13.02 13.33 14.52 14.42 14.52 14.42 13.02 15.69 13.02 15.69 11.92 3.52 11.92"/><path class="cls-3" d="M9.16,7.52V6.89c0-.38-.55-.68-1.22-.68s-1.22.31-1.22.68v1a10.26,10.26,0,0,1,1.22-.23Z"/><path class="cls-3" d="M12.49,7.84v-1c0-.38-.55-.68-1.22-.68S10,6.51,10,6.89v.64l1.23.09A10.26,10.26,0,0,1,12.49,7.84Z"/></svg>