<svg id="Layer_1" data-name="Layer 1" xmlns="http://www.w3.org/2000/svg" viewBox="0 0 19.2 19.2"><defs><style>.cls-1{fill:#fff;}.cls-2{fill:#488c2c;}.cls-3{fill:#282828;}</style></defs><title>All Icons</title><circle class="cls-1" cx="9.6" cy="9.6" r="8.88"/><path class="cls-2" d="M9.55,19.2a9.6,9.6,0,1,1,9.6-9.6A9.61,9.61,0,0,1,9.55,19.2ZM9.55,2A7.65,7.65,0,1,0,17.2,9.6,7.66,7.66,0,0,0,9.55,2Z"/><path class="cls-3" d="M12.29,9.15a.52.52,0,0,0,.45-.77L10.86,5.11a.52.52,0,1,0-.91.5l1.88,3.27A.52.52,0,0,0,12.29,9.15Z"/><path class="cls-3" d="M6.66,9.08a.51.51,0,0,0,.25.07.52.52,0,0,0,.45-.27L9.25,5.61a.52.52,0,0,0-.91-.5L6.46,8.38a.52.52,0,0,0,.2.7Z"/><path class="cls-3" d="M14.43,8.41H13.26a1,1,0,0,1-1.84.69L11,8.41H8.18l-.4.7a1,1,0,0,1-1.84-.7H4.77a.52.52,0,1,0,0,1h.17a.49.49,0,0,0,0,.07l1,3.86a.84.84,0,0,0,.77.59h.18v.19a.22.22,0,0,0,.24.19H8.55a.22.22,0,0,0,.24-.19V14h1.77v.19a.22.22,0,0,0,.24.19h1.38a.22.22,0,0,0,.24-.19V14h0a.84.84,0,0,0,.77-.59l1-3.86a.51.51,0,0,0,0-.07h.17a.52.52,0,1,0,0-1Zm-7,4.51a.3.3,0,0,1-.59,0V10.68a.3.3,0,0,1,.59,0Zm1.65,0a.3.3,0,0,1-.59,0V10.68a.3.3,0,0,1,.59,0Zm1.65,0a.3.3,0,0,1-.59,0V10.68a.3.3,0,0,1,.59,0Zm1.65,0a.3.3,0,0,1-.59,0V10.68a.3.3,0,0,1,.59,0Z"/></svg>