<svg id="Layer_1" data-name="Layer 1" xmlns="http://www.w3.org/2000/svg" viewBox="0 0 19.2 19.2"><defs><style>.cls-1{fill:#fff;}.cls-2{fill:#282828;}.cls-3{fill:#992b7a;}</style></defs><title>All Icons</title><circle class="cls-1" cx="9.6" cy="9.6" r="8.88"/><path class="cls-2" d="M6,6.12A.4.4,0,0,0,6.26,6,.76.76,0,0,0,7.5,5.46a1.06,1.06,0,1,0-.68-1,1.13,1.13,0,0,0,0,.18h-.1A.76.76,0,0,0,6,5.32H6a.4.4,0,0,0,0,.81Z"/><path class="cls-2" d="M14.63,13.78V8.37L12,10V8.47L9.27,9.86V8.47L6.8,9.7,6.68,7.08H5.2l-.28,6.7H4.62v.91H15v-.91ZM11.9,11.42a.32.32,0,0,1,.32-.32h1.66a.32.32,0,0,1,.32.32v.7a.32.32,0,0,1-.32.32H12.22a.32.32,0,0,1-.32-.32Zm-2.49,0a.32.32,0,0,1,.32-.32h1.66a.32.32,0,0,1,.32.32v.7a.32.32,0,0,1-.32.32H9.73a.32.32,0,0,1-.32-.32Zm-2.54,0a.32.32,0,0,1,.32-.32H8.85a.32.32,0,0,1,.32.32v.7a.32.32,0,0,1-.32.32H7.19a.32.32,0,0,1-.32-.32Z"/><path class="cls-3" d="M9.6,19.2a9.6,9.6,0,1,1,9.6-9.6A9.61,9.61,0,0,1,9.6,19.2ZM9.6,2A7.65,7.65,0,1,0,17.25,9.6,7.66,7.66,0,0,0,9.6,2Z"/></svg>