<svg id="Layer_1" data-name="Layer 1" xmlns="http://www.w3.org/2000/svg" viewBox="0 0 19.2 19.2"><defs><style>.cls-1{fill:#fff;}.cls-2{fill:#282828;}.cls-3{fill:#992b7a;}</style></defs><title>All Icons</title><circle class="cls-1" cx="9.6" cy="9.6" r="8.88"/><path class="cls-2" d="M14.45,4.63l-1.11.5a.67.67,0,0,0-.19.13L11.34,7.08,5.13,6.33a.37.37,0,0,0-.31.11l-.35.35a.37.37,0,0,0,.11.6L9,9.38,7.76,10.66H5.53a.37.37,0,0,0-.26.11L5.08,11a.37.37,0,0,0,.12.6l1.89.81.81,1.89a.37.37,0,0,0,.6.12l.19-.19a.37.37,0,0,0,.11-.26V11.68l1.28-1.28,2,4.46a.37.37,0,0,0,.6.11l.35-.35a.37.37,0,0,0,.11-.31L12.37,8.1l1.81-1.81a.65.65,0,0,0,.13-.19L14.81,5A.27.27,0,0,0,14.45,4.63Z"/><path class="cls-3" d="M9.6,19.2a9.6,9.6,0,1,1,9.6-9.6A9.61,9.61,0,0,1,9.6,19.2ZM9.6,2A7.65,7.65,0,1,0,17.25,9.6,7.66,7.66,0,0,0,9.6,2Z"/></svg>