<svg id="Layer_1" data-name="Layer 1" xmlns="http://www.w3.org/2000/svg" viewBox="0 0 512 512"><defs><style>.cls-1{fill:#f3f3f4;}.cls-2{fill:#57585a;}.cls-3{fill:#3d5f4c;}</style></defs><title>Icons-Vector</title><rect class="cls-1" x="10" y="10" width="492" height="492" rx="77.57" ry="77.57"/><path class="cls-2" d="M424.43,20A67.65,67.65,0,0,1,492,87.57V424.43A67.65,67.65,0,0,1,424.43,492H87.57A67.65,67.65,0,0,1,20,424.43V87.57A67.65,67.65,0,0,1,87.57,20H424.43m0-20H87.57A87.57,87.57,0,0,0,0,87.57V424.43A87.57,87.57,0,0,0,87.57,512H424.43A87.57,87.57,0,0,0,512,424.43V87.57A87.57,87.57,0,0,0,424.43,0h0Z"/><polygon class="cls-3" points="417.01 180.15 256 88.71 94.99 180.15 256 272.14 417.01 180.15"/><polygon class="cls-3" points="256 287.97 147.44 225.94 94.99 255.72 256 347.72 417.01 255.72 364.57 225.94 256 287.97"/><polygon class="cls-3" points="256 363.55 147.44 301.52 94.99 331.3 256 423.29 417.01 331.3 364.57 301.52 256 363.55"/></svg>