<?xml version="1.0" encoding="utf-8"?>
<!-- Generator: Adobe Illustrator 16.0.4, SVG Export Plug-In . SVG Version: 6.00 Build 0)  -->
<!DOCTYPE svg PUBLIC "-//W3C//DTD SVG 1.1//EN" "http://www.w3.org/Graphics/SVG/1.1/DTD/svg11.dtd">
<svg version="1.1" id="Layer_1" xmlns="http://www.w3.org/2000/svg" xmlns:xlink="http://www.w3.org/1999/xlink" x="0px" y="0px"
	 width="19.203px" height="19.201px" viewBox="0 0 19.203 19.201" enable-background="new 0 0 19.203 19.201" xml:space="preserve">
<g>
	<g>
		<path fill-rule="evenodd" clip-rule="evenodd" fill="#009588" d="M12.708,8.831c0-1.775-0.002-3.548,0-5.321
			c0.002-0.584,0.28-0.863,0.862-0.865c0.691-0.004,1.384-0.003,2.075,0.001c0.432,0.002,0.752,0.289,0.765,0.715
			c0.019,0.735,0.013,1.47,0.017,2.205c0.004,0.948,0.012,1.895,0.012,2.842c0,0.814-0.008,1.628-0.01,2.443
			c0,0.947,0.006,1.896,0.006,2.842c0,0.223,0.006,0.445-0.026,0.663c-0.011,0.069-0.127,0.173-0.195,0.174
			c-1.1,0.011-2.2,0.005-3.3,0.01c-0.223,0.001-0.207-0.134-0.207-0.282C12.707,12.448,12.707,10.639,12.708,8.831L12.708,8.831z"/>
		<path fill-rule="evenodd" clip-rule="evenodd" fill="#009588" d="M6.552,10.677c0,1.18-0.008,2.36,0.005,3.54
			c0.002,0.261-0.082,0.331-0.335,0.327c-1.038-0.011-2.076-0.008-3.114-0.002c-0.194,0.001-0.268-0.056-0.268-0.257
			c0.004-2.369-0.001-4.738,0.004-7.107c0-0.54,0.313-0.842,0.873-0.852c0.657-0.01,1.313-0.009,1.97,0.002
			c0.559,0.009,0.86,0.327,0.862,0.887c0.002,1.153,0,2.307,0,3.461H6.552z"/>
		<path fill-rule="evenodd" clip-rule="evenodd" fill="#009588" d="M7.753,12.409c0-0.603-0.004-1.206,0.001-1.81
			c0.004-0.5,0.318-0.81,0.818-0.813c0.701-0.006,1.402-0.006,2.103,0c0.437,0.002,0.774,0.313,0.778,0.742
			c0.009,1.26,0.003,2.521,0.008,3.78c0,0.173-0.066,0.231-0.236,0.23c-1.074-0.004-2.147-0.006-3.222,0.002
			c-0.205,0.002-0.255-0.08-0.253-0.268C7.758,13.652,7.753,13.031,7.753,12.409z"/>
		<path fill-rule="evenodd" clip-rule="evenodd" fill="#009588" d="M9.59,16.56c-2.653,0-5.306,0.001-7.958-0.001
			c-0.358,0-0.573-0.183-0.58-0.48c-0.008-0.276,0.196-0.496,0.503-0.507c0.505-0.018,1.01-0.021,1.516-0.021
			c1.4-0.002,2.801-0.002,4.201,0c1.17,0.002,2.34,0.014,3.511,0.014c1.312,0,2.624-0.013,3.937-0.013
			c0.958,0,1.913,0.007,2.871,0.017c0.345,0.004,0.565,0.213,0.562,0.504c-0.004,0.298-0.223,0.487-0.574,0.487
			C14.914,16.561,12.253,16.56,9.59,16.56z"/>
	</g>
</g>
</svg>
