<?xml version="1.0" encoding="utf-8"?>
<!-- Generator: Adobe Illustrator 16.0.4, SVG Export Plug-In . SVG Version: 6.00 Build 0)  -->
<!DOCTYPE svg PUBLIC "-//W3C//DTD SVG 1.1//EN" "http://www.w3.org/Graphics/SVG/1.1/DTD/svg11.dtd">
<svg version="1.1" id="Layer_1" xmlns="http://www.w3.org/2000/svg" xmlns:xlink="http://www.w3.org/1999/xlink" x="0px" y="0px"
	 width="32.003px" height="31.322px" viewBox="0 0 32.003 31.322" enable-background="new 0 0 32.003 31.322" xml:space="preserve">
<g>
	<g>
		<g>
			<path fill="#FFFFFF" d="M30.417,22.152l-5.518-2.392l-7.943,3.178c-0.285,0.115-0.62,0.17-0.955,0.17
				c-0.334,0-0.668-0.055-0.953-0.169l-7.945-3.178l-5.518,2.391c-0.252,0.108-0.248,0.279,0.006,0.381l13.951,5.581
				c0.254,0.102,0.666,0.102,0.92,0l13.951-5.581C30.666,22.432,30.669,22.26,30.417,22.152z"/>
			<path fill="#FFFFFF" d="M30.417,15.708l-5.519-2.392l-7.942,3.177c-0.285,0.115-0.62,0.172-0.955,0.172
				c-0.334,0-0.668-0.057-0.954-0.172l-7.944-3.177l-5.518,2.392c-0.252,0.107-0.248,0.278,0.006,0.381l13.951,5.58
				c0.254,0.102,0.666,0.102,0.92,0l13.951-5.58C30.666,15.987,30.669,15.816,30.417,15.708z"/>
			<path fill="#FFFFFF" d="M1.591,9.643l7.275,2.91l6.676,2.672c0.254,0.102,0.666,0.102,0.92,0l6.678-2.672l7.273-2.909
				c0.254-0.101,0.255-0.272,0.005-0.381l-13.962-6.05c-0.251-0.109-0.658-0.109-0.91,0L1.585,9.263
				C1.333,9.372,1.337,9.543,1.591,9.643z"/>
		</g>
	</g>
</g>
</svg>
