<?xml version="1.0" encoding="utf-8"?>
<!-- Generator: Adobe Illustrator 16.0.4, SVG Export Plug-In . SVG Version: 6.00 Build 0)  -->
<!DOCTYPE svg PUBLIC "-//W3C//DTD SVG 1.1//EN" "http://www.w3.org/Graphics/SVG/1.1/DTD/svg11.dtd">
<svg version="1.1" id="Layer_1" xmlns="http://www.w3.org/2000/svg" xmlns:xlink="http://www.w3.org/1999/xlink" x="0px" y="0px"
	 width="88px" height="83px" viewBox="0 0 88 83" enable-background="new 0 0 88 83" xml:space="preserve">
<g>
	<path fill="#FFFFFF" d="M9.664,66.167c-0.569,0-1.148-0.122-1.697-0.38c-2-0.938-2.86-3.321-1.921-5.32L21.379,27.8
		c0.554-1.18,1.648-2.016,2.932-2.24c1.285-0.225,2.597,0.191,3.518,1.112l25.795,25.795l21.328-33.769
		c1.179-1.869,3.648-2.428,5.518-1.246c1.868,1.18,2.426,3.65,1.246,5.518l-24,38c-0.649,1.028-1.73,1.705-2.938,1.84
		c-1.21,0.138-2.412-0.287-3.271-1.147L26.201,36.357L13.288,63.866C12.606,65.316,11.167,66.167,9.664,66.167z"/>
</g>
</svg>
