<?xml version="1.0" encoding="utf-8"?>
<!-- Generator: Adobe Illustrator 16.0.4, SVG Export Plug-In . SVG Version: 6.00 Build 0)  -->
<!DOCTYPE svg PUBLIC "-//W3C//DTD SVG 1.1//EN" "http://www.w3.org/Graphics/SVG/1.1/DTD/svg11.dtd">
<svg version="1.1" id="Layer_1" xmlns="http://www.w3.org/2000/svg" xmlns:xlink="http://www.w3.org/1999/xlink" x="0px" y="0px"
	 width="32.003px" height="31.322px" viewBox="0 0 32.003 31.322" enable-background="new 0 0 32.003 31.322" xml:space="preserve">
<g>
	<path fill="#FFFFFF" d="M15.348,22.15c0.003,0.002,0.006,0.006,0.009,0.008c0.189,0.168,0.367,0.322,0.525,0.459
		c2.39-2.041,8.402-7.739,8.402-13.366c0-4.603-3.742-8.405-8.345-8.478c-0.02,0-0.038-0.001-0.058-0.002
		c-0.019,0.001-0.036,0.002-0.057,0.002C11.225,0.845,7.481,4.648,7.481,9.25C7.481,14.496,12.704,19.8,15.348,22.15z M11.566,8.4
		c0-2.428,1.968-4.396,4.396-4.396c2.428,0,4.396,1.969,4.396,4.396s-1.968,4.396-4.396,4.396
		C13.534,12.796,11.566,10.828,11.566,8.4z"/>
	<path fill="#FFFFFF" d="M20.188,22.488c-0.632,0.636-1.229,1.195-1.753,1.664c3.653,0.371,5.812,1.516,5.812,2.193
		c0,0.816-3.131,2.317-8.246,2.317c-5.116,0-8.246-1.501-8.246-2.317c0-0.664,2.072-1.78,5.597-2.174
		c-0.52-0.463-1.111-1.018-1.737-1.647c-3.237,0.597-5.748,1.886-5.748,3.822c0,2.761,5.099,4.205,10.135,4.205
		c5.037,0,10.136-1.444,10.136-4.205C26.137,24.369,23.521,23.068,20.188,22.488z"/>
</g>
</svg>
