<?xml version="1.0" encoding="utf-8"?>
<!-- Generator: Adobe Illustrator 16.0.4, SVG Export Plug-In . SVG Version: 6.00 Build 0)  -->
<!DOCTYPE svg PUBLIC "-//W3C//DTD SVG 1.1//EN" "http://www.w3.org/Graphics/SVG/1.1/DTD/svg11.dtd">
<svg version="1.1" id="Layer_1" xmlns="http://www.w3.org/2000/svg" xmlns:xlink="http://www.w3.org/1999/xlink" x="0px" y="0px"
	 width="179.819px" height="36.222px" viewBox="0 0 179.819 36.222" enable-background="new 0 0 179.819 36.222"
	 xml:space="preserve">
<g>
	<g>
		<g>
			<polygon fill="#D1D3D4" points="175.449,15.881 172.017,13.283 172.017,3.677 165.662,3.677 165.662,7.758 155.619,0.88 
				134.646,16.389 155.492,2.533 166.679,9.93 166.679,9.148 166.679,9.064 166.679,9.143 166.679,4.82 171.255,4.693 
				171.255,12.707 171.255,13.074 171.255,13.244 171.255,13.77 			"/>
			<circle fill="#D1D3D4" cx="167.361" cy="19.007" r="2.064"/>
			<g>
				<path fill="#D1D3D4" d="M169.191,23.816c2.793-1.525,5.496-1.58,5.496-1.58c-1.145-1.018-7.891-0.238-8.572-0.232
					c-0.355-0.58-4.062-6.23-5.1-6.701c0,0,4.248,8.43-2.727,15.068l2.961,0.332l-0.002,0.002l0.045,0.023l0.043,0.025v-0.002
					l2.121,1.109c0.818-4.039,2.994-6.383,5.213-7.744c-0.197-0.844-0.467-1.379-0.467-1.379
					C168.4,22.828,168.779,23.271,169.191,23.816z"/>
				<circle fill="#D1D3D4" cx="171.625" cy="24.501" r="1.311"/>
				<path fill="#D1D3D4" d="M170.869,26.238c-0.119-0.193-0.951-1.463-1.678-2.422c-0.174,0.096-0.348,0.195-0.521,0.301
					c0.367,1.578,0.482,4.232-1.891,6.492l1.547,0.174l0,0l0.021,0.012l0.023,0.014l0,0l1.107,0.578
					c1-4.928,5.867-5.027,5.867-5.027C174.748,25.828,171.222,26.236,170.869,26.238z"/>
				<path fill="#D1D3D4" d="M168.203,22.738c0,0,0.27,0.535,0.467,1.379c0.174-0.105,0.348-0.205,0.521-0.301
					C168.779,23.271,168.4,22.828,168.203,22.738z"/>
				<circle fill="#D1D3D4" cx="143.565" cy="18.753" r="2.065"/>
				<path fill="#D1D3D4" d="M150.119,15.176c-1.037,0.471-4.742,6.121-5.102,6.701c-0.68-0.006-7.426-0.785-8.57,0.232
					c0,0,2.703,0.055,5.496,1.58c0.412-0.545,0.791-0.988,0.986-1.078c0,0-0.268,0.535-0.465,1.379
					c2.221,1.361,4.393,3.705,5.211,7.744l2.121-1.111l0.002,0.004l0.043-0.025l0.045-0.023l-0.002-0.002l2.961-0.332
					C145.871,23.605,150.119,15.176,150.119,15.176z"/>
				<circle fill="#D1D3D4" cx="139.507" cy="24.374" r="1.311"/>
				<path fill="#D1D3D4" d="M140.267,26.111c-0.357-0.002-3.879-0.41-4.479,0.121c0,0,4.867,0.098,5.867,5.027l1.107-0.58v0.002
					l0.023-0.014l0.021-0.012l0,0l1.547-0.174c-2.373-2.26-2.26-4.914-1.891-6.492c-0.174-0.105-0.35-0.207-0.521-0.301
					C141.216,24.648,140.384,25.918,140.267,26.111z"/>
				<path fill="#D1D3D4" d="M141.943,23.689c0.172,0.094,0.348,0.195,0.521,0.301c0.197-0.844,0.465-1.379,0.465-1.379
					C142.734,22.701,142.355,23.145,141.943,23.689z"/>
			</g>
			<g>
				<circle fill="#D1D3D4" cx="155.301" cy="11.494" r="3.368"/>
				<path fill="#D1D3D4" d="M165.535,12.422c-1.523-0.119-9.311,4.242-10.105,4.691c-0.797-0.449-8.582-4.811-10.105-4.691
					c0,0,10.707,5.67,6.826,18l3.213,0.072v0.004l0.066-0.002l0.066,0.002v-0.004l3.213-0.072
					C154.826,18.092,165.535,12.422,165.535,12.422z"/>
				<polygon fill="#D1D3D4" points="155.365,17.223 155.984,18.789 157.595,18.297 156.755,19.758 158.146,20.709 156.48,20.965 
					156.603,22.645 155.365,21.5 154.126,22.645 154.25,20.965 152.583,20.709 153.974,19.758 153.136,18.297 154.748,18.789 				
					"/>
			</g>
			<g>
				<path fill="#D1D3D4" d="M150.158,32.652l-0.295-0.213c0.32-0.477,0.654-0.756,1.277-0.756c0.643,0,1.1,0.426,1.1,1.008
					c0,0.523-0.273,0.842-0.898,1.383l-0.945,0.842h1.879v0.363h-2.477v-0.309l1.285-1.133c0.543-0.486,0.74-0.762,0.74-1.115
					c0-0.416-0.328-0.68-0.713-0.68C150.705,32.043,150.441,32.256,150.158,32.652z"/>
				<path fill="#D1D3D4" d="M154.396,35.342c-0.916,0-1.492-0.832-1.492-1.83c0-0.996,0.586-1.838,1.504-1.838
					c0.912,0,1.488,0.83,1.488,1.828S155.308,35.342,154.396,35.342z M154.396,32.039c-0.664,0-1.078,0.678-1.078,1.463
					s0.426,1.475,1.09,1.475c0.662,0,1.072-0.684,1.072-1.465C155.48,32.732,155.06,32.039,154.396,32.039z"/>
				<path fill="#D1D3D4" d="M157.193,31.709h0.293v3.57h-0.395v-3.154l-0.668,0.207l-0.096-0.324L157.193,31.709z"/>
				<path fill="#D1D3D4" d="M158.601,31.734h2.041v0.371h-1.691l-0.076,1.135c0.207-0.092,0.406-0.158,0.699-0.158
					c0.688,0,1.227,0.41,1.227,1.09c0,0.697-0.527,1.17-1.268,1.17c-0.506,0-0.947-0.244-1.266-0.562l0.264-0.289
					c0.309,0.299,0.648,0.486,1.008,0.486c0.506,0,0.855-0.334,0.855-0.791c0-0.445-0.359-0.748-0.881-0.748
					c-0.299,0-0.537,0.09-0.744,0.201l-0.268-0.176L158.601,31.734z"/>
			</g>
		</g>
	</g>
	<g>
		<g>
			<path fill="#D1D3D4" d="M11,19.045c-0.123,0-0.234-0.012-0.336-0.039s-0.191-0.061-0.27-0.104
				c-0.082-0.043-0.146-0.092-0.203-0.145c-0.053-0.053-0.094-0.107-0.119-0.164v0.119c0,0.455-0.064,0.846-0.191,1.17
				c-0.125,0.324-0.311,0.59-0.551,0.797c-0.242,0.209-0.539,0.361-0.893,0.459c-0.352,0.098-0.754,0.146-1.207,0.146
				c-0.947,0-1.658-0.201-2.135-0.6c-0.48-0.4-0.719-1.031-0.719-1.887v-1.6h0.883v1.422c0,0.332,0.041,0.615,0.123,0.846
				c0.082,0.229,0.205,0.416,0.369,0.557c0.164,0.145,0.373,0.244,0.621,0.309c0.25,0.061,0.541,0.094,0.877,0.094
				c0.348,0,0.645-0.027,0.891-0.076c0.248-0.049,0.449-0.137,0.604-0.268c0.156-0.129,0.268-0.305,0.338-0.529
				c0.072-0.225,0.107-0.508,0.107-0.852V15.57h0.883v1.475c0,0.172,0.012,0.33,0.035,0.473c0.027,0.141,0.072,0.26,0.143,0.357
				c0.066,0.1,0.16,0.176,0.279,0.229c0.121,0.055,0.277,0.082,0.471,0.082c0.141,0,0.246,0.033,0.311,0.098
				c0.064,0.068,0.098,0.172,0.098,0.318c0,0.172-0.031,0.289-0.096,0.352C11.25,19.016,11.144,19.045,11,19.045z M6.763,15.342
				c0-0.072,0.016-0.143,0.043-0.209c0.029-0.064,0.068-0.125,0.121-0.174c0.049-0.051,0.107-0.092,0.172-0.119
				c0.066-0.029,0.139-0.043,0.215-0.043s0.146,0.014,0.211,0.043c0.066,0.027,0.125,0.068,0.176,0.119
				c0.051,0.049,0.09,0.109,0.119,0.174c0.029,0.066,0.043,0.137,0.043,0.209c0,0.078-0.014,0.15-0.043,0.217
				c-0.029,0.064-0.068,0.125-0.119,0.174c-0.051,0.051-0.109,0.092-0.176,0.121c-0.064,0.029-0.135,0.043-0.211,0.043
				s-0.148-0.014-0.215-0.043c-0.064-0.029-0.123-0.07-0.172-0.121c-0.053-0.049-0.092-0.109-0.121-0.174
				C6.779,15.492,6.763,15.42,6.763,15.342z"/>
			<path fill="#D1D3D4" d="M11,19.045c-0.143,0-0.248-0.031-0.316-0.096c-0.066-0.068-0.1-0.172-0.1-0.318
				c0-0.172,0.033-0.289,0.098-0.352c0.066-0.062,0.172-0.094,0.318-0.094h2.475c0.131,0,0.248-0.012,0.357-0.031
				c0.111-0.02,0.205-0.055,0.285-0.105c0.078-0.051,0.141-0.117,0.188-0.201c0.045-0.082,0.068-0.188,0.068-0.316
				c0-0.201-0.072-0.416-0.219-0.645c-0.145-0.225-0.34-0.445-0.584-0.662c-0.246-0.217-0.527-0.422-0.846-0.615
				c-0.32-0.193-0.654-0.361-1.002-0.498v-0.912l3.367-2.189v1.014l-2.453,1.51c0.473,0.223,0.875,0.461,1.201,0.717
				c0.326,0.254,0.588,0.514,0.787,0.777c0.201,0.264,0.344,0.527,0.432,0.793s0.133,0.52,0.133,0.762
				c0,0.15-0.021,0.309-0.064,0.479c-0.043,0.172-0.123,0.33-0.24,0.477c-0.119,0.146-0.281,0.27-0.49,0.365
				c-0.213,0.096-0.482,0.143-0.812,0.143H11z"/>
			<path fill="#D1D3D4" d="M18.505,18.602c0,0.172-0.031,0.289-0.096,0.352s-0.17,0.092-0.318,0.092h-0.152
				c-0.219,0-0.42-0.021-0.604-0.066c-0.182-0.045-0.338-0.125-0.469-0.236c-0.129-0.111-0.23-0.26-0.305-0.443
				c-0.072-0.184-0.107-0.412-0.107-0.686v-5.807h0.881v5.578c0,0.146,0.01,0.268,0.029,0.369c0.018,0.102,0.055,0.186,0.105,0.25
				c0.055,0.062,0.131,0.109,0.227,0.139c0.098,0.027,0.225,0.043,0.379,0.043h0.02c0.143,0,0.246,0.033,0.311,0.098
				C18.474,18.352,18.505,18.455,18.505,18.602z"/>
			<path fill="#D1D3D4" d="M21.626,19.045c-0.236,0-0.439-0.016-0.605-0.049c-0.168-0.035-0.309-0.082-0.424-0.139
				c-0.113-0.061-0.209-0.129-0.281-0.205c-0.072-0.08-0.135-0.16-0.184-0.25c-0.084,0.143-0.174,0.256-0.27,0.342
				s-0.213,0.152-0.354,0.195c-0.143,0.045-0.316,0.072-0.521,0.088c-0.207,0.012-0.463,0.018-0.768,0.018h-0.129
				c-0.143,0-0.246-0.031-0.316-0.096c-0.066-0.068-0.1-0.172-0.1-0.318c0-0.172,0.031-0.289,0.098-0.352s0.172-0.094,0.318-0.094
				h0.15c0.23,0,0.422-0.008,0.574-0.021c0.154-0.012,0.277-0.045,0.369-0.096c0.09-0.049,0.154-0.127,0.191-0.227
				c0.037-0.104,0.057-0.24,0.057-0.412v-1.869h0.881v1.484c0,0.172,0.012,0.33,0.033,0.473c0.021,0.141,0.07,0.26,0.143,0.357
				c0.076,0.1,0.184,0.176,0.322,0.229c0.141,0.055,0.332,0.082,0.57,0.082c0.148,0,0.277-0.008,0.387-0.021
				c0.113-0.012,0.201-0.045,0.277-0.096c0.076-0.049,0.129-0.127,0.164-0.227c0.037-0.104,0.055-0.24,0.055-0.412V15.57h0.881
				v1.475c0,0.172,0.012,0.33,0.039,0.473c0.025,0.141,0.07,0.26,0.137,0.357c0.064,0.1,0.156,0.176,0.271,0.229
				c0.119,0.055,0.266,0.082,0.449,0.082c0.123,0,0.238-0.008,0.344-0.021c0.104-0.012,0.191-0.045,0.268-0.096
				c0.07-0.049,0.127-0.127,0.168-0.227c0.043-0.104,0.061-0.24,0.061-0.412v-2.375h0.891v1.99c0,0.172,0.016,0.33,0.045,0.473
				c0.029,0.141,0.078,0.26,0.148,0.357c0.068,0.1,0.162,0.176,0.283,0.229c0.117,0.055,0.27,0.082,0.451,0.082
				c0.145,0,0.248,0.033,0.316,0.098c0.066,0.068,0.1,0.172,0.1,0.318c0,0.172-0.031,0.289-0.098,0.352s-0.172,0.092-0.318,0.092
				c-0.111,0-0.221-0.014-0.33-0.043c-0.109-0.027-0.213-0.068-0.307-0.121s-0.178-0.113-0.25-0.184
				c-0.074-0.072-0.131-0.148-0.172-0.234c-0.066,0.125-0.154,0.227-0.26,0.303c-0.107,0.076-0.219,0.135-0.342,0.176
				c-0.121,0.043-0.246,0.07-0.377,0.086c-0.129,0.012-0.254,0.018-0.369,0.018c-0.197,0-0.371-0.016-0.52-0.047
				c-0.15-0.031-0.275-0.074-0.383-0.129c-0.107-0.053-0.195-0.119-0.264-0.193c-0.068-0.072-0.123-0.152-0.164-0.236
				c-0.076,0.133-0.164,0.242-0.262,0.322c-0.104,0.082-0.213,0.143-0.328,0.188c-0.117,0.041-0.238,0.066-0.369,0.08
				C21.878,19.039,21.751,19.045,21.626,19.045z"/>
			<path fill="#D1D3D4" d="M31.509,18.348c-0.146,0.262-0.348,0.469-0.611,0.615s-0.594,0.219-0.99,0.219
				c-0.139,0-0.279-0.01-0.424-0.031c-0.145-0.023-0.297-0.062-0.453-0.117c-0.158-0.055-0.322-0.131-0.496-0.225
				c-0.17-0.096-0.354-0.215-0.545-0.355c-0.092,0.139-0.182,0.248-0.27,0.326c-0.088,0.08-0.18,0.141-0.273,0.178
				c-0.092,0.039-0.189,0.064-0.291,0.072c-0.104,0.014-0.219,0.016-0.342,0.016h-0.113c-0.141,0-0.244-0.031-0.312-0.096
				c-0.068-0.068-0.102-0.172-0.102-0.318c0-0.172,0.033-0.289,0.1-0.352s0.17-0.094,0.314-0.094h0.092
				c0.082,0,0.164-0.012,0.248-0.031c0.08-0.02,0.162-0.062,0.246-0.131c0.08-0.062,0.158-0.158,0.232-0.283
				c0.072-0.121,0.141-0.289,0.201-0.498c0.121-0.422,0.27-0.766,0.443-1.035s0.361-0.48,0.559-0.637
				c0.199-0.154,0.402-0.262,0.611-0.32c0.207-0.055,0.406-0.084,0.596-0.084c0.27,0,0.52,0.047,0.746,0.141
				c0.223,0.092,0.42,0.225,0.584,0.396c0.162,0.172,0.289,0.379,0.381,0.617c0.092,0.24,0.139,0.506,0.139,0.803
				c0,0.066-0.002,0.131-0.008,0.195c-0.002,0.066-0.006,0.131-0.012,0.193c0.066,0.221,0.162,0.389,0.289,0.5
				c0.127,0.117,0.27,0.174,0.434,0.174c0.141,0,0.246,0.033,0.311,0.098c0.066,0.068,0.1,0.172,0.1,0.318
				c0,0.172-0.033,0.289-0.096,0.352c-0.064,0.062-0.17,0.092-0.314,0.092c-0.189,0-0.369-0.053-0.539-0.162
				C31.771,18.777,31.626,18.598,31.509,18.348z M30.89,17.213c0-0.18-0.02-0.342-0.064-0.49c-0.045-0.146-0.107-0.271-0.195-0.377
				c-0.086-0.105-0.191-0.184-0.32-0.242c-0.125-0.057-0.27-0.088-0.432-0.088s-0.318,0.033-0.463,0.102
				c-0.148,0.062-0.283,0.166-0.408,0.307s-0.24,0.32-0.34,0.535c-0.102,0.219-0.189,0.477-0.262,0.779
				c0.23,0.184,0.473,0.322,0.729,0.42c0.252,0.094,0.494,0.145,0.73,0.145c0.318,0,0.57-0.086,0.752-0.254
				C30.8,17.879,30.89,17.602,30.89,17.213z"/>
			<path fill="#D1D3D4" d="M32.482,19.045c-0.143,0-0.248-0.031-0.314-0.096c-0.066-0.068-0.1-0.172-0.1-0.318
				c0-0.172,0.031-0.289,0.098-0.352s0.172-0.094,0.316-0.094h1.271v-6.379h0.883v7.238H32.482z"/>
			<path fill="#D1D3D4" d="M36.935,11.807v7.238h-0.881v-7.238H36.935z"/>
			<path fill="#D1D3D4" d="M42.263,18.746c0,0.498-0.059,0.908-0.186,1.234c-0.123,0.326-0.307,0.586-0.557,0.781
				c-0.246,0.195-0.557,0.328-0.932,0.408c-0.377,0.076-0.816,0.115-1.32,0.115h-0.436v-0.859h0.32c0.408,0,0.754-0.021,1.041-0.061
				c0.285-0.039,0.516-0.109,0.693-0.213c0.18-0.102,0.307-0.242,0.387-0.42c0.078-0.182,0.117-0.41,0.117-0.688v-0.299
				c-0.125,0.072-0.287,0.141-0.488,0.205s-0.449,0.094-0.742,0.094c-0.268,0-0.518-0.033-0.75-0.105
				c-0.23-0.07-0.436-0.184-0.607-0.338c-0.174-0.156-0.307-0.354-0.406-0.598c-0.098-0.244-0.146-0.537-0.146-0.881
				c0-0.277,0.045-0.549,0.135-0.818c0.09-0.266,0.221-0.502,0.396-0.707c0.172-0.207,0.387-0.373,0.643-0.498
				c0.254-0.129,0.547-0.191,0.877-0.191c0.371,0,0.68,0.066,0.93,0.199c0.248,0.135,0.451,0.32,0.604,0.557
				c0.154,0.24,0.264,0.523,0.328,0.855c0.066,0.33,0.1,0.693,0.1,1.088V18.746z M39.083,17.025c0,0.199,0.027,0.373,0.084,0.521
				c0.059,0.148,0.137,0.271,0.24,0.369c0.102,0.1,0.223,0.172,0.365,0.225c0.141,0.051,0.297,0.076,0.469,0.076
				c0.262,0,0.49-0.035,0.691-0.104c0.203-0.07,0.354-0.146,0.459-0.227V17.41c0-0.24-0.018-0.461-0.059-0.666
				c-0.039-0.205-0.102-0.381-0.191-0.531s-0.207-0.27-0.35-0.355s-0.32-0.127-0.529-0.127c-0.213,0-0.396,0.039-0.545,0.119
				s-0.271,0.184-0.365,0.312c-0.092,0.127-0.16,0.266-0.205,0.42C39.103,16.734,39.083,16.883,39.083,17.025z"/>
			<path fill="#D1D3D4" d="M46.023,16.215h0.881v1.418c0,0.334,0.041,0.617,0.125,0.848c0.082,0.232,0.205,0.418,0.369,0.562
				c0.164,0.139,0.371,0.244,0.621,0.305c0.25,0.062,0.541,0.094,0.877,0.094c0.348,0,0.645-0.025,0.889-0.076
				c0.25-0.051,0.449-0.141,0.605-0.268c0.154-0.129,0.27-0.305,0.338-0.527c0.07-0.223,0.107-0.506,0.107-0.85v-2.666h0.881v2.674
				c0,0.48-0.062,0.885-0.191,1.211c-0.125,0.328-0.309,0.594-0.551,0.797c-0.24,0.203-0.539,0.348-0.889,0.434
				c-0.355,0.088-0.758,0.133-1.209,0.133c-0.947,0-1.66-0.215-2.139-0.645c-0.477-0.434-0.715-1.049-0.715-1.848V16.215z
				 M48.357,14.668c0-0.072,0.016-0.143,0.045-0.207c0.027-0.066,0.066-0.125,0.119-0.176c0.051-0.051,0.109-0.09,0.174-0.119
				c0.066-0.029,0.137-0.043,0.215-0.043c0.074,0,0.145,0.014,0.211,0.043s0.123,0.068,0.174,0.119s0.092,0.109,0.119,0.176
				c0.029,0.064,0.043,0.135,0.043,0.207c0,0.08-0.014,0.15-0.043,0.217c-0.027,0.066-0.068,0.123-0.119,0.174
				c-0.051,0.053-0.107,0.092-0.174,0.121c-0.066,0.027-0.137,0.043-0.211,0.043c-0.078,0-0.148-0.016-0.215-0.043
				c-0.064-0.029-0.123-0.068-0.174-0.121c-0.053-0.051-0.092-0.107-0.119-0.174C48.373,14.818,48.357,14.748,48.357,14.668z"/>
			<path fill="#D1D3D4" d="M55.187,18.602c0,0.172-0.033,0.289-0.096,0.352c-0.064,0.062-0.172,0.092-0.32,0.092h-0.15
				c-0.221,0-0.422-0.021-0.605-0.066c-0.18-0.045-0.338-0.125-0.467-0.236s-0.23-0.26-0.305-0.443s-0.111-0.412-0.111-0.686v-5.807
				h0.883v5.578c0,0.146,0.01,0.268,0.029,0.369c0.018,0.102,0.055,0.186,0.109,0.25c0.053,0.062,0.127,0.109,0.225,0.139
				c0.096,0.027,0.221,0.043,0.379,0.043h0.02c0.141,0,0.246,0.033,0.311,0.098C55.154,18.352,55.187,18.455,55.187,18.602z"/>
			<path fill="#D1D3D4" d="M58.941,17.055c0.066,0.193,0.133,0.359,0.199,0.504c0.066,0.139,0.139,0.258,0.217,0.35
				c0.078,0.094,0.164,0.162,0.264,0.207c0.098,0.047,0.211,0.07,0.342,0.07c0.145,0,0.248,0.033,0.314,0.098
				c0.068,0.068,0.102,0.172,0.102,0.318c0,0.172-0.031,0.289-0.096,0.352s-0.17,0.092-0.32,0.092c-0.277,0-0.512-0.059-0.689-0.182
				c-0.182-0.121-0.338-0.32-0.475-0.598c-0.072,0.162-0.16,0.295-0.268,0.396c-0.109,0.1-0.227,0.18-0.359,0.236
				c-0.133,0.059-0.273,0.098-0.418,0.117c-0.148,0.021-0.293,0.029-0.439,0.029h-2.543c-0.143,0-0.246-0.031-0.314-0.096
				c-0.066-0.068-0.102-0.172-0.102-0.318c0-0.172,0.033-0.289,0.1-0.352s0.172-0.094,0.316-0.094h2.477
				c0.318,0,0.547-0.059,0.688-0.178c0.141-0.113,0.211-0.273,0.211-0.477c0-0.201-0.074-0.416-0.219-0.645
				c-0.145-0.225-0.34-0.445-0.586-0.662s-0.527-0.422-0.844-0.615c-0.322-0.193-0.654-0.361-1.002-0.498v-0.912l3.369-2.189v1.014
				l-2.459,1.51c0.369,0.176,0.697,0.367,0.982,0.578c0.285,0.209,0.531,0.424,0.74,0.648c0.207,0.223,0.375,0.445,0.51,0.664
				C58.773,16.646,58.873,16.857,58.941,17.055z"/>
			<path fill="#D1D3D4" d="M63.5,19.045c-0.236,0-0.439-0.016-0.605-0.049c-0.168-0.035-0.307-0.082-0.422-0.139
				c-0.115-0.061-0.209-0.129-0.283-0.205c-0.072-0.08-0.135-0.16-0.184-0.25c-0.084,0.143-0.174,0.256-0.268,0.342
				c-0.096,0.086-0.215,0.152-0.355,0.195c-0.143,0.045-0.316,0.072-0.521,0.088c-0.207,0.012-0.463,0.018-0.766,0.018h-0.133
				c-0.141,0-0.244-0.031-0.312-0.096c-0.068-0.068-0.102-0.172-0.102-0.318c0-0.172,0.033-0.289,0.1-0.352
				c0.064-0.062,0.17-0.094,0.314-0.094h0.152c0.23,0,0.422-0.008,0.574-0.021c0.156-0.012,0.277-0.045,0.369-0.096
				c0.09-0.049,0.154-0.127,0.193-0.227c0.035-0.104,0.053-0.24,0.053-0.412v-1.869h0.883v1.484c0,0.172,0.012,0.33,0.031,0.473
				c0.025,0.141,0.072,0.26,0.146,0.357c0.074,0.1,0.182,0.176,0.324,0.229c0.135,0.055,0.328,0.082,0.566,0.082
				c0.148,0,0.279-0.008,0.389-0.021c0.107-0.012,0.201-0.045,0.277-0.096c0.072-0.049,0.129-0.127,0.162-0.227
				c0.037-0.104,0.055-0.24,0.055-0.412V15.57h0.881v1.475c0,0.172,0.012,0.33,0.039,0.473c0.023,0.141,0.07,0.26,0.137,0.357
				c0.066,0.1,0.156,0.176,0.271,0.229c0.117,0.055,0.268,0.082,0.451,0.082c0.123,0,0.24-0.008,0.344-0.021
				c0.105-0.012,0.193-0.045,0.268-0.096c0.07-0.049,0.127-0.127,0.168-0.227c0.041-0.104,0.062-0.24,0.062-0.412v-2.375h0.889v1.99
				c0,0.172,0.016,0.33,0.045,0.473c0.029,0.141,0.078,0.26,0.146,0.357c0.068,0.1,0.164,0.176,0.283,0.229
				c0.119,0.055,0.271,0.082,0.453,0.082c0.143,0,0.248,0.033,0.316,0.098c0.066,0.068,0.1,0.172,0.1,0.318
				c0,0.172-0.033,0.289-0.1,0.352c-0.064,0.062-0.17,0.092-0.316,0.092c-0.111,0-0.223-0.014-0.33-0.043
				c-0.111-0.027-0.211-0.068-0.309-0.121c-0.094-0.053-0.178-0.113-0.25-0.184c-0.072-0.072-0.129-0.148-0.168-0.234
				c-0.07,0.125-0.156,0.227-0.264,0.303c-0.105,0.076-0.221,0.135-0.34,0.176c-0.123,0.043-0.248,0.07-0.379,0.086
				c-0.129,0.012-0.252,0.018-0.365,0.018c-0.201,0-0.375-0.016-0.523-0.047s-0.275-0.074-0.383-0.129
				c-0.107-0.053-0.195-0.119-0.264-0.193c-0.068-0.072-0.125-0.152-0.166-0.236c-0.072,0.133-0.16,0.242-0.264,0.322
				c-0.1,0.082-0.207,0.143-0.324,0.188c-0.119,0.041-0.24,0.066-0.369,0.08C63.75,19.039,63.625,19.045,63.5,19.045z"/>
			<path fill="#D1D3D4" d="M68.576,19.045c-0.141,0-0.246-0.031-0.314-0.096c-0.066-0.068-0.102-0.172-0.102-0.318
				c0-0.172,0.035-0.289,0.102-0.352c0.062-0.062,0.17-0.094,0.314-0.094h0.508c0.125,0,0.24-0.008,0.344-0.021
				c0.105-0.012,0.193-0.045,0.268-0.096c0.072-0.049,0.129-0.127,0.168-0.227c0.041-0.104,0.061-0.24,0.061-0.412v-5.623h0.893
				v5.238c0,0.172,0.014,0.33,0.043,0.473c0.029,0.141,0.078,0.26,0.148,0.357c0.07,0.1,0.166,0.176,0.287,0.229
				c0.119,0.055,0.271,0.082,0.453,0.082c0.141,0,0.246,0.033,0.314,0.098c0.066,0.068,0.102,0.172,0.102,0.318
				c0,0.172-0.033,0.289-0.1,0.352s-0.172,0.092-0.316,0.092c-0.111,0-0.223-0.014-0.334-0.043
				c-0.111-0.027-0.215-0.068-0.309-0.121c-0.096-0.053-0.18-0.113-0.252-0.184c-0.072-0.072-0.129-0.148-0.17-0.234
				c-0.066,0.125-0.154,0.227-0.26,0.303c-0.107,0.076-0.221,0.135-0.344,0.176c-0.119,0.043-0.246,0.07-0.379,0.086
				c-0.127,0.012-0.25,0.018-0.363,0.018H68.576z"/>
			<path fill="#D1D3D4" d="M71.748,19.045c-0.143,0-0.248-0.031-0.314-0.096c-0.066-0.068-0.102-0.172-0.102-0.318
				c0-0.172,0.035-0.289,0.102-0.352c0.064-0.062,0.168-0.094,0.314-0.094h1.271v-6.379H73.9v7.238H71.748z"/>
			<path fill="#D1D3D4" d="M79.054,17.637c0.072-0.34,0.164-0.639,0.271-0.893c0.107-0.256,0.227-0.475,0.357-0.658
				c0.129-0.186,0.268-0.336,0.416-0.455c0.146-0.117,0.293-0.211,0.439-0.279c0.148-0.07,0.293-0.117,0.436-0.145
				c0.145-0.025,0.277-0.041,0.402-0.041c0.27,0,0.52,0.047,0.746,0.141c0.227,0.092,0.42,0.225,0.584,0.396
				c0.166,0.172,0.293,0.379,0.385,0.617c0.088,0.24,0.135,0.506,0.135,0.803c0,0.311-0.037,0.59-0.111,0.848
				c-0.074,0.256-0.189,0.471-0.344,0.65c-0.156,0.18-0.35,0.316-0.586,0.416c-0.234,0.098-0.512,0.145-0.828,0.145
				c-0.139,0-0.281-0.01-0.426-0.031c-0.145-0.023-0.297-0.062-0.453-0.117s-0.32-0.131-0.494-0.225
				c-0.172-0.096-0.355-0.215-0.547-0.355c-0.172,0.049-0.311,0.107-0.416,0.178c-0.109,0.07-0.189,0.168-0.252,0.289
				c-0.062,0.123-0.102,0.273-0.123,0.457c-0.02,0.182-0.027,0.402-0.027,0.668v1.24h-0.875v-1.262c0-0.35,0.02-0.652,0.059-0.904
				c0.035-0.25,0.102-0.469,0.199-0.652c0.094-0.186,0.229-0.342,0.398-0.471C78.568,17.865,78.785,17.746,79.054,17.637z
				 M82.341,17.213c0-0.18-0.023-0.342-0.066-0.49c-0.047-0.146-0.109-0.271-0.197-0.377c-0.084-0.105-0.191-0.184-0.316-0.242
				c-0.127-0.057-0.273-0.088-0.434-0.088c-0.162,0-0.318,0.033-0.463,0.102c-0.148,0.062-0.285,0.166-0.41,0.307
				c-0.123,0.141-0.236,0.32-0.34,0.535c-0.102,0.219-0.188,0.477-0.262,0.779c0.232,0.184,0.477,0.322,0.729,0.42
				c0.254,0.094,0.498,0.145,0.73,0.145c0.32,0,0.57-0.086,0.754-0.254C82.25,17.879,82.341,17.602,82.341,17.213z"/>
			<path fill="#D1D3D4" d="M86.544,18.602c0,0.172-0.031,0.289-0.098,0.352c-0.064,0.062-0.17,0.092-0.318,0.092h-0.152
				c-0.219,0-0.42-0.021-0.604-0.066c-0.182-0.045-0.338-0.125-0.469-0.236c-0.129-0.111-0.23-0.26-0.303-0.443
				s-0.109-0.412-0.109-0.686v-5.807h0.881v5.578c0,0.146,0.01,0.268,0.029,0.369c0.018,0.102,0.055,0.186,0.109,0.25
				c0.053,0.062,0.129,0.109,0.223,0.139c0.098,0.027,0.223,0.043,0.379,0.043h0.02c0.145,0,0.246,0.033,0.311,0.098
				C86.509,18.352,86.544,18.455,86.544,18.602z"/>
			<path fill="#D1D3D4" d="M86.128,19.045c-0.143,0-0.246-0.031-0.314-0.096c-0.066-0.068-0.102-0.172-0.102-0.318
				c0-0.172,0.035-0.289,0.1-0.352c0.066-0.062,0.172-0.094,0.316-0.094h0.562c0.262,0,0.523-0.018,0.779-0.053
				c0.258-0.035,0.504-0.092,0.734-0.166l-1.332-1.473c0.021-0.074,0.047-0.154,0.078-0.24c0.031-0.082,0.068-0.164,0.104-0.244
				c0.039-0.08,0.076-0.152,0.115-0.219c0.037-0.064,0.078-0.119,0.121-0.16c0.217-0.219,0.49-0.395,0.818-0.527
				c0.328-0.129,0.676-0.195,1.043-0.195c0.305,0,0.572,0.037,0.803,0.111s0.42,0.172,0.57,0.291
				c0.154,0.121,0.268,0.256,0.344,0.408c0.074,0.156,0.113,0.314,0.113,0.477c0,0.189-0.029,0.373-0.092,0.551
				c-0.059,0.18-0.145,0.352-0.256,0.516c-0.109,0.162-0.238,0.318-0.391,0.467c-0.152,0.15-0.32,0.289-0.502,0.416
				c0.074,0.018,0.154,0.027,0.242,0.033c0.088,0.004,0.18,0.008,0.277,0.008h1.318c0.143,0,0.248,0.033,0.314,0.098
				c0.066,0.068,0.102,0.172,0.102,0.318c0,0.172-0.033,0.289-0.098,0.352c-0.062,0.062-0.168,0.092-0.318,0.092h-1.6
				c-0.199,0-0.395-0.023-0.58-0.078c-0.184-0.053-0.377-0.162-0.57-0.336c-0.326,0.129-0.664,0.229-1.018,0.305
				c-0.352,0.074-0.713,0.109-1.082,0.109H86.128z M89.097,15.742c-0.139,0-0.275,0.016-0.406,0.045
				c-0.131,0.027-0.256,0.066-0.375,0.119c-0.117,0.049-0.227,0.109-0.326,0.182c-0.1,0.07-0.186,0.148-0.262,0.229l1.266,1.342
				c0.166-0.086,0.318-0.176,0.455-0.277c0.137-0.098,0.254-0.203,0.35-0.318c0.098-0.113,0.174-0.23,0.229-0.352
				c0.053-0.123,0.078-0.246,0.078-0.375c0-0.076-0.018-0.152-0.061-0.223c-0.039-0.07-0.104-0.135-0.188-0.191
				c-0.084-0.055-0.188-0.098-0.312-0.131C89.419,15.76,89.267,15.742,89.097,15.742z"/>
			<path fill="#D1D3D4" d="M91.585,19.045c-0.143,0-0.246-0.031-0.316-0.096c-0.066-0.068-0.1-0.172-0.1-0.318
				c0-0.172,0.033-0.289,0.098-0.352c0.066-0.062,0.172-0.094,0.318-0.094h1.271v-6.379h0.879v7.238H91.585z"/>
			<path fill="#D1D3D4" d="M96.039,11.807v7.238h-0.881v-7.238H96.039z"/>
			<path fill="#D1D3D4" d="M103.552,17.1c0.125,0.211,0.195,0.43,0.209,0.656c0.014,0.229-0.027,0.439-0.121,0.629
				c-0.098,0.191-0.248,0.35-0.453,0.475s-0.459,0.186-0.768,0.186h-2.48v-0.859h2.404c0.111,0,0.211-0.018,0.293-0.053
				s0.143-0.088,0.182-0.158c0.039-0.068,0.051-0.152,0.037-0.252c-0.012-0.1-0.061-0.217-0.146-0.348l-1.332-2.082l0.766-0.48
				L103.552,17.1z"/>
			<path fill="#D1D3D4" d="M105.916,11.807v7.238h-0.881v-7.238H105.916z"/>
			<path fill="#D1D3D4" d="M111.585,19.045c-0.281,0-0.514-0.049-0.695-0.146c-0.182-0.096-0.328-0.244-0.436-0.436
				c-0.068,0.129-0.143,0.232-0.227,0.311c-0.086,0.076-0.178,0.135-0.275,0.178c-0.098,0.039-0.201,0.064-0.312,0.078
				c-0.107,0.01-0.221,0.016-0.336,0.016h-2.371v-0.859h2.316c0.205,0,0.354-0.031,0.441-0.088c0.09-0.061,0.145-0.133,0.158-0.217
				c0.016-0.084,0.006-0.174-0.027-0.264c-0.033-0.096-0.072-0.174-0.117-0.242l-1.334-2.082l0.766-0.48l1.262,2.051
				c0.139,0.225,0.262,0.422,0.367,0.588c0.107,0.166,0.205,0.303,0.295,0.412s0.176,0.191,0.258,0.244
				c0.084,0.051,0.172,0.078,0.268,0.078c0.141,0,0.246,0.033,0.314,0.098c0.066,0.068,0.1,0.172,0.1,0.318
				c0,0.172-0.033,0.289-0.096,0.352C111.839,19.016,111.734,19.045,111.585,19.045z"/>
			<path fill="#D1D3D4" d="M111.585,19.045c-0.143,0-0.248-0.031-0.314-0.096c-0.068-0.068-0.104-0.172-0.104-0.318
				c0-0.172,0.035-0.289,0.1-0.352c0.066-0.062,0.172-0.094,0.318-0.094h0.561c0.264,0,0.523-0.018,0.781-0.053
				c0.256-0.035,0.502-0.092,0.734-0.166l-1.334-1.473c0.021-0.074,0.047-0.154,0.08-0.24c0.031-0.082,0.066-0.164,0.104-0.244
				s0.076-0.152,0.115-0.219c0.039-0.064,0.076-0.119,0.117-0.16c0.223-0.219,0.494-0.395,0.82-0.527
				c0.33-0.129,0.676-0.195,1.045-0.195c0.305,0,0.57,0.037,0.801,0.111c0.229,0.074,0.42,0.172,0.57,0.291
				c0.152,0.121,0.268,0.256,0.344,0.408c0.076,0.156,0.115,0.314,0.115,0.477c0,0.189-0.031,0.373-0.094,0.551
				c-0.059,0.18-0.146,0.352-0.254,0.516c-0.111,0.162-0.242,0.318-0.395,0.467c-0.15,0.15-0.318,0.289-0.5,0.416
				c0.074,0.018,0.154,0.027,0.242,0.033c0.088,0.004,0.18,0.008,0.279,0.008h1.318c0.139,0,0.246,0.033,0.312,0.098
				c0.068,0.068,0.104,0.172,0.104,0.318c0,0.172-0.033,0.289-0.1,0.352c-0.062,0.062-0.17,0.092-0.316,0.092h-1.604
				c-0.197,0-0.389-0.023-0.578-0.078c-0.186-0.053-0.375-0.162-0.57-0.336c-0.324,0.129-0.664,0.229-1.016,0.305
				c-0.354,0.074-0.713,0.109-1.082,0.109H111.585z M114.552,15.742c-0.139,0-0.271,0.016-0.404,0.045
				c-0.131,0.027-0.256,0.066-0.375,0.119c-0.117,0.049-0.227,0.109-0.326,0.182c-0.1,0.07-0.186,0.148-0.262,0.229l1.266,1.342
				c0.166-0.086,0.318-0.176,0.455-0.277c0.137-0.098,0.254-0.203,0.348-0.318c0.096-0.113,0.172-0.23,0.227-0.352
				c0.055-0.123,0.082-0.246,0.082-0.375c0-0.076-0.021-0.152-0.062-0.223s-0.102-0.135-0.186-0.191
				c-0.088-0.055-0.191-0.098-0.314-0.131C114.875,15.76,114.726,15.742,114.552,15.742z"/>
			<path fill="#D1D3D4" d="M117.041,19.045c-0.143,0-0.246-0.031-0.314-0.096c-0.068-0.068-0.102-0.172-0.102-0.318
				c0-0.172,0.033-0.289,0.1-0.352c0.064-0.062,0.17-0.094,0.316-0.094h0.779c0.125,0,0.238-0.008,0.346-0.021
				c0.104-0.012,0.191-0.045,0.266-0.096c0.072-0.049,0.129-0.127,0.17-0.227c0.041-0.104,0.059-0.24,0.059-0.412v-2.375h0.893v1.99
				c0,0.172,0.016,0.33,0.043,0.473c0.029,0.141,0.08,0.26,0.15,0.357c0.07,0.1,0.166,0.176,0.285,0.229
				c0.121,0.055,0.271,0.082,0.453,0.082c0.145,0,0.248,0.033,0.316,0.098c0.066,0.068,0.098,0.172,0.098,0.318
				c0,0.172-0.029,0.289-0.096,0.352s-0.174,0.092-0.318,0.092c-0.111,0-0.221-0.014-0.336-0.043
				c-0.107-0.027-0.213-0.068-0.307-0.121c-0.092-0.053-0.176-0.113-0.25-0.184c-0.074-0.072-0.129-0.148-0.17-0.234
				c-0.068,0.125-0.154,0.227-0.262,0.303s-0.221,0.135-0.342,0.176c-0.121,0.043-0.246,0.07-0.375,0.086
				c-0.131,0.012-0.254,0.018-0.369,0.018H117.041z M117.861,13.307c0-0.074,0.014-0.145,0.043-0.209
				c0.029-0.066,0.07-0.125,0.119-0.176c0.051-0.051,0.109-0.092,0.174-0.119c0.066-0.027,0.141-0.043,0.215-0.043
				c0.076,0,0.146,0.016,0.211,0.043c0.066,0.027,0.125,0.068,0.176,0.119c0.049,0.051,0.09,0.109,0.119,0.176
				c0.027,0.064,0.041,0.135,0.041,0.209c0,0.078-0.014,0.148-0.041,0.217c-0.029,0.064-0.07,0.123-0.119,0.172
				c-0.051,0.053-0.109,0.092-0.176,0.119c-0.064,0.031-0.135,0.045-0.211,0.045c-0.074,0-0.148-0.014-0.215-0.045
				c-0.064-0.027-0.123-0.066-0.174-0.119c-0.049-0.049-0.09-0.107-0.119-0.172C117.875,13.455,117.861,13.385,117.861,13.307z
				 M119.208,13.307c0-0.074,0.014-0.145,0.043-0.209c0.029-0.066,0.068-0.125,0.119-0.176s0.109-0.092,0.176-0.119
				c0.064-0.027,0.135-0.043,0.215-0.043c0.072,0,0.145,0.016,0.209,0.043c0.066,0.027,0.125,0.068,0.176,0.119
				c0.049,0.051,0.09,0.109,0.119,0.176c0.027,0.064,0.043,0.135,0.043,0.209c0,0.078-0.016,0.148-0.043,0.217
				c-0.029,0.064-0.07,0.123-0.119,0.172c-0.051,0.053-0.109,0.092-0.176,0.119c-0.064,0.031-0.137,0.045-0.209,0.045
				c-0.08,0-0.15-0.014-0.215-0.045c-0.066-0.027-0.125-0.066-0.176-0.119c-0.051-0.049-0.09-0.107-0.119-0.172
				C119.222,13.455,119.208,13.385,119.208,13.307z"/>
			<path fill="#D1D3D4" d="M120.484,19.045c-0.141,0-0.244-0.031-0.312-0.096c-0.07-0.068-0.102-0.172-0.102-0.318
				c0-0.172,0.031-0.289,0.098-0.352s0.172-0.094,0.316-0.094h1.271v-6.379h0.883v7.238H120.484z"/>
			<path fill="#D1D3D4" d="M124.939,11.807v7.238h-0.881v-7.238H124.939z"/>
		</g>
		<g>
			<path fill="#D1D3D4" d="M6.101,27.641H4.919v1.719H4.371V24.49h1.82c1.102,0,1.824,0.584,1.824,1.551
				C8.015,27.098,7.138,27.641,6.101,27.641z M6.152,24.998H4.919v2.143h1.203c0.809,0,1.334-0.434,1.334-1.078
				C7.457,25.359,6.937,24.998,6.152,24.998z"/>
			<path fill="#D1D3D4" d="M11.279,29.441c-1.482,0-2.477-1.16-2.477-2.512c0-1.348,1.01-2.523,2.49-2.523
				c1.482,0,2.477,1.162,2.477,2.512S12.759,29.441,11.279,29.441z M11.279,24.914c-1.113,0-1.906,0.891-1.906,2.004
				s0.807,2.02,1.92,2.02c1.111,0,1.904-0.893,1.904-2.008C13.197,25.818,12.392,24.914,11.279,24.914z"/>
			<path fill="#D1D3D4" d="M16.664,27.641h-1.182v1.719h-0.551V24.49h1.822c1.1,0,1.824,0.584,1.824,1.551
				C18.578,27.098,17.699,27.641,16.664,27.641z M16.712,24.998h-1.23v2.143h1.205c0.805,0,1.332-0.434,1.332-1.078
				C18.019,25.359,17.498,24.998,16.712,24.998z"/>
			<path fill="#D1D3D4" d="M23.558,27.279c0,1.42-0.814,2.156-2.031,2.156c-1.203,0-2.025-0.736-2.025-2.115v-2.83h0.551v2.795
				c0,1.051,0.557,1.643,1.488,1.643c0.898,0,1.469-0.543,1.469-1.607v-2.83h0.549V27.279z"/>
			<path fill="#D1D3D4" d="M24.859,24.49h0.551v4.361h2.742v0.508h-3.293V24.49z"/>
			<path fill="#D1D3D4" d="M33.703,29.359h-0.594l-0.568-1.285h-2.65l-0.578,1.285h-0.564l2.219-4.904h0.516L33.703,29.359z
				 M31.218,25.096l-1.113,2.482h2.221L31.218,25.096z"/>
			<path fill="#D1D3D4" d="M35.88,29.359h-0.557v-4.361h-1.635V24.49h3.824v0.508H35.88V29.359z"/>
			<path fill="#D1D3D4" d="M39.144,24.49v4.869h-0.551V24.49H39.144z"/>
			<path fill="#D1D3D4" d="M42.83,29.441c-1.48,0-2.477-1.16-2.477-2.512c0-1.348,1.01-2.523,2.49-2.523
				c1.482,0,2.477,1.162,2.477,2.512S44.312,29.441,42.83,29.441z M42.83,24.914c-1.113,0-1.906,0.891-1.906,2.004
				s0.809,2.02,1.92,2.02c1.113,0,1.908-0.893,1.908-2.008C44.751,25.818,43.943,24.914,42.83,24.914z"/>
			<path fill="#D1D3D4" d="M50.066,24.49h0.535v4.869h-0.438l-3.145-3.992v3.992h-0.537V24.49H47l3.066,3.902V24.49z"/>
			<path fill="#D1D3D4" d="M57.582,29.457l-0.768-0.785c-0.445,0.479-0.961,0.756-1.592,0.756c-0.877,0-1.531-0.551-1.531-1.369
				c0-0.656,0.432-1.121,1.176-1.414c-0.334-0.387-0.488-0.686-0.488-1.076c0-0.646,0.518-1.162,1.289-1.162
				c0.682,0,1.182,0.486,1.182,1.107c0,0.633-0.438,1.021-1.148,1.271l1.113,1.133c0.217-0.311,0.412-0.682,0.584-1.084l0.453,0.209
				c-0.217,0.459-0.439,0.875-0.703,1.225l0.848,0.869L57.582,29.457z M55.179,26.988c-0.646,0.234-0.932,0.631-0.932,1.049
				c0,0.529,0.416,0.926,1.016,0.926c0.459,0,0.863-0.244,1.219-0.633L55.179,26.988z M55.646,24.857
				c-0.438,0-0.738,0.309-0.738,0.711c0,0.293,0.119,0.508,0.488,0.902c0.619-0.207,0.938-0.5,0.938-0.93
				C56.333,25.145,56.042,24.857,55.646,24.857z"/>
			<path fill="#D1D3D4" d="M61.546,27.168v2.191h-0.551V24.49h0.551v2.162h2.809V24.49h0.551v4.869h-0.551v-2.191H61.546z"/>
			<path fill="#D1D3D4" d="M68.546,29.441c-1.482,0-2.479-1.16-2.479-2.512c0-1.348,1.01-2.523,2.492-2.523s2.477,1.162,2.477,2.512
				S70.029,29.441,68.546,29.441z M68.546,24.914c-1.113,0-1.908,0.891-1.908,2.004s0.809,2.02,1.922,2.02s1.906-0.893,1.906-2.008
				C70.466,25.818,69.66,24.914,68.546,24.914z"/>
			<path fill="#D1D3D4" d="M76.177,27.279c0,1.42-0.814,2.156-2.031,2.156c-1.205,0-2.023-0.736-2.023-2.115v-2.83h0.549v2.795
				c0,1.051,0.557,1.643,1.488,1.643c0.898,0,1.469-0.543,1.469-1.607v-2.83h0.549V27.279z"/>
			<path fill="#D1D3D4" d="M79.226,26.66c1.084,0.236,1.586,0.633,1.586,1.385c0,0.844-0.697,1.383-1.664,1.383
				c-0.771,0-1.404-0.258-1.988-0.777l0.34-0.404c0.508,0.459,0.994,0.691,1.67,0.691c0.654,0,1.084-0.344,1.084-0.838
				c0-0.459-0.242-0.715-1.264-0.932c-1.121-0.242-1.637-0.605-1.637-1.412c0-0.779,0.676-1.336,1.602-1.336
				c0.709,0,1.217,0.201,1.711,0.598l-0.32,0.426c-0.453-0.369-0.902-0.529-1.406-0.529c-0.631,0-1.035,0.348-1.035,0.793
				C77.904,26.172,78.154,26.43,79.226,26.66z"/>
			<path fill="#D1D3D4" d="M82.531,24.49v4.869h-0.549V24.49H82.531z"/>
			<path fill="#D1D3D4" d="M87.541,24.49h0.533v4.869h-0.439l-3.145-3.992v3.992h-0.531V24.49h0.512l3.07,3.902V24.49z"/>
			<path fill="#D1D3D4" d="M91.712,29.441c-1.527,0-2.477-1.111-2.477-2.512c0-1.34,0.982-2.523,2.443-2.523
				c0.82,0,1.33,0.236,1.814,0.646l-0.354,0.418c-0.375-0.326-0.793-0.557-1.482-0.557c-1.078,0-1.852,0.91-1.852,2.004
				c0,1.168,0.746,2.031,1.928,2.031c0.557,0,1.072-0.217,1.406-0.488v-1.209h-1.482v-0.496h2.012v1.943
				C93.216,29.102,92.537,29.441,91.712,29.441z"/>
			<path fill="#D1D3D4" d="M99.222,29.441c-1.406,0-2.443-1.105-2.443-2.512c0-1.389,1.029-2.523,2.463-2.523
				c0.883,0,1.412,0.312,1.898,0.771l-0.375,0.404c-0.41-0.389-0.869-0.668-1.531-0.668c-1.076,0-1.885,0.871-1.885,2.004
				c0,1.135,0.812,2.02,1.885,2.02c0.67,0,1.107-0.26,1.572-0.705l0.361,0.355C100.662,29.102,100.105,29.441,99.222,29.441z"/>
			<path fill="#D1D3D4" d="M105.65,24.99h-2.971v1.662h2.658v0.502h-2.658v1.703h3.004v0.502h-3.553V24.49h3.52V24.99z"/>
			<path fill="#D1D3D4" d="M110.373,24.49h0.537v4.869h-0.439l-3.145-3.992v3.992h-0.535V24.49h0.516l3.066,3.902V24.49z"/>
			<path fill="#D1D3D4" d="M114.033,26.66c1.086,0.236,1.586,0.633,1.586,1.385c0,0.844-0.695,1.383-1.662,1.383
				c-0.771,0-1.406-0.258-1.99-0.777l0.342-0.404c0.508,0.459,0.996,0.691,1.67,0.691c0.654,0,1.084-0.344,1.084-0.838
				c0-0.459-0.242-0.715-1.266-0.932c-1.121-0.242-1.633-0.605-1.633-1.412c0-0.779,0.674-1.336,1.598-1.336
				c0.711,0,1.219,0.201,1.711,0.598l-0.318,0.426c-0.453-0.369-0.906-0.529-1.404-0.529c-0.635,0-1.037,0.348-1.037,0.793
				C112.712,26.172,112.962,26.43,114.033,26.66z"/>
			<path fill="#D1D3D4" d="M120.72,27.279c0,1.42-0.814,2.156-2.033,2.156c-1.203,0-2.025-0.736-2.025-2.115v-2.83h0.551v2.795
				c0,1.051,0.557,1.643,1.488,1.643c0.9,0,1.471-0.543,1.471-1.607v-2.83h0.549V27.279z"/>
			<path fill="#D1D3D4" d="M123.767,26.66c1.086,0.236,1.586,0.633,1.586,1.385c0,0.844-0.695,1.383-1.662,1.383
				c-0.773,0-1.406-0.258-1.988-0.777l0.34-0.404c0.508,0.459,0.992,0.691,1.668,0.691c0.654,0,1.086-0.344,1.086-0.838
				c0-0.459-0.244-0.715-1.266-0.932c-1.121-0.242-1.637-0.605-1.637-1.412c0-0.779,0.674-1.336,1.602-1.336
				c0.709,0,1.219,0.201,1.713,0.598l-0.322,0.426c-0.451-0.369-0.904-0.529-1.406-0.529c-0.631,0-1.035,0.348-1.035,0.793
				C122.445,26.172,122.695,26.43,123.767,26.66z"/>
		</g>
	</g>
	<line fill="#D1D3D4" x1="126.746" y1="8.934" x2="126.746" y2="32.453"/>
</g>
</svg>
