<?xml version="1.0" encoding="utf-8"?>
<!-- Generator: Adobe Illustrator 16.0.4, SVG Export Plug-In . SVG Version: 6.00 Build 0)  -->
<!DOCTYPE svg PUBLIC "-//W3C//DTD SVG 1.1//EN" "http://www.w3.org/Graphics/SVG/1.1/DTD/svg11.dtd">
<svg version="1.1" id="Layer_1" xmlns="http://www.w3.org/2000/svg" xmlns:xlink="http://www.w3.org/1999/xlink" x="0px" y="0px"
	 width="32.003px" height="31.322px" viewBox="0 0 32.003 31.322" enable-background="new 0 0 32.003 31.322" xml:space="preserve">
<g>
	<path fill-rule="evenodd" clip-rule="evenodd" fill="#FFFFFF" d="M5.259,7.609c-0.001-1.474,1.2-2.682,2.678-2.69
		c1.479-0.01,2.705,1.216,2.701,2.7c-0.004,1.465-1.238,2.69-2.696,2.678C6.462,10.284,5.259,9.08,5.259,7.609z"/>
	<path fill-rule="evenodd" clip-rule="evenodd" fill="#FFFFFF" d="M26.747,7.628c-0.014,1.471-1.242,2.684-2.704,2.668
		c-1.482-0.016-2.679-1.223-2.675-2.695c0.005-1.485,1.241-2.705,2.718-2.682C25.565,4.941,26.758,6.157,26.747,7.628z"/>
	<path fill-rule="evenodd" clip-rule="evenodd" fill="#FFFFFF" d="M18.69,15.679c-0.009,1.47-1.234,2.684-2.698,2.671
		c-1.48-0.013-2.68-1.219-2.678-2.69c0.001-1.484,1.236-2.707,2.714-2.686C17.506,12.993,18.7,14.206,18.69,15.679z"/>
	<path fill-rule="evenodd" clip-rule="evenodd" fill="#FFFFFF" d="M24.049,18.351c-1.463,0.003-2.69-1.229-2.683-2.689
		c0.008-1.494,1.224-2.699,2.713-2.689c1.454,0.009,2.662,1.222,2.667,2.673C26.751,17.134,25.541,18.348,24.049,18.351z"/>
	<path fill-rule="evenodd" clip-rule="evenodd" fill="#FFFFFF" d="M7.953,26.403c-1.477,0-2.684-1.198-2.693-2.674
		c-0.012-1.48,1.216-2.711,2.697-2.703c1.477,0.009,2.676,1.213,2.68,2.691C10.639,25.184,9.42,26.405,7.953,26.403z"/>
	<path fill-rule="evenodd" clip-rule="evenodd" fill="#FFFFFF" d="M15.979,26.405c-1.466-0.01-2.687-1.249-2.667-2.705
		c0.021-1.498,1.244-2.697,2.729-2.675c1.456,0.021,2.659,1.242,2.652,2.689C18.683,25.209,17.465,26.416,15.979,26.405z"/>
	<path fill-rule="evenodd" clip-rule="evenodd" fill="#FFFFFF" d="M21.368,23.709c0.001-1.469,1.222-2.686,2.688-2.683
		c1.479,0.004,2.682,1.203,2.689,2.68c0.009,1.479-1.226,2.711-2.703,2.697C22.564,26.391,21.367,25.185,21.368,23.709z"/>
	<path fill-rule="evenodd" clip-rule="evenodd" fill="#FFFFFF" d="M15.996,10.296c-1.484-0.006-2.701-1.238-2.684-2.719
		c0.018-1.457,1.229-2.658,2.68-2.66c1.488-0.001,2.711,1.225,2.698,2.703C18.678,9.097,17.467,10.3,15.996,10.296z"/>
	<path fill-rule="evenodd" clip-rule="evenodd" fill="#FFFFFF" d="M10.636,15.653c0.007,1.469-1.195,2.682-2.673,2.696
		s-2.705-1.208-2.706-2.695c-0.002-1.462,1.229-2.689,2.689-2.684C9.424,12.978,10.629,14.18,10.636,15.653z"/>
</g>
</svg>
