<?xml version="1.0" encoding="utf-8"?>
<!-- Generator: Adobe Illustrator 16.0.4, SVG Export Plug-In . SVG Version: 6.00 Build 0)  -->
<!DOCTYPE svg PUBLIC "-//W3C//DTD SVG 1.1//EN" "http://www.w3.org/Graphics/SVG/1.1/DTD/svg11.dtd">
<svg version="1.1" id="Layer_1" xmlns="http://www.w3.org/2000/svg" xmlns:xlink="http://www.w3.org/1999/xlink" x="0px" y="0px"
	 width="30.221px" height="24.346px" viewBox="0 0 30.221 24.346" enable-background="new 0 0 30.221 24.346" xml:space="preserve">
<g>
	<g>
		<g>
			<path fill="#364148" d="M8.996,22.466c-1.382-1.384-2.785-2.786-4.162-4.164c0.796-0.794,1.601-1.6,2.423-2.42
				c0.637,0.642,1.313,1.334,2.005,2.006c0.111,0.107,0.314,0.201,0.458,0.182c0.362-0.051,0.458-0.479,0.183-0.759
				c-0.619-0.628-1.246-1.252-1.874-1.872c-0.07-0.07-0.167-0.115-0.241-0.163c0.447-0.449,0.838-0.841,1.268-1.271
				c0.279,0.29,0.569,0.593,0.858,0.894c0.137,0.144,0.317,0.198,0.482,0.106c0.116-0.065,0.244-0.214,0.257-0.334
				c0.013-0.135-0.067-0.311-0.163-0.418c-0.262-0.292-0.555-0.56-0.815-0.819c0.404-0.405,0.799-0.798,1.23-1.23
				c0.105,0.113,0.236,0.264,0.375,0.404c0.553,0.557,1.104,1.111,1.66,1.66c0.276,0.272,0.661,0.192,0.762-0.15
				c0.062-0.205-0.036-0.354-0.175-0.49c-0.614-0.611-1.223-1.227-1.84-1.836c-0.07-0.07-0.167-0.114-0.232-0.159
				c0.446-0.446,0.836-0.835,1.276-1.274c0.201,0.217,0.421,0.456,0.643,0.693c0.07,0.074,0.139,0.147,0.216,0.213
				c0.204,0.172,0.44,0.169,0.612-0.005c0.168-0.171,0.177-0.421,0-0.612c-0.211-0.229-0.436-0.444-0.66-0.661
				c-0.077-0.077-0.168-0.14-0.234-0.194c0.428-0.426,0.825-0.82,1.243-1.236c0.541,0.544,1.105,1.117,1.674,1.689
				c0.13,0.131,0.258,0.266,0.395,0.391c0.206,0.194,0.446,0.198,0.624,0.016c0.172-0.172,0.171-0.439-0.018-0.63
				c-0.663-0.67-1.332-1.334-1.999-2.001C15.2,7.99,15.173,7.957,15.165,7.95c0.401-0.4,0.796-0.796,1.228-1.227
				c0.256,0.267,0.548,0.578,0.85,0.88c0.152,0.153,0.342,0.18,0.529,0.064c0.19-0.118,0.249-0.301,0.182-0.503
				c-0.032-0.105-0.119-0.198-0.202-0.281c-0.256-0.266-0.521-0.524-0.762-0.766c0.403-0.402,0.797-0.796,1.219-1.217
				c0.376,0.379,0.78,0.792,1.187,1.204c0.272,0.274,0.545,0.549,0.822,0.82c0.25,0.247,0.484,0.271,0.683,0.074
				C21.101,6.8,21.08,6.56,20.836,6.316c-0.611-0.614-1.224-1.227-1.839-1.837c-0.068-0.07-0.154-0.129-0.214-0.176
				c0.831-0.831,1.632-1.632,2.42-2.422c1.392,1.396,2.8,2.804,4.184,4.191C19.943,11.519,14.474,16.988,8.996,22.466z"/>
		</g>
	</g>
</g>
</svg>
