<?xml version="1.0" encoding="utf-8"?>
<!-- Generator: Adobe Illustrator 16.0.4, SVG Export Plug-In . SVG Version: 6.00 Build 0)  -->
<!DOCTYPE svg PUBLIC "-//W3C//DTD SVG 1.1//EN" "http://www.w3.org/Graphics/SVG/1.1/DTD/svg11.dtd">
<svg version="1.1" id="Layer_1" xmlns="http://www.w3.org/2000/svg" xmlns:xlink="http://www.w3.org/1999/xlink" x="0px" y="0px"
	 width="32.003px" height="31.322px" viewBox="0 0 32.003 31.322" enable-background="new 0 0 32.003 31.322" xml:space="preserve">
<g>
	<path fill-rule="evenodd" clip-rule="evenodd" fill="#FFFFFF" d="M15.565,1.645c0.542,0,1.085,0.012,1.626-0.005
		c0.227-0.007,0.288,0.091,0.309,0.285c0.081,0.719,0.174,1.437,0.252,2.157c0.016,0.154,0.076,0.205,0.225,0.238
		c1.267,0.277,2.446,0.769,3.533,1.477c0.154,0.1,0.249,0.09,0.389-0.022c0.571-0.461,1.155-0.905,1.727-1.366
		c0.135-0.109,0.213-0.102,0.331,0.018c0.774,0.783,1.551,1.565,2.339,2.334c0.154,0.15,0.077,0.238-0.014,0.352
		c-0.449,0.569-0.893,1.143-1.352,1.704c-0.11,0.135-0.115,0.229-0.021,0.372c0.683,1.061,1.168,2.207,1.431,3.442
		c0.05,0.236,0.173,0.313,0.379,0.339c0.685,0.083,1.366,0.179,2.052,0.245c0.202,0.02,0.268,0.07,0.266,0.277
		c-0.01,1.077-0.008,2.153,0,3.229c0.002,0.188-0.056,0.271-0.243,0.293c-0.594,0.067-1.189,0.143-1.783,0.215
		c-0.157,0.019-0.313,0.04-0.472,0.053c-0.131,0.011-0.153,0.096-0.174,0.203c-0.147,0.766-0.401,1.495-0.722,2.205
		c-0.07,0.159-0.131,0.171-0.265,0.066c-0.884-0.695-1.771-1.388-2.661-2.072c-0.108-0.082-0.101-0.15-0.064-0.254
		c0.291-0.861,0.402-1.747,0.363-2.655c-0.052-1.233-0.391-2.381-1.024-3.437c-1.119-1.868-2.767-3.038-4.877-3.497
		c-1.966-0.426-3.825-0.062-5.53,1.016c-1.802,1.139-2.925,2.773-3.315,4.855c-0.41,2.188,0.076,4.199,1.454,5.968
		c1.146,1.471,2.658,2.37,4.476,2.735c1.132,0.229,2.27,0.178,3.382-0.15c0.248-0.072,0.383-0.049,0.562,0.162
		c0.673,0.783,1.381,1.537,2.078,2.301c0.263,0.285,0.266,0.283-0.089,0.449c-0.674,0.316-1.375,0.557-2.102,0.715
		c-0.192,0.041-0.265,0.124-0.284,0.33c-0.067,0.713-0.166,1.422-0.248,2.132c-0.021,0.182-0.099,0.246-0.291,0.245
		c-1.085-0.01-2.17-0.01-3.255,0c-0.191,0.001-0.269-0.062-0.287-0.245c-0.053-0.545-0.113-1.09-0.167-1.635
		c-0.021-0.198-0.036-0.396-0.053-0.595c-0.015-0.176-0.151-0.198-0.282-0.23c-0.899-0.223-1.769-0.525-2.595-0.947
		c-0.316-0.162-0.623-0.35-0.927-0.535c-0.128-0.078-0.215-0.065-0.332,0.028c-0.594,0.473-1.197,0.933-1.793,1.403
		c-0.107,0.084-0.171,0.092-0.27-0.009c-0.798-0.808-1.597-1.612-2.404-2.411c-0.121-0.119-0.044-0.192,0.017-0.27
		c0.342-0.438,0.689-0.871,1.035-1.305c0.135-0.169,0.271-0.336,0.402-0.506c0.094-0.119,0.017-0.221-0.046-0.317
		c-0.479-0.736-0.854-1.522-1.122-2.358c-0.11-0.34-0.202-0.686-0.294-1.029c-0.097-0.365-0.123-0.387-0.496-0.41
		c-0.697-0.047-1.385-0.158-2.075-0.248c-0.175-0.023-0.139-0.139-0.139-0.238c-0.003-0.91-0.001-1.82-0.001-2.729
		c0-0.192,0.003-0.384,0-0.576c-0.004-0.13,0.047-0.197,0.186-0.213c0.725-0.082,1.448-0.174,2.176-0.252
		c0.187-0.021,0.304-0.083,0.34-0.284c0.236-1.279,0.772-2.437,1.455-3.532C6.356,9.034,6.356,8.973,6.265,8.86
		C5.797,8.287,5.348,7.699,4.88,7.127C4.746,6.964,4.75,6.869,4.905,6.718c0.753-0.734,1.5-1.475,2.23-2.231
		c0.188-0.195,0.307-0.166,0.49-0.017c0.552,0.445,1.118,0.872,1.673,1.313c0.131,0.104,0.225,0.112,0.37,0.018
		c1.072-0.696,2.224-1.211,3.482-1.466c0.2-0.041,0.276-0.131,0.297-0.328c0.074-0.717,0.173-1.432,0.24-2.15
		c0.018-0.188,0.093-0.215,0.249-0.214C14.48,1.648,15.022,1.645,15.565,1.645z"/>
	<path fill-rule="evenodd" clip-rule="evenodd" fill="#FFFFFF" d="M19.361,14.312c0.013,0.606-0.077,1.146-0.295,1.659
		c-0.076,0.179-0.048,0.298,0.098,0.437c1.234,1.171,2.46,2.352,3.688,3.528c1.18,1.131,2.36,2.261,3.542,3.391
		c0.994,0.95,1.978,1.913,2.989,2.845c0.619,0.568,0.693,1.648,0.045,2.284c-0.256,0.251-0.496,0.519-0.755,0.767
		c-0.687,0.66-1.688,0.598-2.332-0.105c-0.624-0.684-1.282-1.336-1.922-2.006c-1.44-1.506-2.88-3.014-4.321-4.521
		c-1.035-1.085-2.07-2.172-3.108-3.258c-0.173-0.181-0.361-0.349-0.512-0.546c-0.119-0.151-0.238-0.135-0.391-0.094
		c-1.443,0.396-2.761,0.114-3.945-0.771c-1.61-1.205-2.194-3.379-1.426-5.226c0.029-0.072,0.035-0.187,0.129-0.19
		c0.074-0.002,0.104,0.1,0.146,0.159c0.683,0.947,1.36,1.897,2.045,2.843c0.438,0.606,1.089,0.721,1.701,0.295
		c0.521-0.362,1.036-0.729,1.548-1.104c0.582-0.426,0.704-1.129,0.29-1.719c-0.673-0.955-1.358-1.899-2.038-2.849
		c-0.042-0.06-0.13-0.121-0.095-0.191c0.037-0.077,0.143-0.066,0.227-0.07c2.315-0.095,4.121,1.447,4.617,3.544
		C19.359,13.723,19.388,14.042,19.361,14.312z M27.397,28.147c0.56,0,0.996-0.427,1.009-0.989c0.012-0.51-0.467-0.998-0.984-1.004
		c-0.555-0.006-1.011,0.456-1.008,1.019C26.416,27.732,26.836,28.148,27.397,28.147z"/>
</g>
</svg>
