<svg id="Layer_1" data-name="Layer 1" xmlns="http://www.w3.org/2000/svg" viewBox="0 0 19.2 19.2"><defs><style>.cls-1{fill:#fff;}.cls-2{fill:#992b7a;}.cls-3{fill:#282828;}</style></defs><title>All Icons</title><circle class="cls-1" cx="9.6" cy="9.6" r="8.88"/><path class="cls-2" d="M9.6,19.2a9.6,9.6,0,1,1,9.6-9.6A9.61,9.61,0,0,1,9.6,19.2ZM9.6,2A7.65,7.65,0,1,0,17.25,9.6,7.66,7.66,0,0,0,9.6,2Z"/><path class="cls-3" d="M9.32,12.21c0-.31.06-.56.09-.69.08-.35.14-.67.18-.94a1,1,0,0,0,1-1,1.31,1.31,0,0,0,0-.22l.1.12A1,1,0,0,0,12.18,8a1,1,0,0,0,0-2.1H12l.08-.07a1,1,0,1,0-1.48-1.48l-.09.11s0-.06,0-.09a1,1,0,0,0-2.09-.06A1,1,0,0,0,7,5.83L7.13,6H7a1,1,0,0,0,0,2.1A1,1,0,0,0,8.48,9.53h0a1,1,0,0,0,.78,1c0,.26-.1.57-.18.91s-.2.92-.26,1.39v0c-.39-1.36-2.09-1.87-2.87-1.09a3,3,0,0,0,2.8,1.83c0,.15,0,2.1,0,2.31h.34c0-.55.08-1.67.15-2.65v0h0a4.93,4.93,0,0,1,2.24-1.58,4.63,4.63,0,0,0-2.07,1.71l-.14.18c2,0,3.06-1,4-2.57C12.25,9.92,10,10.42,9.32,12.21Zm-.57,1.32A3.47,3.47,0,0,0,7.2,12.21,3.22,3.22,0,0,1,8.76,13.3C8.76,13.37,8.75,13.45,8.75,13.53ZM8.63,6.95a.91.91,0,1,1,.92.92A.92.92,0,0,1,8.63,6.95Z"/></svg>