<svg id="Layer_1" data-name="Layer 1" xmlns="http://www.w3.org/2000/svg" viewBox="0 0 19.2 19.2"><defs><style>.cls-1{fill:#fff;}.cls-2{fill:#af0e0e;}.cls-3{fill:#282828;}</style></defs><title>All Icons</title><circle class="cls-1" cx="9.62" cy="9.66" r="8.49"/><path class="cls-2" d="M9.6,19.2a9.6,9.6,0,1,1,9.6-9.6A9.61,9.61,0,0,1,9.6,19.2ZM9.6,2A7.65,7.65,0,1,0,17.25,9.6,7.66,7.66,0,0,0,9.6,2Z"/><path class="cls-3" d="M13.92,14.32h-.47V12.56h0V10.64h0V8.77A.45.45,0,0,0,13,8.33H12.1A2.5,2.5,0,0,0,10,6.46V6.13h1.48a.44.44,0,0,0,.44-.44v-1a.45.45,0,0,0-.44-.44H10A.43.43,0,0,0,9.56,4a.45.45,0,0,0-.44.44v2A2.44,2.44,0,0,0,7,8.33H6.12a.45.45,0,0,0-.44.44v1.87h0v1.92h0v1.76H5.26a.44.44,0,0,0,0,.88h8.68a.45.45,0,0,0,.44-.44A.46.46,0,0,0,13.92,14.32Zm-5-5.11h1.4v1H8.89Zm0,3.78h1.4v1H8.89Zm2.26,0h1.43v1H11.14Zm1.45-.88H11.14V11.05h1.43v1.06Zm-2.31-1.06v1.06H8.89V11.05ZM8,12.11H6.61V11.05H8ZM6.58,13H8v1H6.61V13Zm6-2.8H11.14v-1h1.43v1Zm-6-1H8v1H6.61v-1h0Z"/></svg>