<svg id="Layer_1" data-name="Layer 1" xmlns="http://www.w3.org/2000/svg" viewBox="0 0 19.2 19.2"><defs><style>.cls-1{fill:#fff;}.cls-2{fill:#e08500;}.cls-3{fill:#282828;}</style></defs><title>All Icons</title><circle class="cls-1" cx="9.6" cy="9.6" r="8.49"/><path class="cls-2" d="M9.56,19.2a9.6,9.6,0,1,1,9.6-9.6A9.61,9.61,0,0,1,9.56,19.2ZM9.56,2A7.65,7.65,0,1,0,17.21,9.6,7.66,7.66,0,0,0,9.56,2Z"/><path class="cls-3" d="M4.23,12.7V10.06H7.57V9.62H4.23V8.8H5.87c.1,0,.14,0,.13-.13,0-.31,0-.3-.3-.3H4.23V7.53H5.86C6,7.54,6,7.5,6,7.39c0-.29,0-.29-.29-.29H4.23V5.38H9.8c.22,0,.28.07.28.28V9.42c-.42,0-.81-.27-1.24-.13L8.13,7.86l-.3-.61c0-.08-.1-.14-.2-.09s-.08.13,0,.21l1,2a.23.23,0,0,1,0,.23.6.6,0,0,0,.45.87l.93.18c.08,0,.11,0,.11.13,0,.56,0,1.13,0,1.69,0,.17-.07.25-.24.25H4.23Z"/><path class="cls-3" d="M11.24,9.27l-.06.12c-.16.35-.33.69-.49,1a.16.16,0,0,1-.2.1l-1.24-.25-.23,0a.39.39,0,0,1,.2-.74l.84.19a.14.14,0,0,0,.19-.08c.2-.37.4-.75.61-1.11a.76.76,0,0,1,.69-.42.33.33,0,0,1,.15,0,1.65,1.65,0,0,0,1.49,0,.57.57,0,0,1,.35,0,1,1,0,0,1,.86,1c0,.82,0,1.64,0,2.46a.82.82,0,0,1,0,.19A.28.28,0,0,1,14,12a.28.28,0,0,1-.27-.31c0-.78,0-1.56,0-2.33a.94.94,0,0,0,0-.18s0-.06-.06-.1a.24.24,0,0,0,0,.1c0,.35,0,.69,0,1q0,2.33,0,4.65a.36.36,0,0,1-.36.41.86.86,0,0,1-.53-.06.41.41,0,0,1-.25-.4c0-.87,0-1.75,0-2.62a.44.44,0,0,0,0-.12.08.08,0,0,0-.06,0s0,0,0,0a.69.69,0,0,0,0,.13q0,1.27,0,2.54a.57.57,0,0,1-.9.5.35.35,0,0,1-.17-.35c0-.75,0-1.5,0-2.25,0-1.07,0-2.15,0-3.23,0,0,0-.08,0-.12Z"/><path class="cls-3" d="M12.42,5.4a1.21,1.21,0,0,1,1.19,1.51,1.7,1.7,0,0,1-.58,1,.9.9,0,0,1-1.17,0,1.64,1.64,0,0,1-.59-1.68A1.2,1.2,0,0,1,12.42,5.4Z"/></svg>