<svg id="Layer_1" data-name="Layer 1" xmlns="http://www.w3.org/2000/svg" viewBox="0 0 19.2 19.2"><defs><style>.cls-1{fill:#fff;}.cls-2{fill:#282828;}.cls-3{fill:#af0e0e;}</style></defs><title>All Icons</title><circle class="cls-1" cx="9.6" cy="9.6" r="8.88"/><path class="cls-2" d="M5.63,13.81V8.11H7v-.7H6.32V7H7a2.57,2.57,0,0,1,2.3-2.34V3.76h.45v.86A2.57,2.57,0,0,1,12,7h.67V7.4H12v.7h1.35v5.71ZM6.53,9.3v3.84H7V9.3Zm1.37,0v3.84h.45V9.3Zm1.38,0v3.84h.45V9.3Zm1.37,3.84h.46V9.3h-.46ZM12,9.3v3.84h.45V9.3Zm-.69-2.41h-.52v.52h.52Zm-2.09.53V6.89H8.73c0,.14,0,.28,0,.42s0,0,0,0,.05.07.08.07Zm.52,0h.54c0-.16,0-.31,0-.46a.09.09,0,0,0-.07-.07H9.77ZM7.68,6.88v.52H8.2V6.88Z"/><path class="cls-2" d="M14.4,14.24v.43H4.8v-.43Z"/><path class="cls-3" d="M9.6,19.2a9.6,9.6,0,1,1,9.6-9.6A9.61,9.61,0,0,1,9.6,19.2ZM9.6,2A7.65,7.65,0,1,0,17.25,9.6,7.66,7.66,0,0,0,9.6,2Z"/></svg>