<svg id="Layer_1" data-name="Layer 1" xmlns="http://www.w3.org/2000/svg" viewBox="0 0 19.2 19.2"><defs><style>.cls-1{fill:#fff;}.cls-2{fill:#992b7a;}.cls-3{fill:#282828;}</style></defs><title>All Icons</title><circle class="cls-1" cx="9.6" cy="9.6" r="8.88"/><path class="cls-2" d="M9.6,19.2a9.6,9.6,0,1,1,9.6-9.6A9.61,9.61,0,0,1,9.6,19.2ZM9.6,2A7.65,7.65,0,1,0,17.25,9.6,7.66,7.66,0,0,0,9.6,2Z"/><path class="cls-3" d="M15.45,8.08a2.69,2.69,0,0,1-.63-.37l-.17-.16a1.1,1.1,0,0,0-.35-.25A.51.51,0,0,1,14,7a1.7,1.7,0,0,1-.09-.35.47.47,0,0,1,0-.09s0,0,0-.07a.11.11,0,0,0-.06-.11.3.3,0,0,1-.13-.16.24.24,0,0,1,0-.15l.06-.21a.65.65,0,0,0,0-.1.18.18,0,0,0,0-.12.07.07,0,0,0-.11,0l-.07.08a1.32,1.32,0,0,0-.18.4.28.28,0,0,1-.08.13.14.14,0,0,1-.19,0l-.35-.19-.2-.1a.44.44,0,0,1-.2-.57.67.67,0,0,0,.06-.24.22.22,0,0,0,0-.06.08.08,0,0,0-.1-.06.26.26,0,0,0-.15.09.78.78,0,0,0-.14.26c0,.08-.05.17-.07.26a.33.33,0,0,1-.11.19.2.2,0,0,1-.12,0,4.54,4.54,0,0,1-.59,0l-.3,0h0a.94.94,0,0,1-.34-.25.37.37,0,0,1-.08-.26.44.44,0,0,1,0-.1l0-.14s0,0,0-.08L10.4,5l-.12,0a.17.17,0,0,1-.14,0l-.09-.08L10,4.84,9.9,4.77s-.08,0-.08,0a.16.16,0,0,0,0,.1L10,5.1l.13.19a.64.64,0,0,1,.09.21s0,.1,0,.13a.13.13,0,0,1-.15,0,.82.82,0,0,1-.19-.16l-.17-.2L9.46,5a.39.39,0,0,0-.15-.11h0c-.07,0-.1,0-.09.07a.27.27,0,0,0,0,.13l.09.13.3.36a1.54,1.54,0,0,0,.47.35,1.44,1.44,0,0,0,.4.12.57.57,0,0,1,.15,0,.31.31,0,0,1,.17.32.19.19,0,0,1-.06.12.13.13,0,0,0,0,.07.08.08,0,0,0,0,.07.32.32,0,0,0,.16.13h0A1,1,0,0,1,11.2,7a5.06,5.06,0,0,0,.5.24,2.35,2.35,0,0,0,.67.17h.23a.26.26,0,0,1,.14.06,1.29,1.29,0,0,0,.22.13l.07,0a.17.17,0,0,1,.07.23A.64.64,0,0,1,13,8a.75.75,0,0,0-.15.36c0,.12,0,.25,0,.37s0,.31-.06.46a4,4,0,0,1-.16.62l-.06.17a.92.92,0,0,1-.32.41,1.3,1.3,0,0,1-.47.22,3.26,3.26,0,0,1-1,.08,2,2,0,0,1-.55-.12c-.2-.07-.4-.16-.59-.25l-.4-.17L9,10.06,8.59,10a1.39,1.39,0,0,0-.3,0H8.23a1.6,1.6,0,0,1-.32.11,1.11,1.11,0,0,0-.33.13,1.4,1.4,0,0,1-.48.17.65.65,0,0,1-.27,0H6.77s0,0,0,.06a.27.27,0,0,0,.16.22l.09,0,0,0a.07.07,0,0,1,0,.09A.86.86,0,0,1,7,11a3.55,3.55,0,0,0-.23.35l-.06.09a.24.24,0,0,1-.14.09.72.72,0,0,1-.21,0,.55.55,0,0,1-.17,0,.89.89,0,0,0-.28-.07.17.17,0,0,0-.14.05,2.62,2.62,0,0,0-.21.27l-.24.32a1.41,1.41,0,0,1-.17.16l-.19.16a.74.74,0,0,1-.2.1l-.2.08-.12.07a.62.62,0,0,1-.35.12H4a.36.36,0,0,0-.25.08.55.55,0,0,0-.16.18.2.2,0,0,0,0,.16.09.09,0,0,0,.08.06.89.89,0,0,0,.52-.06.45.45,0,0,1,.16,0h.14a.34.34,0,0,0,.16-.05L5,12.81a2.58,2.58,0,0,1,.35-.19l.13,0a.47.47,0,0,0,.18-.07.53.53,0,0,1,.2-.08.3.3,0,0,1,.18,0l.34.13a1.63,1.63,0,0,0,.46.11H7a.71.71,0,0,0,.21,0l.36-.08.2-.07.12,0,.28-.09.16,0a3.46,3.46,0,0,1,.56,0,.75.75,0,0,1,.19,0l.24.07.17,0,.21.07.54.21a2.66,2.66,0,0,0,.38.12,2.34,2.34,0,0,0,.56.06h.19a.9.9,0,0,1,.3,0,2.52,2.52,0,0,1,.35.15,1.38,1.38,0,0,0,.39.13l.33.08a2.67,2.67,0,0,0,.49.08l.21,0,.06,0a.1.1,0,0,1,.05.15.28.28,0,0,1-.1.12.58.58,0,0,1-.18.08,3.3,3.3,0,0,1-.6.1l-.24,0-.07,0-.17.08a.42.42,0,0,1-.21,0h-.07l-.22-.05h-.06a.26.26,0,0,0-.27.26.17.17,0,0,0,0,0,.08.08,0,0,0,.06.07,1.63,1.63,0,0,0,.26,0l.52.07a1.66,1.66,0,0,0,.36,0,.54.54,0,0,0,.2-.05l.22-.1.16-.06a2.22,2.22,0,0,1,.38-.1.43.43,0,0,0,.12-.05l.14-.08h0a1.08,1.08,0,0,0,.37-.43,1.33,1.33,0,0,0,.06-.18.13.13,0,0,0,0-.05.42.42,0,0,0-.12-.23.75.75,0,0,0-.2-.14l-.42-.2-.05,0L13,12.48l-.12-.06-.05,0a.16.16,0,0,1,0-.25l.08-.07a2,2,0,0,0,.63-.65l.21-.34.07-.09a.32.32,0,0,0,.06-.11,2.35,2.35,0,0,0,.13-.6,6.19,6.19,0,0,0,0-.82c0-.1,0-.2,0-.31A.47.47,0,0,1,14,8.91a.15.15,0,0,1,.11-.07,1.45,1.45,0,0,0,.43-.15l.1,0h.18l.42,0a.52.52,0,0,0,.38-.23l0,0a.15.15,0,0,0,0-.19A.56.56,0,0,0,15.45,8.08ZM13.29,6.91a.32.32,0,0,1-.13.08L13,7l-.18,0a.57.57,0,0,0-.21.07.55.55,0,0,1-.23.07.31.31,0,0,1-.21-.06A.17.17,0,0,1,12.13,7a.23.23,0,0,1,.07-.16l.07-.07,0,0-.13.05a.31.31,0,0,1-.31-.05l-.06,0a1.19,1.19,0,0,1,0,.13.12.12,0,0,1-.16.09.61.61,0,0,1-.27-.15A1.82,1.82,0,0,1,11,6.39l0-.08a.17.17,0,0,1,.13-.23h.74a1.61,1.61,0,0,1,.4,0l.37.11.11,0a3,3,0,0,1,.53.33.24.24,0,0,1,.08.12A.17.17,0,0,1,13.29,6.91Z"/></svg>