<svg id="Layer_1" data-name="Layer 1" xmlns="http://www.w3.org/2000/svg" viewBox="0 0 19.2 19.2"><defs><style>.cls-1{fill:#fff;}.cls-2{fill:#153f9e;}.cls-3{fill:#282828;}</style></defs><title>All Icons</title><circle class="cls-1" cx="9.6" cy="9.6" r="8.88"/><path class="cls-2" d="M9.55,19.2a9.6,9.6,0,1,1,9.6-9.6A9.61,9.61,0,0,1,9.55,19.2ZM9.55,2A7.65,7.65,0,1,0,17.2,9.6,7.66,7.66,0,0,0,9.55,2Z"/><path class="cls-3" d="M15.39,10.69H13.48a.21.21,0,0,0-.18.09l-1.23,1.55a.44.44,0,0,1-.28.2.38.38,0,0,1-.42-.28l-.85-2.56-.3-.89,0-.07-.28.55L9.14,10.8a.37.37,0,0,1-.69,0L7.37,9.22l-.07-.1-.53.67-.58.73a.44.44,0,0,1-.38.18H3.65V10H5.58a.18.18,0,0,0,.16-.08L7,8.32a.45.45,0,0,1,.28-.19.38.38,0,0,1,.38.19l1,1.5.09.12.07-.12,1.1-2.21a.37.37,0,0,1,.65-.07.6.6,0,0,1,.06.13l1.19,3.56,0,.15.51-.63.49-.62a.45.45,0,0,1,.39-.19h2.14C15.39,10.2,15.39,10.44,15.39,10.69Z"/><path class="cls-3" d="M15.27,9.22H13.94c-.3,0-.6,0-.9,0a1,1,0,0,0-.72.41l-.19.24-.06-.14-.76-2.3a1.1,1.1,0,0,0-2-.18L8.7,8.41l0,.09-.41-.61a1.1,1.1,0,0,0-1.8-.07l-1,1.29a.26.26,0,0,1-.23.11H3.78a4,4,0,0,1,0-2,2.45,2.45,0,0,1,2-1.78,4.34,4.34,0,0,1,2.39.22c.44.16.85.37,1.27.56a.18.18,0,0,0,.19,0,6.47,6.47,0,0,1,2.2-.8A3.46,3.46,0,0,1,14,5.68a2.46,2.46,0,0,1,1.35,1.85A4.34,4.34,0,0,1,15.27,9.22Z"/><path class="cls-3" d="M14.37,11.42a8.28,8.28,0,0,1-.84,1.17,8.57,8.57,0,0,1-3.68,2.58.92.92,0,0,1-.67,0,8.51,8.51,0,0,1-3.51-2.39,9,9,0,0,1-.94-1.25l-.06-.1H5c.34,0,.67,0,1,0A1,1,0,0,0,6.73,11l.52-.65.44.65.2.3a1.1,1.1,0,0,0,1.87-.09c.1-.19.19-.38.3-.59l.2.58.42,1.26a1.06,1.06,0,0,0,.84.77,1.08,1.08,0,0,0,1.11-.43l1-1.29a.2.2,0,0,1,.18-.09Z"/></svg>