<svg id="Layer_1" data-name="Layer 1" xmlns="http://www.w3.org/2000/svg" viewBox="0 0 19.2 19.2"><defs><style>.cls-1{fill:#fff;}.cls-2{fill:#e08500;}.cls-3{fill:#282828;}</style></defs><title>All Icons</title><circle class="cls-1" cx="9.6" cy="9.6" r="8.49"/><path class="cls-2" d="M9.56,19.2a9.6,9.6,0,1,1,9.6-9.6A9.61,9.61,0,0,1,9.56,19.2ZM9.56,2A7.65,7.65,0,1,0,17.21,9.6,7.66,7.66,0,0,0,9.56,2Z"/><path class="cls-3" d="M6.32,8.51c0,.45,0,.9,0,1.38a6.56,6.56,0,0,1,3.29-.73,6.21,6.21,0,0,1,3.29.69V9.57c0-.5,0-1,0-1.51,0-.08,0-.2.08-.22.46-.16.93-.3,1.43-.46,0,.21,0,.43-.06.53a.68.68,0,0,0-.08.85.84.84,0,0,1-.07.93,1.9,1.9,0,0,0-.28,1.39c0,.08.1.14.16.21a.67.67,0,0,0,.12-.23c0-.26,0-.51.06-.82.22.39,0,.73,0,1.14.4-.32.21-.75.38-1.08a6.1,6.1,0,0,1,0,.73c0,.12-.05.24-.05.36s.07.11.1.17.12-.07.14-.12a1.93,1.93,0,0,0,.07-.32c.06.14-.09.4.26.38a5.33,5.33,0,0,0-.12-2.28,1,1,0,0,1,0-.49A.81.81,0,0,0,14.93,8a.88.88,0,0,1,0-.87l-5-1.59a.86.86,0,0,0-.56,0L4.46,7.11l-.23.09,1.48.47C6.32,7.87,6.32,7.87,6.32,8.51Z"/><path class="cls-3" d="M11.8,10.13c-.7-.17-1.43-.25-2-.34s-1.08.07-1.51.14a3.42,3.42,0,0,0-1.8.65.34.34,0,0,0-.14.37,3.28,3.28,0,0,0,6.47-.05.33.33,0,0,0-.11-.27A3.67,3.67,0,0,0,11.8,10.13Z"/></svg>