<svg id="Layer_1" data-name="Layer 1" xmlns="http://www.w3.org/2000/svg" viewBox="0 0 19.2 19.2"><defs><style>.cls-1{fill:#fff;}.cls-2{fill:#282828;}.cls-3{fill:#992b7a;}</style></defs><title>All Icons</title><circle class="cls-1" cx="9.6" cy="9.6" r="8.88"/><path class="cls-2" d="M11.56,8.83a2.39,2.39,0,0,0,2.63-.65,2.11,2.11,0,0,0,.38-3h0l0,0h0a2.12,2.12,0,0,0-3,.38,2.39,2.39,0,0,0-.65,2.63c-.08.49-.75,1-1.36,1.37A2.17,2.17,0,0,1,8.43,7.72,1.4,1.4,0,0,0,8,6.58l-.11-.1L5.64,4.71l-.21.21L7.9,7.23l-.27.27L5.25,5.11,5,5.33,7.41,7.72l-.23.23L4.8,5.56l-.2.2L7,8.13,6.7,8.4,4.4,6l-.23.23L6.06,8.56l.06.06a1.39,1.39,0,0,0,1,.34h0a2.24,2.24,0,0,1,1.8,1l-3.5,3.5h0a.55.55,0,0,0,0,.78l.06.06a.55.55,0,0,0,.78,0h0l3.4-3.4L13,14.32h0a.54.54,0,0,0,.77-.77h0L10.27,10C10.62,9.48,11.11,8.9,11.56,8.83Zm-.29-1.64a2.85,2.85,0,0,1,.09-.49c0-.09.06-.18.09-.27a1.55,1.55,0,0,1,.15-.27A1.92,1.92,0,0,1,12,5.73a2.59,2.59,0,0,1,.42-.27,1.89,1.89,0,0,1,.32-.14l.13,0-.1.09-.25.23a6.12,6.12,0,0,0-.68.72,1.38,1.38,0,0,0-.13.22c0,.08-.08.16-.11.24s-.13.31-.17.44-.09.24-.11.32a.25.25,0,0,0,0,.13.24.24,0,0,1,0-.13A1.7,1.7,0,0,1,11.26,7.19Z"/><path class="cls-3" d="M9.6,19.2a9.6,9.6,0,1,1,9.6-9.6A9.61,9.61,0,0,1,9.6,19.2ZM9.6,2A7.65,7.65,0,1,0,17.25,9.6,7.66,7.66,0,0,0,9.6,2Z"/></svg>