<svg id="Layer_1" data-name="Layer 1" xmlns="http://www.w3.org/2000/svg" viewBox="0 0 19.2 19.2"><defs><style>.cls-1{fill:#fff;}.cls-2{fill:#23a8af;}.cls-3{fill:#282828;}</style></defs><title>All Icons</title><circle class="cls-1" cx="9.6" cy="9.6" r="8.49"/><path class="cls-2" d="M9.56,19.2a9.6,9.6,0,1,1,9.6-9.6A9.61,9.61,0,0,1,9.56,19.2ZM9.56,2A7.65,7.65,0,1,0,17.21,9.6,7.66,7.66,0,0,0,9.56,2Z"/><path class="cls-3" d="M4.66,14.24h9.81l-4.36-4.14V7.23h2.23a.55.55,0,0,0,0-1.09H10.11V4.67A.55.55,0,1,0,9,4.67V6.14H6.78a.55.55,0,1,0,0,1.09H9v2.88Z"/></svg>