<svg id="Layer_1" data-name="Layer 1" xmlns="http://www.w3.org/2000/svg" viewBox="0 0 19.2 19.2"><defs><style>.cls-1{fill:#fff;}.cls-2{fill:#992b7a;}.cls-3{fill:#282828;}</style></defs><title>All Icons</title><circle class="cls-1" cx="9.6" cy="9.6" r="8.88"/><path class="cls-2" d="M9.6,19.2a9.6,9.6,0,1,1,9.6-9.6A9.61,9.61,0,0,1,9.6,19.2ZM9.6,2A7.65,7.65,0,1,0,17.25,9.6,7.66,7.66,0,0,0,9.6,2Z"/><path class="cls-3" d="M10.35,5.12a.23.23,0,0,0,0,0,.24.24,0,0,0-.06-.17L9.85,4V3.59a.25.25,0,0,0-.5,0V4L8.88,5h0a.25.25,0,0,0,0,.1A15.65,15.65,0,0,1,8.7,7.31h1.8A15.79,15.79,0,0,1,10.35,5.12Z"/><path class="cls-3" d="M14,14.84l-.29-.4c-.48-.66-1-1.37-1.47-2.18h.32a.25.25,0,1,0,0-.5H6.88a.25.25,0,1,0,0,.5h.07c-.48.81-1,1.53-1.47,2.18l-.29.4a.25.25,0,0,0,.2.39h2A.25.25,0,0,0,7.63,15a1.91,1.91,0,0,1,0-.22,2,2,0,0,1,4,0,2,2,0,0,1,0,.22.25.25,0,0,0,.25.28h2a.25.25,0,0,0,.2-.39Z"/><path class="cls-3" d="M8.68,11.27,9.12,10a.25.25,0,0,1,.23-.17h.5a.25.25,0,0,1,.23.17l.44,1.32h1.19a13,13,0,0,1-1-3h.15a.25.25,0,1,0,0-.5H8.36a.25.25,0,1,0,0,.5h.15a13,13,0,0,1-1,3H8.68Z"/></svg>