<svg id="Layer_1" data-name="Layer 1" xmlns="http://www.w3.org/2000/svg" viewBox="0 0 19.2 19.2"><defs><style>.cls-1{fill:#fff;}.cls-2{fill:#23a8af;}.cls-3{fill:#282828;}</style></defs><title>All Icons</title><circle class="cls-1" cx="9.6" cy="9.6" r="8.19"/><path class="cls-2" d="M9.6,19.2a9.6,9.6,0,1,1,9.6-9.6A9.61,9.61,0,0,1,9.6,19.2ZM9.6,2A7.65,7.65,0,1,0,17.25,9.6,7.66,7.66,0,0,0,9.6,2Z"/><path class="cls-3" d="M9.68,3.47h0c0,.06,0,.09,0,.13A.83.83,0,0,0,10.48,5a.22.22,0,0,1,.09,0,.4.4,0,0,1,0,.09A.89.89,0,0,1,10,5.4c-.11,0-.15.06-.15.15a.45.45,0,0,0,.06.18.26.26,0,0,1,0,.33c-.08.12-.08.13,0,.23a.39.39,0,0,1,0,.62c-.13.14-.14.22,0,.35a2.09,2.09,0,0,0,.43.31,13.26,13.26,0,0,1,1.67,1A5.29,5.29,0,0,1,13.5,10.1a3.23,3.23,0,0,1,.45,2,4.32,4.32,0,0,1-.27,1.11c-.06.16-.05.18.12.18h.37a.14.14,0,0,1,.1.07s0,.08,0,.12a.27.27,0,0,1-.08.07l-.35.3H5.65l-.37-.31c-.05,0-.12-.08-.09-.17s.1-.07.16-.07h.37c.08,0,.11,0,.08-.12s-.07-.17-.1-.26a3.37,3.37,0,0,1,.42-3.19A5.57,5.57,0,0,1,7.43,8.56a13.82,13.82,0,0,1,1.68-1,2,2,0,0,0,.42-.31c.13-.12.12-.2,0-.32a.39.39,0,0,1,0-.64.13.13,0,0,0,0-.2.26.26,0,0,1,0-.37.23.23,0,0,0-.11-.37A1,1,0,0,1,9.57,3.5Z"/></svg>