<?xml version="1.0" encoding="utf-8"?>
<!-- Generator: Adobe Illustrator 16.0.4, SVG Export Plug-In . SVG Version: 6.00 Build 0)  -->
<!DOCTYPE svg PUBLIC "-//W3C//DTD SVG 1.1//EN" "http://www.w3.org/Graphics/SVG/1.1/DTD/svg11.dtd">
<svg version="1.1" id="Layer_1" xmlns="http://www.w3.org/2000/svg" xmlns:xlink="http://www.w3.org/1999/xlink" x="0px" y="0px"
	 width="88px" height="83px" viewBox="0 0 88 83" enable-background="new 0 0 88 83" xml:space="preserve">
<g>
	<g>
		<path fill-rule="evenodd" clip-rule="evenodd" fill="#FFFFFF" d="M14.225,60.104c0.182-0.915,0.361-1.83,0.542-2.746
			c0.073-0.358,0.149-0.713,0.222-1.067c0.182-0.915,0.358-1.83,0.539-2.745c0.074-0.354,0.148-0.713,0.225-1.068
			c0.179-0.915,0.359-1.83,0.539-2.745c0.072-0.354,0.148-0.713,0.223-1.067c0.179-0.915,0.359-1.83,0.539-2.746
			c0.074-0.354,0.148-0.709,0.223-1.065c0.181-0.915,0.36-1.83,0.539-2.745c0.076-0.356,0.148-0.711,0.227-1.067
			c0.178-0.915,0.358-1.831,0.537-2.746c0.073-0.356,0.15-0.711,0.225-1.065c0.178-0.915,0.359-1.83,0.537-2.748
			c0.075-0.356,0.15-0.711,0.224-1.065c0.181-0.916,0.36-1.831,0.538-2.748c0.076-0.354,0.15-0.71,0.227-1.066
			c0.18-0.915,0.359-1.831,0.536-2.747c0.076-0.355,0.15-0.71,0.227-1.065c0.178-0.917,0.356-1.831,0.536-2.747
			c0.076-0.355,0.15-0.71,0.225-1.065c0.18-0.917,0.361-1.832,0.538-2.747c0.074-0.355,0.15-0.712,0.227-1.068
			c0.177-0.915,0.356-1.83,0.536-2.748c0.076-0.354,0.15-0.71,0.225-1.065c0.182-0.915,0.36-1.83,0.54-2.746
			c0.191-0.455,0.388-0.909,0.579-1.36c0.256-0.247,0.512-0.492,0.767-0.738c0.456-0.171,0.909-0.343,1.362-0.515
			c0.707-0.021,1.414-0.042,2.12-0.062c0.263,0.09,0.524,0.083,0.786,0.019c0.756,0.055,1.512,0.081,2.264-0.019
			c0.262,0.09,0.524,0.083,0.787,0.019c0.756,0.055,1.51,0.081,2.264-0.019c0.262,0.09,0.523,0.083,0.787,0.019
			c0.754,0.055,1.51,0.081,2.263-0.019c0.261,0.09,0.523,0.083,0.788,0.019c0.754,0.055,1.508,0.081,2.263-0.019
			c0.26,0.09,0.523,0.083,0.787,0.019c0.755,0.055,1.509,0.081,2.263-0.019c0.26,0.09,0.524,0.083,0.788,0.019
			c0.755,0.055,1.509,0.081,2.263-0.019c0.26,0.09,0.523,0.083,0.787,0.019c0.755,0.055,1.51,0.081,2.264-0.019
			c0.26,0.09,0.523,0.083,0.787,0.019c0.755,0.055,1.507,0.081,2.262-0.019c0.262,0.09,0.525,0.083,0.787,0.019
			c0.754,0.055,1.511,0.081,2.264-0.019c0.262,0.09,0.525,0.083,0.787,0.019c0.754,0.055,1.509,0.081,2.261-0.019
			c0.265,0.09,0.523,0.083,0.79,0.019c0.705,0.081,1.43-0.015,2.121,0.221c0.154,0.095,0.309,0.189,0.463,0.284
			c0.315,0.31,0.633,0.621,0.95,0.932c0.099,0.156,0.194,0.312,0.291,0.466c0.15,0.609,0.297,1.218,0.442,1.826
			c-0.028,0.225,0.029,0.428,0.153,0.614c-0.005,0.627,0.204,1.217,0.319,1.824c0.06,0.26,0.119,0.521,0.18,0.779
			c0.099,0.617,0.156,1.241,0.369,1.833c0.039,0.255-0.018,0.528,0.166,0.752c0.023,0.625,0.178,1.224,0.338,1.823
			c-0.028,0.224,0.029,0.426,0.153,0.612c-0.005,0.628,0.204,1.218,0.321,1.826c0.058,0.259,0.115,0.518,0.176,0.78
			c0.121,0.61,0.246,1.222,0.368,1.832c0.042,0.255-0.013,0.53,0.169,0.752c0.025,0.623,0.178,1.225,0.338,1.821
			c-0.028,0.224,0.025,0.426,0.152,0.613c-0.002,0.628,0.205,1.219,0.32,1.825c0.06,0.261,0.117,0.521,0.18,0.78
			c0.119,0.612,0.242,1.222,0.366,1.834c0.044,0.253-0.015,0.528,0.165,0.75c0.029,0.625,0.18,1.224,0.342,1.824
			c-0.028,0.223,0.027,0.425,0.15,0.612c-0.002,0.629,0.207,1.218,0.322,1.824c0.058,0.26,0.117,0.52,0.177,0.781
			c0.124,0.61,0.245,1.222,0.369,1.832c0.041,0.256-0.015,0.528,0.167,0.755c0.024,0.622,0.178,1.22,0.34,1.819
			c-0.029,0.226,0.027,0.427,0.15,0.612c-0.004,0.629,0.204,1.221,0.322,1.826c0.057,0.26,0.117,0.52,0.177,0.779
			c0.122,0.612,0.245,1.225,0.369,1.835c0.043,0.251-0.017,0.527,0.165,0.75c0.028,0.622,0.177,1.225,0.342,1.822
			c-0.029,0.223,0.025,0.429,0.15,0.614c-0.002,0.626,0.208,1.216,0.319,1.821c0.058,0.265,0.118,0.52,0.178,0.779
			c0.121,0.614,0.245,1.229,0.37,1.839c0.046,0.251-0.016,0.527,0.166,0.75c0.028,0.623,0.177,1.225,0.342,1.822
			c-0.029,0.223,0.022,0.429,0.148,0.614c-0.004,0.627,0.206,1.216,0.321,1.822c0.058,0.26,0.118,0.523,0.177,0.779
			c0.124,0.614,0.246,1.224,0.369,1.838c0.044,0.252-0.014,0.528,0.168,0.751c0.024,0.622,0.177,1.22,0.338,1.821
			c-0.025,0.223,0.024,0.425,0.152,0.61c-0.004,0.631,0.206,1.221,0.321,1.826c0.058,0.26,0.117,0.52,0.177,0.779
			c0.066,0.659,0.281,1.307,0.203,1.982c-0.137,0.4-0.271,0.805-0.404,1.208c-0.347,0.47-0.775,0.85-1.229,1.204
			c-0.406,0.119-0.814,0.239-1.219,0.358c-0.707,0.013-1.412,0.029-2.119,0.046c-0.26-0.083-0.521-0.079-0.785-0.017
			c-0.756-0.054-1.51-0.074-2.265,0.017c-0.26-0.083-0.521-0.079-0.785-0.017C66.27,74,65.514,73.979,64.759,74.07
			c-0.26-0.083-0.521-0.079-0.785-0.017c-0.757-0.054-1.511-0.074-2.265,0.017c-0.26-0.083-0.521-0.079-0.786-0.017
			C60.169,74,59.412,73.979,58.66,74.07c-0.262-0.083-0.523-0.079-0.785-0.017c-0.757-0.054-1.512-0.074-2.268,0.017
			c-0.258-0.083-0.521-0.079-0.783-0.017C54.07,74,53.313,73.979,52.559,74.07c-0.26-0.083-0.523-0.079-0.785-0.017
			c-0.756-0.054-1.511-0.074-2.266,0.017c-0.26-0.083-0.521-0.079-0.785-0.017C47.969,74,47.212,73.979,46.46,74.07
			c-0.262-0.083-0.524-0.079-0.788-0.017c-0.756-0.054-1.508-0.074-2.265,0.017c-0.26-0.083-0.521-0.079-0.785-0.017
			c-0.755-0.054-1.511-0.074-2.263,0.017c-0.262-0.083-0.524-0.079-0.787-0.017c-0.756-0.054-1.51-0.074-2.264,0.017
			c-0.262-0.083-0.523-0.079-0.785-0.017c-0.756-0.054-1.512-0.074-2.266,0.017c-0.261-0.083-0.523-0.079-0.785-0.017
			c-0.755-0.054-1.51-0.074-2.265,0.017c-0.261-0.083-0.522-0.079-0.785-0.017c-0.755-0.054-1.512-0.074-2.265,0.017
			c-0.262-0.083-0.523-0.079-0.787-0.017c-0.754-0.054-1.509-0.074-2.263,0.017c-0.262-0.083-0.523-0.079-0.786-0.017
			c-0.756-0.054-1.51-0.074-2.265,0.017c-0.261-0.083-0.523-0.079-0.787-0.017c-0.755-0.054-1.509-0.074-2.263,0.017
			c-0.262-0.083-0.524-0.079-0.786-0.017c-0.757-0.054-1.511-0.074-2.265,0.017c-0.258-0.087-0.52-0.07-0.783-0.033
			c-0.596-0.054-1.124-0.31-1.649-0.565c-0.155-0.14-0.312-0.28-0.466-0.42c-0.25-0.404-0.496-0.808-0.748-1.216
			c-0.035-0.202,0.006-0.425-0.15-0.603c-0.054-0.832,0.266-1.62,0.317-2.437c0.074-0.358,0.15-0.713,0.223-1.067
			c0.181-0.915,0.36-1.83,0.54-2.745c0.074-0.358,0.15-0.713,0.223-1.067c0.182-0.916,0.36-1.831,0.54-2.75
			C14.076,60.816,14.15,60.458,14.225,60.104z M42.016,35.015c-1.276-0.105-1.276-0.105-1.216,1.152
			c0.007,0.253,0.011,0.509,0.018,0.761c-0.007,0.767-0.014,1.527-0.021,2.29c-0.116,0.258-0.042,0.509,0.018,0.761
			c-0.005,0.763-0.01,1.525-0.014,2.287c0.007,0.256,0.011,0.512,0.018,0.763c-0.007,0.763-0.011,1.525-0.018,2.288
			c0.007,0.256,0.011,0.51,0.018,0.763c-0.014,0.373,0.003,0.748-0.046,1.113c-0.107,0.787,0.251,0.969,0.937,0.779
			c0.209,0.086,0.423,0.082,0.638,0.017c0.754,0.058,1.507,0.078,2.259-0.017c0.263,0.091,0.526,0.086,0.79,0.017
			c2.312,0.062,1.785,0.317,1.83-1.687c0-0.024-0.004-0.05-0.006-0.074c-0.007-0.251-0.011-0.507-0.02-0.763
			c0.009-0.763,0.013-1.523,0.02-2.286c0.018-0.171,0.072-0.348-0.12-0.461c0.167-0.855,0.169-1.722,0.116-2.587
			c-0.005-0.256-0.011-0.512-0.018-0.765c0.007-0.761,0.013-1.523,0.018-2.286c-0.005-0.255-0.011-0.511-0.018-0.763
			c0.118-1.445,0.118-1.445-1.348-1.292c-0.26-0.081-0.523-0.079-0.789-0.015c-0.805-0.045-1.609-0.078-2.414,0.022
			C42.438,34.953,42.229,34.957,42.016,35.015z M40.798,17.867c-0.009,0.214-0.103,0.446,0.117,0.619
			c-0.279,0.799-0.091,1.619-0.117,2.431c0.006,0.253,0.011,0.507,0.016,0.763c-0.003,0.762-0.01,1.523-0.014,2.286
			c0.007,0.255,0.011,0.508,0.018,0.764c-0.007,0.763-0.011,1.524-0.018,2.287c0.007,0.254,0.011,0.508,0.018,0.764
			c-0.13,0.532,0.023,0.797,0.624,0.732c0.441-0.047,0.889-0.041,1.333-0.06c0.262,0.09,0.526,0.083,0.792,0.018
			c0.752,0.053,1.506,0.075,2.259-0.018c1.531,0.211,1.634,0.115,1.377-1.287c0.006-0.763,0.01-1.525,0.017-2.289
			c0.117-0.255,0.041-0.509-0.017-0.762c0.004-0.761,0.008-1.524,0.013-2.287c-0.005-0.253-0.011-0.508-0.018-0.763
			c0.007-0.763,0.013-1.525,0.018-2.288c-0.005-0.253-0.011-0.508-0.018-0.762c-0.014-0.832,0.229-1.678-0.129-2.491
			c-0.258-0.124-0.52-0.087-0.785-0.034c-0.807-0.051-1.611-0.072-2.416,0.017c-0.209-0.077-0.423-0.076-0.635-0.017
			c-0.608-0.011-1.219,0.002-1.824-0.042c-0.521-0.037-0.664,0.19-0.635,0.668C40.807,16.699,40.789,17.283,40.798,17.867z
			 M46.436,67.495c0.622,0.189,0.93,0.021,0.764-0.677c0.005-0.763,0.011-1.525,0.016-2.287c-0.005-0.256-0.011-0.508-0.018-0.763
			c0.007-0.763,0.015-1.525,0.021-2.288c-0.007-0.256-0.011-0.507-0.02-0.763c0.005-0.763,0.011-1.525,0.016-2.288
			c-0.005-0.256-0.011-0.507-0.018-0.763c0.007-0.763,0.013-1.525,0.021-2.288c-0.105-0.284,0.336-0.779-0.328-0.845
			c-0.804-0.05-1.609-0.078-2.414,0.017c-0.21-0.078-0.42-0.074-0.633-0.017c-0.756-0.058-1.51-0.074-2.265,0.013
			c-0.622-0.182-0.93-0.013-0.766,0.684c-0.003,0.763-0.01,1.525-0.014,2.288c0.007,0.252,0.011,0.507,0.018,0.763
			c-0.007,0.763-0.014,1.525-0.02,2.288c0.006,0.251,0.011,0.507,0.016,0.763c-0.003,0.763-0.01,1.525-0.014,2.283
			c0.007,0.256,0.011,0.512,0.018,0.768c-0.007,0.762-0.014,1.524-0.02,2.287c0.103,0.28-0.343,0.779,0.327,0.842
			c0.805,0.049,1.61,0.082,2.412-0.025c0.208,0.087,0.422,0.083,0.635,0.021C44.926,67.569,45.681,67.586,46.436,67.495z"/>
	</g>
</g>
</svg>
