<?xml version="1.0" encoding="utf-8"?>
<!-- Generator: Adobe Illustrator 16.0.4, SVG Export Plug-In . SVG Version: 6.00 Build 0)  -->
<!DOCTYPE svg PUBLIC "-//W3C//DTD SVG 1.1//EN" "http://www.w3.org/Graphics/SVG/1.1/DTD/svg11.dtd">
<svg version="1.1" id="Layer_1" xmlns="http://www.w3.org/2000/svg" xmlns:xlink="http://www.w3.org/1999/xlink" x="0px" y="0px"
	 width="30.221px" height="24.345px" viewBox="0 0 30.221 24.345" enable-background="new 0 0 30.221 24.345" xml:space="preserve">
<g>
	<g>
		<path fill-rule="evenodd" clip-rule="evenodd" fill="#364148" d="M22.56,15.617c-0.163,0.058-0.292,0.101-0.421,0.148
			c-0.698,0.26-1.397,0.522-2.1,0.78c-0.453,0.167-0.844,0.008-0.99-0.395c-0.146-0.398,0.055-0.769,0.513-0.94
			c1.261-0.471,2.52-0.94,3.78-1.409c0.508-0.188,0.829-0.064,1.08,0.418c0.647,1.254,1.291,2.51,1.937,3.765
			c0.209,0.411,0.094,0.827-0.271,1.018c-0.371,0.192-0.774,0.051-0.99-0.361c-0.407-0.785-0.811-1.574-1.235-2.404
			c-0.057,0.109-0.093,0.188-0.131,0.262c-1.469,2.946-3.794,4.807-7.034,5.442c-3.816,0.751-7.796-1.019-9.902-4.346
			c-0.568-0.893-0.991-1.85-1.252-2.876c-0.111-0.428,0.086-0.79,0.491-0.906c0.379-0.11,0.755,0.101,0.868,0.518
			c0.378,1.404,1.036,2.657,2.039,3.719c4.073,4.317,11.031,3.154,13.544-2.239C22.508,15.76,22.525,15.708,22.56,15.617z"/>
		<path fill-rule="evenodd" clip-rule="evenodd" fill="#364148" d="M7.514,8.367c0.908-0.25,1.771-0.488,2.633-0.721
			c0.423-0.115,0.796,0.091,0.908,0.488c0.109,0.394-0.122,0.763-0.568,0.887C9.45,9.311,8.415,9.593,7.378,9.879
			c-0.252,0.068-0.506,0.139-0.758,0.206c-0.486,0.13-0.763,0.008-0.982-0.45c-0.474-0.982-0.94-1.969-1.41-2.953
			c-0.13-0.274-0.267-0.548-0.389-0.823c-0.183-0.4-0.042-0.807,0.333-0.979c0.36-0.166,0.755-0.019,0.941,0.37
			c0.349,0.716,0.688,1.437,1.03,2.153c0.037,0.073,0.073,0.145,0.104,0.202C6.577,7.098,6.871,6.572,7.235,6.1
			c2.137-2.75,4.965-4.057,8.437-3.844c3.983,0.246,7.445,3.076,8.579,6.922c0.125,0.416-0.067,0.799-0.464,0.921
			c-0.372,0.116-0.752-0.089-0.884-0.498c-0.509-1.587-1.373-2.935-2.646-4.02C16.242,2.154,9.924,3.454,7.588,8.191
			C7.564,8.235,7.55,8.281,7.514,8.367z"/>
	</g>
</g>
</svg>
