<?xml version="1.0" encoding="utf-8"?>
<!-- Generator: Adobe Illustrator 16.0.4, SVG Export Plug-In . SVG Version: 6.00 Build 0)  -->
<!DOCTYPE svg PUBLIC "-//W3C//DTD SVG 1.1//EN" "http://www.w3.org/Graphics/SVG/1.1/DTD/svg11.dtd">
<svg version="1.1" id="Layer_1" xmlns="http://www.w3.org/2000/svg" xmlns:xlink="http://www.w3.org/1999/xlink" x="0px" y="0px"
	 width="30.221px" height="24.345px" viewBox="0 0 30.221 24.345" enable-background="new 0 0 30.221 24.345" xml:space="preserve">
<g>
	<g>
		<path fill-rule="evenodd" clip-rule="evenodd" fill="#364148" d="M0,17.721c0.041-0.055,0.08-0.109,0.121-0.161
			c0.18-0.219,0.407-0.314,0.681-0.224c0.277,0.094,0.436,0.297,0.437,0.599c0.004,0.601,0.002,1.199,0.002,1.8
			c0,1.002,0.01,2.004-0.007,3.008c-0.005,0.273,0.051,0.361,0.346,0.359c1.603-0.016,3.206-0.008,4.807-0.008
			c0.398,0,0.637,0.169,0.707,0.488c0.085,0.394-0.171,0.75-0.573,0.75c-1.976,0.008-3.951,0.005-5.928,0.005
			c-0.295,0-0.447-0.205-0.592-0.419C0,21.853,0,19.788,0,17.721z"/>
		<path fill-rule="evenodd" clip-rule="evenodd" fill="#364148" d="M0,0.427C0.18,0.096,0.457-0.002,0.828,0
			c1.819,0.014,3.638,0.005,5.456,0.008c0.386,0,0.66,0.251,0.673,0.596C6.972,0.955,6.687,1.23,6.294,1.247
			C6.225,1.25,6.156,1.248,6.087,1.248c-1.495,0-2.989,0.01-4.484-0.008c-0.302-0.003-0.37,0.077-0.366,0.372
			c0.016,1.563,0.006,3.126,0.006,4.689c0,0.454-0.132,0.701-0.424,0.788C0.489,7.187,0.253,7.069,0,6.684C0,4.598,0,2.513,0,0.427z
			"/>
		<path fill-rule="evenodd" clip-rule="evenodd" fill="#364148" d="M30.221,6.565c-0.188,0.232-0.384,0.456-0.729,0.387
			c-0.329-0.066-0.51-0.311-0.511-0.689c-0.002-1.563-0.006-3.126,0.005-4.689c0.003-0.249-0.043-0.333-0.316-0.33
			c-1.592,0.015-3.186,0.009-4.777,0.006c-0.543-0.001-0.862-0.47-0.629-0.911c0.117-0.219,0.305-0.328,0.553-0.329
			c1.927,0,3.854,0.001,5.78-0.002c0.31,0,0.476,0.19,0.624,0.418C30.221,2.473,30.221,4.519,30.221,6.565z"/>
		<path fill-rule="evenodd" clip-rule="evenodd" fill="#364148" d="M30.221,23.918c-0.181,0.328-0.455,0.43-0.827,0.427
			c-1.768-0.016-3.536-0.008-5.305-0.008c-0.461,0-0.745-0.234-0.747-0.606c-0.001-0.393,0.284-0.635,0.759-0.635
			c1.513,0,3.025-0.005,4.538,0.006c0.258,0.002,0.349-0.047,0.347-0.331c-0.016-1.532-0.003-3.064-0.011-4.597
			c-0.003-0.356,0.03-0.674,0.414-0.825c0.291-0.111,0.523-0.008,0.832,0.372C30.221,19.788,30.221,21.853,30.221,23.918z"/>
		<path fill-rule="evenodd" clip-rule="evenodd" fill="#364148" d="M15.149,18.312c-2.822,0-5.646,0-8.47,0
			c-0.592,0-0.809-0.205-0.809-0.791c-0.003-3.699-0.003-7.397,0-11.096c0-0.576,0.23-0.795,0.812-0.795c5.646,0,11.293,0,16.938,0
			c0.577,0,0.809,0.228,0.809,0.797c0,3.699,0,7.397,0,11.097c0,0.564-0.223,0.788-0.783,0.788
			C20.814,18.312,17.982,18.312,15.149,18.312z M15.172,17.069c2.558,0,5.113-0.006,7.671,0.008c0.292,0,0.35-0.084,0.35-0.362
			c-0.011-3.167-0.011-6.333-0.001-9.499c0-0.261-0.055-0.352-0.337-0.352C17.722,6.874,12.588,6.873,7.455,6.866
			c-0.251,0-0.334,0.051-0.334,0.321c0.011,3.186,0.012,6.372,0,9.557c-0.001,0.291,0.1,0.33,0.352,0.33
			C10.039,17.066,12.605,17.069,15.172,17.069z"/>
	</g>
</g>
</svg>
