<?xml version="1.0" encoding="utf-8"?>
<!-- Generator: Adobe Illustrator 16.0.4, SVG Export Plug-In . SVG Version: 6.00 Build 0)  -->
<!DOCTYPE svg PUBLIC "-//W3C//DTD SVG 1.1//EN" "http://www.w3.org/Graphics/SVG/1.1/DTD/svg11.dtd">
<svg version="1.1" id="Layer_1" xmlns="http://www.w3.org/2000/svg" xmlns:xlink="http://www.w3.org/1999/xlink" x="0px" y="0px"
	 width="88px" height="83px" viewBox="0 0 88 83" enable-background="new 0 0 88 83" xml:space="preserve">
<g>
	<path fill="#FFFFFF" d="M43.258,52.933c-1.977-0.004-3.732-0.004-5.738-0.006c0.01,0.053,0.028,0.118,0.043,0.176h5.688
		C43.253,53.048,43.256,52.987,43.258,52.933z"/>
	<path fill="#FFFFFF" d="M51.404,52.976c-1.877-0.006-3.658-0.012-5.576-0.018c0.004,0.043,0.012,0.098,0.017,0.145h5.56
		C51.404,53.061,51.404,53.017,51.404,52.976z"/>
	<path fill="#FFFFFF" d="M34.998,52.978c-1.939,0-3.717-0.002-5.535-0.002c0,0.041,0.001,0.086,0.002,0.127h5.527
		C34.994,53.063,34.997,53.015,34.998,52.978z"/>
	<path fill="#FFFFFF" d="M26.789,52.872c-1.938,0-3.695,0.001-5.711,0.001c0.015,0.072,0.036,0.152,0.056,0.229h5.65
		C26.786,53.026,26.788,52.947,26.789,52.872z"/>
	<path fill="#FFFFFF" d="M67.846,52.981c-1.896-0.002-3.668-0.002-5.481-0.006c0,0.041,0,0.086,0.001,0.127h5.479
		C67.845,53.063,67.846,53.021,67.846,52.981z"/>
	<path fill="#FFFFFF" d="M70.485,52.926c0.005,0.052,0.015,0.118,0.022,0.177h10.666v14.67H7.82v-14.67h10.695
		c0-0.018,0-0.037,0-0.055c-3.695-0.003-7.313-0.006-10.894-0.009c0,6.197-0.004,8.744,0,14.966
		c24.64-0.002,49.24-0.004,73.737-0.007c0.006-6.235,0.011-8.808,0.019-15.077C77.824,52.924,74.223,52.925,70.485,52.926z"/>
	<path fill="#FFFFFF" d="M59.662,52.996c-1.938,0-3.714,0.003-5.515,0.003c-0.002,0.015-0.006,0.056-0.009,0.104h5.521
		C59.66,53.068,59.661,53.03,59.662,52.996z"/>
	<path fill="#FFFFFF" d="M7.82,67.772h73.354v-14.67H70.508c0.027,0.212,0.062,0.453,0.062,0.703c0.01,2.754,0.008,5.51,0.002,8.267
		c-0.001,1.098-0.498,1.683-1.396,1.678c-0.885-0.004-1.356-0.583-1.365-1.703c-0.008-1.229-0.008-2.46,0-3.688
		c0.009-1.798,0.028-3.593,0.034-5.256h-5.479c0.003,1.053,0.013,2.182-0.007,3.312c-0.004,0.367-0.017,0.776-0.173,1.089
		c-0.309,0.605-0.848,0.887-1.543,0.721c-0.686-0.164-1.049-0.646-1.049-1.334c0.002-1.317,0.044-2.631,0.066-3.787h-5.521
		c-0.003,0.056-0.006,0.123-0.006,0.193c0,2.998,0.01,5.994-0.008,8.99c-0.006,0.859-0.6,1.463-1.375,1.464
		c-0.81,0.004-1.342-0.541-1.367-1.444c-0.022-0.586-0.012-1.179-0.012-1.766c0.012-2.519,0.023-5.037,0.033-7.438h-5.56
		c0.029,0.248,0.071,0.529,0.073,0.818c0.014,0.991,0.03,1.982-0.009,2.973c-0.03,0.828-0.61,1.367-1.374,1.373
		c-0.777,0.004-1.316-0.517-1.386-1.363c-0.024-0.319-0.017-0.641-0.007-0.965c0.035-0.972,0.072-1.938,0.108-2.836h-5.688
		c0.055,0.218,0.124,0.457,0.124,0.705c0.014,2.76,0.003,5.515,0.011,8.27c0.004,0.621-0.111,1.178-0.71,1.501
		c-0.998,0.541-2.04-0.149-2.051-1.379c-0.015-2.488-0.011-4.976-0.005-7.468c0.004-0.583,0.042-1.156,0.061-1.629h-5.527
		c0.01,1.133,0.058,2.345-0.012,3.553c-0.021,0.455-0.238,1.033-0.572,1.304c-0.301,0.244-0.92,0.287-1.33,0.173
		c-0.573-0.162-0.857-0.693-0.844-1.322c0.024-1.248,0.051-2.498,0.077-3.707h-5.65c0.056,0.22,0.116,0.449,0.116,0.685
		c0.016,2.812,0.024,5.618,0.002,8.429c-0.009,1.246-1.183,1.989-2.119,1.291c-0.367-0.275-0.612-0.945-0.617-1.437
		c-0.045-3.052-0.008-6.109,0-8.968H7.82V67.772z"/>
	<polygon fill="#FFFFFF" points="17.093,30.951 33.504,30.951 33.504,26.06 16.857,26.06 15.457,28.315 	"/>
	<polygon fill="#FFFFFF" points="17.093,30.951 15.457,30.951 15.457,28.315 15.457,26.06 16.857,26.06 22.229,17.407 6.429,28.315 
		22.229,39.226 	"/>
	<polygon fill="#FFFFFF" points="15.457,30.951 17.093,30.951 15.457,28.315 	"/>
	<polygon fill="#FFFFFF" points="15.457,28.315 16.857,26.06 15.457,26.06 	"/>
	<polygon fill="#FFFFFF" points="71.131,28.315 69.73,26.06 54.084,26.06 54.084,30.951 69.495,30.951 	"/>
	<polygon fill="#FFFFFF" points="71.131,28.315 71.131,30.951 69.495,30.951 64.36,39.226 80.159,28.315 64.36,17.407 69.73,26.06 
		71.131,26.06 	"/>
	<polygon fill="#FFFFFF" points="71.131,28.315 69.495,30.951 71.131,30.951 	"/>
	<polygon fill="#FFFFFF" points="71.131,26.06 69.73,26.06 71.131,28.315 	"/>
</g>
</svg>
