<?xml version="1.0" encoding="utf-8"?>
<!-- Generator: Adobe Illustrator 16.0.4, SVG Export Plug-In . SVG Version: 6.00 Build 0)  -->
<!DOCTYPE svg PUBLIC "-//W3C//DTD SVG 1.1//EN" "http://www.w3.org/Graphics/SVG/1.1/DTD/svg11.dtd">
<svg version="1.1" id="Layer_1" xmlns="http://www.w3.org/2000/svg" xmlns:xlink="http://www.w3.org/1999/xlink" x="0px" y="0px"
	 width="30.221px" height="24.345px" viewBox="0 0 30.221 24.345" enable-background="new 0 0 30.221 24.345" xml:space="preserve">
<g>
	<g>
		<path fill="#364148" d="M25.698,11.431c0,0.496,0,0.991,0,1.489c-0.014,0.051-0.035,0.104-0.04,0.156
			c-0.091,1.176-0.367,2.309-0.866,3.375c-1.576,3.366-4.188,5.425-7.84,6.147c-0.363,0.07-0.731,0.109-1.097,0.164
			c-0.497,0-0.993,0-1.489,0c-0.053-0.013-0.104-0.036-0.158-0.039c-1.168-0.091-2.294-0.364-3.354-0.858
			c-3.375-1.574-5.444-4.186-6.168-7.848c-0.071-0.363-0.107-0.732-0.164-1.098c0-0.498,0-0.993,0-1.489
			c0.015-0.054,0.033-0.106,0.041-0.159c0.084-0.529,0.137-1.064,0.258-1.586c0.994-4.297,4.821-7.641,9.196-8.05
			c1.882-0.176,3.703,0.07,5.417,0.878c3.338,1.576,5.385,4.186,6.101,7.818C25.604,10.696,25.644,11.065,25.698,11.431z
			 M5.592,12.182c0.007,5.261,4.274,9.522,9.53,9.512c5.255-0.01,9.505-4.262,9.507-9.516c0.004-5.258-4.261-9.523-9.519-9.521
			C9.849,2.657,5.587,6.922,5.592,12.182z"/>
		<path fill-rule="evenodd" clip-rule="evenodd" fill="#364148" d="M19.392,11.708c-0.445-0.479-0.877-0.973-1.34-1.436
			c-0.789-0.789-1.596-1.562-2.398-2.338c-0.166-0.162-0.252-0.347-0.195-0.574c0.097-0.396,0.58-0.539,0.887-0.256
			c0.287,0.266,0.564,0.543,0.848,0.818c1.305,1.267,2.609,2.533,3.914,3.802c0.32,0.308,0.32,0.595,0.002,0.903
			c-1.568,1.521-3.135,3.044-4.704,4.563c-0.263,0.255-0.581,0.275-0.804,0.055c-0.229-0.227-0.211-0.567,0.051-0.822
			c1.212-1.184,2.426-2.368,3.641-3.551c0.055-0.054,0.109-0.105,0.208-0.202c-0.124,0-0.198,0-0.274,0c-3.232,0-6.463,0-9.695,0
			c-0.413,0-0.654-0.179-0.656-0.492s0.238-0.498,0.648-0.498c3.232,0,6.465,0,9.697,0c0.074,0,0.148,0,0.223,0
			C19.427,11.689,19.407,11.698,19.392,11.708z"/>
	</g>
</g>
</svg>
