<?xml version="1.0" encoding="utf-8"?>
<!-- Generator: Adobe Illustrator 16.0.4, SVG Export Plug-In . SVG Version: 6.00 Build 0)  -->
<!DOCTYPE svg PUBLIC "-//W3C//DTD SVG 1.1//EN" "http://www.w3.org/Graphics/SVG/1.1/DTD/svg11.dtd">
<svg version="1.1" id="Layer_1" xmlns="http://www.w3.org/2000/svg" xmlns:xlink="http://www.w3.org/1999/xlink" x="0px" y="0px"
	 width="30.221px" height="24.345px" viewBox="0 0 30.221 24.345" enable-background="new 0 0 30.221 24.345" xml:space="preserve">
<g>
	<path fill="none" d="M13.522,11.04c-1.023-0.001-2.045,0.002-3.066,0c-0.252,0-0.334,0.051-0.334,0.32c0,0.652-0.002,1.303,0,1.953
		C11.548,13.059,12.767,12.216,13.522,11.04z"/>
	<path fill="none" d="M9.685,9.805c1.465,0,2.93,0,4.398,0c0.146-0.48,0.252-0.98,0.252-1.508c0-2.816-2.291-5.105-5.107-5.105
		c-2.814,0-5.105,2.289-5.105,5.105c0,2.693,2.104,4.883,4.75,5.069c0-0.922,0-1.845,0-2.767C8.872,10.024,9.101,9.805,9.685,9.805z
		 M5.562,9.334c-0.418,0-0.635-0.164-0.641-0.477c0-0.311,0.225-0.494,0.631-0.495C6.493,8.36,7.435,8.361,8.378,8.361
		c0.107,0,1.832,0.001,2.061,0.001c0.832,0,1.662-0.002,2.492,0.001c0.385,0,0.598,0.179,0.6,0.489c0,0.312-0.207,0.482-0.6,0.482
		C11.979,9.336,6.515,9.336,5.562,9.334z"/>
	<path fill="none" d="M10.122,14.645c0.002,2.091,0.008,4.182,0,6.273c-0.002,0.289,0.1,0.328,0.35,0.328
		c2.566-0.008,5.133-0.005,7.699-0.005c2.559,0,5.115-0.006,7.672,0.008c0.293,0.002,0.35-0.084,0.35-0.362
		c-0.01-3.166-0.01-6.331-0.002-9.498c0-0.26-0.055-0.352-0.336-0.351c-3.609,0.007-7.217,0.003-10.826,0.001
		C14.118,12.957,12.298,14.338,10.122,14.645z"/>
	<path fill="#364148" d="M12.517,8.832c0.332,0,0.508-0.171,0.508-0.481c-0.002-0.312-0.184-0.49-0.508-0.49
		c-0.701-0.002-1.404-0.001-2.107-0.001c-0.195,0-1.65,0-1.742,0c-0.799,0-1.596-0.001-2.391,0.001
		C5.933,7.862,5.743,8.045,5.745,8.356c0.002,0.312,0.188,0.476,0.541,0.476C7.091,8.833,11.714,8.833,12.517,8.832z"/>
	<path fill="#364148" d="M8.897,11.477c0,0.332,0.172,0.508,0.482,0.508c0.312-0.002,0.49-0.184,0.49-0.508
		c0.002-0.701,0.002-1.403,0.002-2.107c0-0.193,0-1.65,0-1.741c0-0.799,0-1.595-0.002-2.391C9.868,4.894,9.687,4.704,9.374,4.706
		C9.062,4.709,8.897,4.893,8.897,5.247C8.897,6.051,8.897,10.674,8.897,11.477z"/>
	<path fill="#364148" d="M26.622,9.805c-3.719,0-7.436,0-11.152,0c-0.105,0.431-0.254,0.842-0.441,1.234
		c3.609,0.002,7.217,0.006,10.826-0.001c0.281-0.001,0.336,0.091,0.336,0.351c-0.008,3.167-0.008,6.332,0.002,9.498
		c0,0.278-0.057,0.364-0.35,0.362c-2.557-0.014-5.113-0.008-7.672-0.008c-2.566,0-5.133-0.003-7.699,0.005
		c-0.25,0-0.352-0.039-0.35-0.328c0.008-2.092,0.002-4.183,0-6.273c-0.297,0.042-0.588,0.09-0.895,0.09
		c-0.123,0-0.236-0.028-0.355-0.036c0,2.333-0.002,4.664,0,6.995c0,0.586,0.217,0.791,0.809,0.791c2.824,0,5.646,0,8.469,0
		c2.834,0,5.666,0,8.498,0c0.561,0,0.783-0.224,0.783-0.788c0-3.698,0-7.396,0-11.095C27.431,10.032,27.2,9.805,26.622,9.805z"/>
	<path fill="#364148" d="M10.122,13.313c0,0.444-0.002,0.888,0,1.332c2.176-0.307,3.996-1.688,4.906-3.605c-0.502,0-1.004,0-1.506,0
		C12.767,12.216,11.548,13.059,10.122,13.313z"/>
	<path fill="#364148" d="M4.122,8.297c0-2.816,2.291-5.105,5.105-5.105c2.816,0,5.107,2.289,5.107,5.105
		c0,0.527-0.105,1.027-0.252,1.508c0.461,0,0.924,0,1.387,0c0.117-0.486,0.197-0.986,0.197-1.508c0-3.551-2.889-6.438-6.439-6.438
		S2.79,4.747,2.79,8.297c0,3.428,2.699,6.213,6.082,6.401c0-0.443,0-0.888,0-1.332C6.226,13.18,4.122,10.991,4.122,8.297z"/>
	<path fill="#364148" d="M10.122,14.645c-0.002-0.444,0-0.888,0-1.332c-0.293,0.052-0.588,0.09-0.895,0.09
		c-0.123,0-0.236-0.027-0.355-0.036c0,0.444,0,0.889,0,1.332c0.119,0.008,0.232,0.036,0.355,0.036
		C9.534,14.735,9.825,14.687,10.122,14.645z"/>
	<path fill="#364148" d="M13.522,11.04c0.502,0,1.004,0,1.506,0c0.188-0.393,0.336-0.804,0.441-1.234c-0.463,0-0.926,0-1.387,0
		C13.944,10.243,13.765,10.661,13.522,11.04z"/>
</g>
</svg>
