<?xml version="1.0" encoding="utf-8"?>
<!-- Generator: Adobe Illustrator 16.0.4, SVG Export Plug-In . SVG Version: 6.00 Build 0)  -->
<!DOCTYPE svg PUBLIC "-//W3C//DTD SVG 1.1//EN" "http://www.w3.org/Graphics/SVG/1.1/DTD/svg11.dtd">
<svg version="1.1" id="Layer_1" xmlns="http://www.w3.org/2000/svg" xmlns:xlink="http://www.w3.org/1999/xlink" x="0px" y="0px"
	 width="30.221px" height="24.345px" viewBox="0 0 30.221 24.345" enable-background="new 0 0 30.221 24.345" xml:space="preserve">
<g>
	<g>
		<path fill-rule="evenodd" clip-rule="evenodd" fill="#364148" d="M5.915,14.628c-1.301-0.62-2.537-1.217-3.781-1.802
			c-0.296-0.139-0.551-0.299-0.547-0.664c0-0.35,0.247-0.507,0.529-0.641c1.154-0.542,2.3-1.092,3.449-1.64
			c0.101-0.048,0.201-0.101,0.342-0.173C4.802,9.183,3.739,8.674,2.675,8.167C2.46,8.065,2.245,7.959,2.028,7.86
			c-0.254-0.119-0.44-0.295-0.441-0.593c0-0.312,0.184-0.492,0.455-0.618c1.54-0.73,3.078-1.467,4.617-2.2
			c2.658-1.267,5.318-2.528,7.973-3.803c0.327-0.157,0.609-0.165,0.938-0.008c4.163,1.991,8.331,3.974,12.498,5.962
			c0.132,0.062,0.273,0.125,0.378,0.221c0.32,0.291,0.221,0.797-0.21,1.014c-0.606,0.306-1.228,0.592-1.842,0.885
			c-0.675,0.323-1.353,0.646-2.076,0.99c0.136,0.07,0.229,0.125,0.325,0.172c1.182,0.563,2.361,1.129,3.541,1.688
			c0.281,0.134,0.467,0.319,0.444,0.655c-0.019,0.307-0.229,0.453-0.474,0.569c-1.149,0.548-2.299,1.096-3.449,1.644
			c-0.121,0.057-0.238,0.117-0.396,0.192c1.288,0.615,2.538,1.215,3.79,1.809c0.281,0.133,0.523,0.281,0.528,0.639
			c0.004,0.358-0.229,0.518-0.511,0.65c-4.189,1.993-8.377,3.987-12.563,5.985c-0.315,0.15-0.592,0.14-0.905-0.011
			c-4.176-1.995-8.355-3.983-12.533-5.971c-0.278-0.133-0.531-0.286-0.531-0.638c0-0.364,0.257-0.522,0.551-0.663
			C3.38,15.845,4.618,15.249,5.915,14.628z M3.672,7.248C3.78,7.309,3.854,7.36,3.937,7.397c3.641,1.736,7.283,3.469,10.922,5.209
			c0.202,0.096,0.354,0.066,0.544-0.023c3.576-1.709,7.159-3.412,10.741-5.118c0.123-0.061,0.251-0.13,0.406-0.213
			c-0.155-0.077-0.268-0.133-0.379-0.186c-3.57-1.7-7.143-3.397-10.71-5.104c-0.249-0.119-0.437-0.133-0.69-0.011
			c-2.479,1.192-4.961,2.37-7.445,3.553C6.117,6.079,4.909,6.657,3.672,7.248z M26.569,17.092c-1.172-0.558-2.29-1.085-3.403-1.629
			c-0.215-0.105-0.382-0.106-0.601-0.003c-2.326,1.116-4.66,2.217-6.987,3.333c-0.329,0.158-0.604,0.158-0.935,0
			c-2.324-1.119-4.658-2.22-6.983-3.336c-0.222-0.104-0.39-0.097-0.601,0.008c-1.023,0.497-2.055,0.98-3.08,1.468
			c-0.097,0.044-0.189,0.102-0.301,0.164c0.087,0.047,0.146,0.078,0.205,0.106c3.664,1.747,7.329,3.495,10.998,5.229
			c0.136,0.064,0.355,0.047,0.496-0.021c2.943-1.387,5.877-2.787,8.811-4.184C24.968,17.857,25.743,17.486,26.569,17.092z
			 M26.558,12.18c-0.136-0.072-0.234-0.127-0.336-0.174c-1.025-0.489-2.056-0.971-3.075-1.469c-0.204-0.098-0.362-0.105-0.569-0.006
			c-2.293,1.103-4.598,2.186-6.886,3.298c-0.423,0.204-0.771,0.188-1.188-0.012c-2.29-1.111-4.589-2.203-6.892-3.287
			c-0.136-0.064-0.354-0.059-0.494,0.005c-1.032,0.473-2.057,0.969-3.08,1.457c-0.113,0.054-0.223,0.111-0.358,0.177
			c0.075,0.046,0.11,0.073,0.153,0.092c3.683,1.755,7.364,3.512,11.052,5.253c0.137,0.064,0.356,0.045,0.498-0.021
			c3.125-1.476,6.24-2.963,9.36-4.447C25.338,12.762,25.931,12.479,26.558,12.18z"/>
	</g>
</g>
</svg>
