<?xml version="1.0" encoding="utf-8"?>
<!-- Generator: Adobe Illustrator 16.0.4, SVG Export Plug-In . SVG Version: 6.00 Build 0)  -->
<!DOCTYPE svg PUBLIC "-//W3C//DTD SVG 1.1//EN" "http://www.w3.org/Graphics/SVG/1.1/DTD/svg11.dtd">
<svg version="1.1" id="Layer_1" xmlns="http://www.w3.org/2000/svg" xmlns:xlink="http://www.w3.org/1999/xlink" x="0px" y="0px"
	 width="88px" height="83px" viewBox="0 0 88 83" enable-background="new 0 0 88 83" xml:space="preserve">
<g>
	<path fill="#FFFFFF" d="M67.713,71.496H19.642V11.329l48.071,11.604V71.496z M22.377,68.761h42.6V25.087l-42.6-10.282V68.761z"/>
</g>
<g>
	<rect x="15.928" y="7.596" fill="#FFFFFF" width="12.116" height="12.115"/>
</g>
<g>
	<rect x="59.896" y="63.289" fill="#FFFFFF" width="12.117" height="12.115"/>
</g>
<g>
	<rect x="15.342" y="63.289" fill="#FFFFFF" width="12.114" height="12.115"/>
</g>
<g>
	<rect x="59.896" y="17.562" fill="#FFFFFF" width="12.117" height="12.115"/>
</g>
<g>
	<g>
		<g>
			<g>
				<path fill-rule="evenodd" clip-rule="evenodd" fill="#FFFFFF" d="M6.044,52.807c-0.004-6.465,0-9.11,0-15.549
					c3.72,0.003,7.479,0.007,11.319,0.009c-0.008,2.985-0.047,6.183,0,9.374c0.005,0.513,0.261,1.206,0.641,1.492
					c0.973,0.726,2.192-0.046,2.202-1.342c0.023-2.92,0.014-5.836-0.002-8.757c0-0.329-0.12-0.657-0.179-0.95
					c2.094,0,3.921-0.001,5.934-0.001c-0.029,1.331-0.058,2.715-0.085,4.094c-0.015,0.653,0.281,1.204,0.878,1.373
					c0.425,0.119,1.068,0.075,1.38-0.18c0.348-0.282,0.571-0.882,0.595-1.354c0.074-1.301,0.016-2.608,0.009-3.822
					c1.89,0,3.736,0.001,5.751,0.001c-0.018,0.511-0.064,1.168-0.069,1.824c-0.007,2.588-0.011,5.172,0.004,7.756
					c0.012,1.279,1.094,1.996,2.13,1.434c0.623-0.336,0.742-0.914,0.739-1.56c-0.007-2.862,0.003-5.725-0.011-8.59
					c0-0.328-0.122-0.653-0.174-0.916c2.084,0.002,3.909,0.002,5.963,0.006c-0.04,0.979-0.082,2.052-0.119,3.123
					c-0.011,0.336-0.02,0.67,0.003,1.002c0.076,0.879,0.634,1.422,1.441,1.416c0.793-0.006,1.396-0.565,1.428-1.426
					c0.041-1.029,0.023-2.061,0.01-3.087c-0.003-0.358-0.07-0.717-0.096-1.001c1.994,0.006,3.843,0.011,5.792,0.018
					c-0.008,2.532-0.023,5.196-0.034,7.859c0,0.609-0.011,1.225,0.01,1.836c0.03,0.937,0.582,1.504,1.424,1.5
					c0.805-0.002,1.422-0.63,1.427-1.522c0.018-3.112,0.009-6.225,0.009-9.34c0-0.135,0.011-0.275,0.013-0.309
					c1.873,0,3.718-0.003,5.73-0.003c-0.022,1.228-0.069,2.636-0.07,4.044c0,0.717,0.375,1.216,1.09,1.388
					c0.719,0.172,1.281-0.121,1.601-0.75c0.165-0.324,0.177-0.749,0.183-1.131c0.019-1.22,0.008-2.441,0.005-3.572
					c1.884,0.004,3.726,0.005,5.695,0.007c-0.008,1.76-0.028,3.673-0.036,5.585c-0.009,1.276-0.009,2.555,0,3.833
					c0.008,1.163,0.499,1.766,1.417,1.771c0.935,0.004,1.45-0.604,1.453-1.743c0.005-2.865,0.007-5.727-0.003-8.59
					c0-0.331-0.064-0.664-0.087-0.913c3.883-0.001,7.624-0.002,11.314-0.005c-0.007,6.514-0.013,9.186-0.018,15.664
					C57.204,52.802,31.645,52.805,6.044,52.807z"/>
			</g>
		</g>
	</g>
</g>
</svg>
