<?xml version="1.0" encoding="utf-8"?>
<!-- Generator: Adobe Illustrator 16.0.4, SVG Export Plug-In . SVG Version: 6.00 Build 0)  -->
<!DOCTYPE svg PUBLIC "-//W3C//DTD SVG 1.1//EN" "http://www.w3.org/Graphics/SVG/1.1/DTD/svg11.dtd">
<svg version="1.1" id="Layer_1" xmlns="http://www.w3.org/2000/svg" xmlns:xlink="http://www.w3.org/1999/xlink" x="0px" y="0px"
	 width="19.203px" height="19.201px" viewBox="0 0 19.203 19.201" enable-background="new 0 0 19.203 19.201" xml:space="preserve">
<g>
	<path fill="#3AA8A8" d="M9.552,19.201c-5.294,0-9.602-4.308-9.602-9.599C-0.049,4.307,4.258,0,9.552,0
		c5.293,0,9.601,4.307,9.601,9.602C19.153,14.894,14.845,19.201,9.552,19.201z M9.552,1.955c-4.216,0-7.647,3.43-7.647,7.647
		s3.432,7.646,7.647,7.646S17.2,13.819,17.2,9.602C17.2,5.384,13.767,1.955,9.552,1.955z"/>
</g>
<path fill-rule="evenodd" clip-rule="evenodd" fill="#313A3A" d="M9.6,13.798c-0.422,0-0.844,0-1.267,0
	c-0.268-0.002-0.389-0.125-0.391-0.394c0-0.671-0.002-1.341,0.002-2.012c0.001-0.11-0.03-0.136-0.138-0.136
	c-0.666,0.005-1.331,0.002-1.997,0.002c-0.287,0-0.406-0.119-0.406-0.406c0-0.836,0-1.67,0-2.506
	C5.405,8.06,5.523,7.942,5.812,7.942c0.666,0,1.331-0.002,1.997,0.002c0.111,0.001,0.137-0.03,0.136-0.139
	C7.94,7.142,7.942,6.476,7.942,5.81c0-0.288,0.119-0.406,0.407-0.406c0.839,0,1.68,0,2.52,0c0.267,0,0.391,0.124,0.391,0.393
	c0.001,0.67,0.004,1.34-0.002,2.01c0,0.109,0.029,0.139,0.139,0.137c0.664-0.005,1.33-0.002,1.995-0.002
	c0.288,0,0.406,0.118,0.406,0.405c0.002,0.836,0.002,1.671,0,2.506c0,0.286-0.119,0.405-0.407,0.405
	c-0.666,0-1.33,0.003-1.996-0.002c-0.11-0.001-0.137,0.03-0.136,0.139c0.005,0.664,0.002,1.33,0.001,1.995
	c0,0.287-0.119,0.407-0.406,0.407C10.436,13.798,10.018,13.798,9.6,13.798z"/>
</svg>
