<?xml version="1.0" encoding="utf-8"?>
<!-- Generator: Adobe Illustrator 16.0.4, SVG Export Plug-In . SVG Version: 6.00 Build 0)  -->
<!DOCTYPE svg PUBLIC "-//W3C//DTD SVG 1.1//EN" "http://www.w3.org/Graphics/SVG/1.1/DTD/svg11.dtd">
<svg version="1.1" id="Layer_1" xmlns="http://www.w3.org/2000/svg" xmlns:xlink="http://www.w3.org/1999/xlink" x="0px" y="0px"
	 width="19.203px" height="19.201px" viewBox="0 0 19.203 19.201" enable-background="new 0 0 19.203 19.201" xml:space="preserve">
<g>
	<path fill="#3AA8A8" d="M9.552,19.201c-5.294,0-9.602-4.308-9.602-9.599C-0.049,4.307,4.258,0,9.552,0
		c5.293,0,9.601,4.307,9.601,9.602C19.153,14.894,14.845,19.201,9.552,19.201z M9.552,1.955c-4.216,0-7.647,3.43-7.647,7.647
		s3.432,7.646,7.647,7.646S17.2,13.819,17.2,9.602C17.2,5.384,13.767,1.955,9.552,1.955z"/>
</g>
<g>
	<g>
		<path fill-rule="evenodd" clip-rule="evenodd" fill="#383838" d="M9.776,4.155C9.887,4.178,10,4.193,10.108,4.222
			c0.194,0.051,0.371,0.134,0.485,0.312c0.102,0.16,0.127,0.185,0.291,0.29c0.299,0.189,0.406,0.482,0.432,0.816
			c0.023,0.314-0.021,0.625-0.089,0.933c-0.004,0.019-0.005,0.038-0.006,0.057c0.181,0.035,0.217,0.084,0.204,0.272
			c-0.012,0.181-0.082,0.337-0.208,0.465c-0.044,0.044-0.099,0.095-0.155,0.104c-0.115,0.017-0.151,0.09-0.191,0.182
			c-0.152,0.351-0.344,0.678-0.621,0.949C9.721,9.117,9.062,9.115,8.536,8.596c-0.283-0.279-0.477-0.615-0.63-0.977
			C7.874,7.544,7.834,7.505,7.751,7.477C7.523,7.398,7.429,7.203,7.375,6.983c-0.008-0.032-0.009-0.066-0.01-0.1
			C7.357,6.705,7.392,6.661,7.567,6.631C7.545,6.48,7.519,6.33,7.505,6.179c-0.032-0.34-0.017-0.674,0.144-0.986
			c0.213-0.414,0.563-0.675,0.988-0.831c0.238-0.088,0.495-0.126,0.743-0.187C9.405,4.17,9.43,4.163,9.456,4.155
			C9.563,4.155,9.669,4.155,9.776,4.155z"/>
		<path fill-rule="evenodd" clip-rule="evenodd" fill="#383838" d="M10.545,9.388c0.173,0.05,0.336,0.095,0.498,0.145
			c0.022,0.008,0.048,0.037,0.054,0.061c0.069,0.289,0.039,0.577-0.024,0.862C11.068,10.477,11.027,10.499,11,10.5
			c-0.449,0.021-0.725,0.262-0.873,0.674c-0.105,0.295-0.22,0.587-0.321,0.883c-0.07,0.202-0.131,0.407-0.094,0.627
			c0.037,0.216,0.235,0.391,0.453,0.399c0.085,0.002,0.14-0.037,0.158-0.121c0.02-0.087-0.013-0.15-0.097-0.184
			c-0.193-0.078-0.235-0.147-0.19-0.353c0.027-0.127,0.066-0.252,0.108-0.374c0.096-0.271,0.196-0.539,0.295-0.808
			c0.143-0.389,0.553-0.546,0.894-0.338c0.237,0.143,0.309,0.366,0.284,0.628c-0.032,0.339-0.064,0.679-0.101,1.017
			c-0.01,0.085-0.031,0.171-0.058,0.253c-0.053,0.157-0.122,0.195-0.285,0.188c-0.047-0.002-0.109,0.006-0.137,0.034
			c-0.035,0.037-0.062,0.105-0.051,0.149c0.013,0.048,0.068,0.104,0.116,0.118c0.283,0.083,0.522-0.024,0.62-0.304
			c0.073-0.208,0.107-0.433,0.139-0.652c0.037-0.267,0.047-0.538,0.078-0.807c0.042-0.374-0.146-0.743-0.48-0.918
			c-0.062-0.031-0.073-0.06-0.065-0.13c0.025-0.231,0.036-0.464,0.052-0.697c0.003-0.042,0-0.086,0-0.137
			c0.031,0.005,0.057,0.006,0.081,0.014c0.161,0.054,0.322,0.107,0.482,0.163c0.485,0.166,0.767,0.498,0.876,1.002
			c0.109,0.514,0.2,1.028,0.238,1.551c0.048,0.64,0.079,1.28,0.117,1.92c0.002,0.032,0,0.066,0,0.108c-2.56,0-5.117,0-7.683,0
			c0-0.129-0.007-0.262,0.001-0.393c0.035-0.563,0.063-1.127,0.115-1.688c0.054-0.588,0.133-1.173,0.31-1.74
			c0.09-0.294,0.267-0.512,0.541-0.636C6.82,9.816,7.128,9.708,7.451,9.582c-0.002,0.049,0,0.065-0.004,0.078
			c-0.27,0.911-0.201,1.807,0.102,2.696c0.012,0.036,0.005,0.091-0.016,0.124c-0.107,0.178-0.095,0.388,0.04,0.539
			c0.125,0.14,0.332,0.182,0.504,0.103c0.173-0.079,0.281-0.27,0.254-0.448C8.3,12.468,8.145,12.32,7.938,12.291
			c-0.034-0.006-0.083-0.034-0.093-0.062c-0.281-0.83-0.347-1.668-0.082-2.517C7.809,9.565,7.878,9.468,8.04,9.448
			c0.065-0.008,0.127-0.039,0.205-0.064c0.177,0.588,0.42,1.143,0.771,1.682c0.018-0.08,0.031-0.135,0.042-0.19
			c0.024-0.131,0.034-0.267,0.073-0.393c0.053-0.168,0.004-0.313-0.071-0.459c0.114-0.096,0.221-0.185,0.333-0.278
			c0.102,0.084,0.2,0.164,0.294,0.248c0.016,0.015,0.026,0.06,0.016,0.077c-0.111,0.17-0.06,0.345-0.027,0.521
			c0.029,0.15,0.056,0.3,0.089,0.48C10.108,10.528,10.364,9.975,10.545,9.388z"/>
	</g>
</g>
</svg>
