<?xml version="1.0" encoding="utf-8"?>
<!-- Generator: Adobe Illustrator 16.0.4, SVG Export Plug-In . SVG Version: 6.00 Build 0)  -->
<!DOCTYPE svg PUBLIC "-//W3C//DTD SVG 1.1//EN" "http://www.w3.org/Graphics/SVG/1.1/DTD/svg11.dtd">
<svg version="1.1" id="Layer_1" xmlns="http://www.w3.org/2000/svg" xmlns:xlink="http://www.w3.org/1999/xlink" x="0px" y="0px"
	 width="19.203px" height="19.201px" viewBox="0 0 19.203 19.201" enable-background="new 0 0 19.203 19.201" xml:space="preserve">
<g>
	<g>
		<path d="M5.626,13.812c0-1.898,0-3.792,0-5.702c0.449,0,0.896,0,1.356,0c0-0.239,0-0.464,0-0.703c-0.222,0-0.439,0-0.666,0
			c0-0.154,0-0.294,0-0.448c0.227,0,0.448,0,0.67,0c0.206-1.335,0.966-2.108,2.295-2.34c0-0.278,0-0.562,0-0.859
			c0.152,0,0.292,0,0.446,0c0,0.285,0,0.57,0,0.857c1.333,0.227,2.095,1.005,2.302,2.341c0.222,0,0.445,0,0.674,0
			c0,0.151,0,0.287,0,0.438c-0.219,0-0.438,0-0.666,0c0,0.237,0,0.462,0,0.702c0.445,0,0.895,0,1.352,0c0,1.91,0,3.81,0,5.713
			C10.805,13.812,8.223,13.812,5.626,13.812z M6.534,9.297c0,1.292,0,2.563,0,3.838c0.157,0,0.308,0,0.453,0
			c0-1.284,0-2.561,0-3.838C6.833,9.297,6.688,9.297,6.534,9.297z M7.908,9.297c0,1.292,0,2.563,0,3.838c0.158,0,0.308,0,0.453,0
			c0-1.284,0-2.558,0-3.838C8.207,9.297,8.062,9.297,7.908,9.297z M9.284,9.297c0,1.286,0,2.56,0,3.838c0.158,0,0.308,0,0.452,0
			c0-1.284,0-2.558,0-3.838C9.581,9.297,9.437,9.297,9.284,9.297z M10.652,13.136c0.154,0,0.306,0,0.459,0c0-1.285,0-2.558,0-3.835
			c-0.156,0-0.307,0-0.459,0C10.652,10.583,10.652,11.854,10.652,13.136z M12.029,9.297c0,1.286,0,2.56,0,3.838
			c0.16,0,0.311,0,0.455,0c0-1.284,0-2.561,0-3.838C12.329,9.297,12.182,9.297,12.029,9.297z M11.341,6.886
			c-0.177,0-0.346,0-0.522,0c0,0.179,0,0.349,0,0.522c0.18,0,0.348,0,0.522,0C11.341,7.23,11.341,7.061,11.341,6.886z M9.25,7.416
			c0-0.187,0-0.352,0-0.522c-0.177,0-0.345,0-0.515,0c-0.007,0.14-0.018,0.28-0.024,0.421C8.709,7.322,8.708,7.336,8.713,7.341
			c0.025,0.026,0.053,0.069,0.081,0.07C8.941,7.418,9.087,7.416,9.25,7.416z M9.77,7.407c0.18,0,0.35,0,0.537,0
			c0-0.158,0.002-0.311-0.006-0.46c-0.001-0.024-0.044-0.065-0.068-0.065C10.081,6.874,9.927,6.878,9.77,6.878
			C9.77,7.061,9.77,7.227,9.77,7.407z M7.677,6.882c0,0.184,0,0.353,0,0.524c0.179,0,0.347,0,0.521,0c0-0.178,0-0.347,0-0.524
			C8.021,6.882,7.856,6.882,7.677,6.882z"/>
		<path d="M14.4,14.245c0,0.146,0,0.277,0,0.426c-3.195,0-6.392,0-9.599,0c0-0.138,0-0.275,0-0.426
			C7.997,14.245,11.191,14.245,14.4,14.245z"/>
	</g>
</g>
<g>
	<path fill="#DD5A37" d="M9.603,19.201C4.308,19.201,0,14.894,0,9.603C0.001,4.307,4.308,0,9.603,0c5.293,0,9.6,4.307,9.6,9.603
		C19.203,14.894,14.896,19.201,9.603,19.201z M9.603,1.955c-4.217,0-7.648,3.43-7.648,7.647c0,4.217,3.432,7.646,7.648,7.646
		c4.215,0,7.647-3.429,7.647-7.646C17.25,5.384,13.818,1.955,9.603,1.955z"/>
</g>
</svg>
